# Blender v3.6.19 OBJ File: 'mushroom1.blend'
# www.blender.org
mtllib mushroom1.mtl
o defaultMaterial.001
v -0.000469 0.000907 0.001427
v -0.000673 0.000838 0.001424
v -0.000691 0.000891 0.001405
v -0.000482 0.000979 0.001391
v -0.000482 0.000979 0.001391
v -0.000691 0.000891 0.001405
v -0.000752 0.001007 0.001455
v -0.000524 0.001112 0.001433
v -0.000749 0.001049 0.001616
v -0.000520 0.001155 0.001594
v -0.000662 0.000976 0.001822
v -0.000457 0.001067 0.001806
v -0.000560 0.000862 0.001990
v -0.000385 0.000934 0.001983
v -0.000495 0.000784 0.002137
v -0.000342 0.000842 0.002144
v -0.000246 0.000945 0.001418
v -0.000253 0.001028 0.001368
v -0.000253 0.001028 0.001368
v -0.000274 0.001171 0.001404
v -0.000269 0.001216 0.001567
v -0.000233 0.001117 0.001789
v -0.000194 0.000975 0.001977
v -0.000171 0.000878 0.002153
v -0.000015 0.000953 0.001396
v -0.000016 0.001040 0.001340
v -0.000016 0.001040 0.001340
v -0.000014 0.001185 0.001374
v -0.000009 0.001231 0.001541
v -0.000003 0.001130 0.001772
v 0.000002 0.000987 0.001970
v 0.000007 0.000889 0.002153
v 0.000216 0.000934 0.001374
v 0.000221 0.001017 0.001322
v 0.000221 0.001017 0.001322
v 0.000246 0.001160 0.001358
v 0.000252 0.001206 0.001527
v 0.000228 0.001110 0.001761
v 0.000199 0.000971 0.001962
v 0.000185 0.000875 0.002142
v 0.000439 0.000895 0.001378
v 0.000450 0.000967 0.001338
v 0.000450 0.000967 0.001338
v 0.000496 0.001099 0.001378
v 0.000503 0.001143 0.001543
v 0.000451 0.001057 0.001765
v 0.000388 0.000927 0.001954
v 0.000354 0.000837 0.002123
v 0.000641 0.000829 0.001386
v 0.000660 0.000882 0.001365
v 0.000660 0.000882 0.001365
v 0.000725 0.000997 0.001412
v 0.000732 0.001039 0.001572
v 0.000657 0.000966 0.001782
v 0.000563 0.000854 0.001956
v 0.000505 0.000776 0.002107
v -0.000626 0.000712 0.001516
v -0.000774 0.000680 0.001485
v -0.000840 0.000733 0.001430
v -0.000871 0.000762 0.001421
v -0.000871 0.000762 0.001421
v -0.000949 0.000857 0.001479
v -0.000946 0.000899 0.001642
v -0.000839 0.000844 0.001846
v -0.000708 0.000756 0.002010
v -0.000618 0.000700 0.002147
v -0.000556 0.000663 0.002244
v -0.000456 0.000702 0.002278
v -0.000314 0.000745 0.002319
v -0.000154 0.000775 0.002349
v 0.000012 0.000785 0.002357
v 0.000178 0.000772 0.002339
v 0.000335 0.000740 0.002299
v 0.000474 0.000695 0.002250
v 0.000628 0.000691 0.002110
v 0.000571 0.000655 0.002210
v 0.000711 0.000747 0.001973
v 0.000833 0.000836 0.001809
v 0.000929 0.000890 0.001607
v 0.000921 0.000850 0.001449
v 0.000839 0.000756 0.001395
v 0.000808 0.000727 0.001404
v 0.000839 0.000756 0.001395
v 0.000744 0.000674 0.001460
v 0.000599 0.000704 0.001484
v 0.000406 0.000736 0.001509
v 0.000199 0.000759 0.001525
v -0.000012 0.000771 0.001546
v -0.000223 0.000767 0.001558
v -0.000431 0.000745 0.001547
v 0.000980 0.000371 0.001487
v 0.000913 0.000566 0.001441
v 0.000969 0.000581 0.001427
v 0.001059 0.000377 0.001460
v 0.001059 0.000377 0.001460
v 0.000969 0.000581 0.001427
v 0.001074 0.000659 0.001482
v 0.001182 0.000435 0.001516
v 0.001082 0.000699 0.001642
v 0.001192 0.000475 0.001681
v 0.000968 0.000665 0.001844
v 0.001061 0.000466 0.001887
v 0.000820 0.000604 0.002008
v 0.000893 0.000438 0.002056
v 0.000712 0.000576 0.002149
v 0.000769 0.000435 0.002207
v 0.001020 0.000162 0.001564
v 0.001113 0.000161 0.001532
v 0.001113 0.000161 0.001532
v 0.001247 0.000198 0.001589
v 0.001258 0.000238 0.001753
v 0.001115 0.000255 0.001953
v 0.000935 0.000259 0.002114
v 0.000803 0.000276 0.002266
v 0.001034 -0.000057 0.001631
v 0.001131 -0.000065 0.001597
v 0.001131 -0.000065 0.001597
v 0.001269 -0.000051 0.001657
v 0.001280 -0.000011 0.001821
v 0.001132 0.000035 0.002013
v 0.000949 0.000071 0.002165
v 0.000814 0.000107 0.002315
v 0.001020 -0.000283 0.001671
v 0.001113 -0.000296 0.001642
v 0.001113 -0.000296 0.001642
v 0.001247 -0.000303 0.001709
v 0.001258 -0.000264 0.001874
v 0.001115 -0.000189 0.002060
v 0.000935 -0.000120 0.002204
v 0.000803 -0.000066 0.002348
v 0.000980 -0.000504 0.001692
v 0.001059 -0.000521 0.001673
v 0.001059 -0.000521 0.001673
v 0.001182 -0.000548 0.001749
v 0.001192 -0.000509 0.001915
v 0.001061 -0.000407 0.002097
v 0.000893 -0.000306 0.002234
v 0.000769 -0.000235 0.002367
v 0.000912 -0.000706 0.001710
v 0.000968 -0.000726 0.001705
v 0.000968 -0.000726 0.001705
v 0.001073 -0.000770 0.001791
v 0.001082 -0.000732 0.001958
v 0.000967 -0.000608 0.002133
v 0.000820 -0.000477 0.002262
v 0.000712 -0.000386 0.002379
v 0.000769 0.000539 0.001518
v 0.000603 0.000570 0.002276
v 0.000637 0.000447 0.002360
v 0.000660 0.000305 0.002436
v 0.000669 0.000149 0.002489
v 0.000660 -0.000015 0.002512
v 0.000637 -0.000176 0.002509
v 0.000603 -0.000324 0.002490
v 0.000628 -0.000507 0.002397
v 0.000571 -0.000429 0.002470
v 0.000711 -0.000620 0.002293
v 0.000832 -0.000777 0.002174
v 0.000927 -0.000920 0.002006
v 0.000920 -0.000958 0.001838
v 0.000838 -0.000899 0.001745
v 0.000807 -0.000869 0.001740
v 0.000838 -0.000899 0.001745
v 0.000743 -0.000796 0.001769
v 0.000768 -0.000647 0.001769
v 0.000795 -0.000449 0.001773
v 0.000815 -0.000240 0.001764
v 0.000823 -0.000033 0.001730
v 0.000815 0.000167 0.001667
v 0.000795 0.000358 0.001587
v 0.000439 -0.001022 0.001833
v 0.000640 -0.000966 0.001781
v 0.000659 -0.001022 0.001786
v 0.000450 -0.001103 0.001832
v 0.000450 -0.001103 0.001832
v 0.000659 -0.001022 0.001786
v 0.000724 -0.001103 0.001881
v 0.000496 -0.001202 0.001928
v 0.000731 -0.001066 0.002049
v 0.000503 -0.001167 0.002095
v 0.000656 -0.000904 0.002214
v 0.000451 -0.000989 0.002255
v 0.000563 -0.000723 0.002329
v 0.000388 -0.000788 0.002365
v 0.000505 -0.000584 0.002433
v 0.000354 -0.000630 0.002475
v 0.000217 -0.001050 0.001880
v 0.000222 -0.001147 0.001873
v 0.000222 -0.001147 0.001873
v 0.000247 -0.001258 0.001969
v 0.000253 -0.001224 0.002135
v 0.000228 -0.001035 0.002290
v 0.000199 -0.000823 0.002396
v 0.000185 -0.000656 0.002509
v -0.000014 -0.001058 0.001903
v -0.000015 -0.001160 0.001895
v -0.000015 -0.001160 0.001895
v -0.000013 -0.001275 0.001991
v -0.000008 -0.001241 0.002156
v -0.000002 -0.001048 0.002309
v 0.000002 -0.000833 0.002411
v 0.000007 -0.000664 0.002525
v -0.000246 -0.001047 0.001894
v -0.000254 -0.001144 0.001888
v -0.000254 -0.001144 0.001888
v -0.000274 -0.001254 0.001984
v -0.000269 -0.001220 0.002151
v -0.000233 -0.001032 0.002304
v -0.000194 -0.000820 0.002408
v -0.000171 -0.000654 0.002519
v -0.000470 -0.001015 0.001860
v -0.000483 -0.001096 0.001860
v -0.000483 -0.001096 0.001860
v -0.000525 -0.001195 0.001958
v -0.000520 -0.001160 0.002125
v -0.000457 -0.000983 0.002282
v -0.000385 -0.000782 0.002389
v -0.000342 -0.000626 0.002496
v -0.000674 -0.000956 0.001816
v -0.000693 -0.001012 0.001823
v -0.000693 -0.001012 0.001823
v -0.000754 -0.001092 0.001924
v -0.000750 -0.001056 0.002092
v -0.000663 -0.000895 0.002253
v -0.000560 -0.000715 0.002363
v -0.000495 -0.000577 0.002463
v 0.000598 -0.000809 0.001813
v 0.000474 -0.000447 0.002524
v 0.000335 -0.000464 0.002588
v 0.000178 -0.000475 0.002638
v 0.000012 -0.000478 0.002660
v -0.000154 -0.000473 0.002648
v -0.000314 -0.000460 0.002607
v -0.000456 -0.000441 0.002551
v -0.000618 -0.000498 0.002434
v -0.000556 -0.000421 0.002504
v -0.000709 -0.000610 0.002334
v -0.000840 -0.000764 0.002220
v -0.000947 -0.000906 0.002054
v -0.000950 -0.000944 0.001884
v -0.000874 -0.000886 0.001784
v -0.000842 -0.000856 0.001776
v -0.000874 -0.000886 0.001784
v -0.000776 -0.000784 0.001801
v -0.000628 -0.000800 0.001844
v -0.000432 -0.000815 0.001899
v -0.000223 -0.000825 0.001937
v -0.000011 -0.000830 0.001947
v 0.000200 -0.000828 0.001924
v 0.000405 -0.000821 0.001874
v -0.001015 -0.000492 0.001708
v -0.000949 -0.000692 0.001740
v -0.001005 -0.000711 0.001738
v -0.001096 -0.000508 0.001693
v -0.001096 -0.000508 0.001693
v -0.001005 -0.000711 0.001738
v -0.001104 -0.000753 0.001834
v -0.001213 -0.000532 0.001782
v -0.001102 -0.000715 0.002007
v -0.001212 -0.000493 0.001957
v -0.000975 -0.000593 0.002181
v -0.001068 -0.000392 0.002142
v -0.000818 -0.000465 0.002308
v -0.000890 -0.000293 0.002283
v -0.000702 -0.000376 0.002421
v -0.000757 -0.000224 0.002412
v -0.001053 -0.000274 0.001677
v -0.001148 -0.000287 0.001652
v -0.001148 -0.000287 0.001652
v -0.001277 -0.000291 0.001733
v -0.001277 -0.000251 0.001909
v -0.001121 -0.000176 0.002103
v -0.000931 -0.000107 0.002254
v -0.000789 -0.000055 0.002395
v -0.001065 -0.000051 0.001640
v -0.001165 -0.000059 0.001610
v -0.001165 -0.000059 0.001610
v -0.001297 -0.000041 0.001684
v -0.001298 -0.000000 0.001860
v -0.001137 0.000047 0.002059
v -0.000944 0.000083 0.002216
v -0.000800 0.000119 0.002363
v -0.001051 0.000169 0.001590
v -0.001146 0.000169 0.001562
v -0.001146 0.000169 0.001562
v -0.001275 0.000208 0.001631
v -0.001275 0.000250 0.001804
v -0.001120 0.000268 0.002005
v -0.000931 0.000271 0.002165
v -0.000789 0.000288 0.002313
v -0.001012 0.000380 0.001525
v -0.001092 0.000387 0.001505
v -0.001092 0.000387 0.001505
v -0.001210 0.000448 0.001571
v -0.001210 0.000490 0.001741
v -0.001067 0.000480 0.001945
v -0.000890 0.000451 0.002108
v -0.000757 0.000446 0.002252
v -0.000946 0.000572 0.001466
v -0.001002 0.000588 0.001454
v -0.001002 0.000588 0.001454
v -0.001102 0.000667 0.001516
v -0.001100 0.000709 0.001682
v -0.000974 0.000675 0.001887
v -0.000818 0.000615 0.002052
v -0.000702 0.000586 0.002191
v -0.000800 -0.000635 0.001796
v -0.000585 -0.000316 0.002525
v -0.000615 -0.000167 0.002547
v -0.000636 -0.000005 0.002551
v -0.000644 0.000158 0.002528
v -0.000636 0.000314 0.002474
v -0.000615 0.000456 0.002397
v -0.000585 0.000579 0.002311
v -0.000797 0.000545 0.001542
v -0.000822 0.000366 0.001618
v -0.000840 0.000173 0.001692
v -0.000848 -0.000027 0.001744
v -0.000841 -0.000233 0.001776
v -0.000824 -0.000438 0.001790
v 0.000364 0.000518 0.001639
v 0.000556 0.000508 0.001580
v 0.000553 0.000335 0.001676
v 0.000330 0.000319 0.001761
v 0.000561 0.000165 0.001760
v 0.000341 0.000171 0.001855
v 0.000567 -0.000012 0.001818
v 0.000346 0.000011 0.001913
v 0.000561 -0.000196 0.001846
v 0.000341 -0.000159 0.001934
v 0.000553 -0.000388 0.001843
v 0.000330 -0.000333 0.001917
v 0.000555 -0.000589 0.001820
v 0.000364 -0.000567 0.001892
v 0.000178 0.000535 0.001678
v 0.000165 0.000341 0.001820
v 0.000163 0.000184 0.001923
v 0.000166 0.000027 0.001983
v 0.000163 -0.000139 0.002000
v 0.000165 -0.000327 0.001980
v 0.000178 -0.000562 0.001946
v -0.000009 0.000545 0.001697
v -0.000006 0.000351 0.001842
v -0.000004 0.000193 0.001949
v -0.000003 0.000035 0.002015
v -0.000004 -0.000135 0.002028
v -0.000006 -0.000325 0.002004
v -0.000009 -0.000562 0.001968
v -0.000197 0.000539 0.001695
v -0.000178 0.000344 0.001830
v -0.000173 0.000186 0.001933
v -0.000174 0.000030 0.001994
v -0.000173 -0.000137 0.002010
v -0.000178 -0.000324 0.001990
v -0.000197 -0.000559 0.001957
v -0.000385 0.000524 0.001664
v -0.000347 0.000324 0.001781
v -0.000354 0.000176 0.001876
v -0.000358 0.000016 0.001934
v -0.000354 -0.000154 0.001955
v -0.000347 -0.000328 0.001937
v -0.000386 -0.000562 0.001913
v -0.000580 0.000515 0.001605
v -0.000574 0.000342 0.001703
v -0.000580 0.000172 0.001788
v -0.000585 -0.000006 0.001844
v -0.000580 -0.000189 0.001871
v -0.000575 -0.000379 0.001868
v -0.000582 -0.000581 0.001846
v 0.000333 -0.000287 0.002697
v 0.000476 -0.000296 0.002601
v 0.000493 -0.000135 0.002656
v 0.000342 -0.000109 0.002783
v 0.000508 0.000030 0.002681
v 0.000352 0.000064 0.002831
v 0.000515 0.000191 0.002665
v 0.000358 0.000229 0.002824
v 0.000508 0.000341 0.002606
v 0.000352 0.000378 0.002755
v 0.000493 0.000477 0.002509
v 0.000342 0.000512 0.002634
v 0.000476 0.000596 0.002387
v 0.000333 0.000632 0.002477
v 0.000179 -0.000284 0.002766
v 0.000185 -0.000096 0.002874
v 0.000193 0.000087 0.002945
v 0.000197 0.000259 0.002948
v 0.000193 0.000410 0.002867
v 0.000185 0.000541 0.002722
v 0.000179 0.000660 0.002540
v 0.000018 -0.000284 0.002795
v 0.000023 -0.000091 0.002911
v 0.000026 0.000096 0.002992
v 0.000028 0.000271 0.003001
v 0.000026 0.000424 0.002914
v 0.000023 0.000554 0.002757
v 0.000018 0.000673 0.002566
v -0.000144 -0.000282 0.002776
v -0.000142 -0.000093 0.002884
v -0.000143 0.000089 0.002955
v -0.000144 0.000261 0.002958
v -0.000143 0.000412 0.002877
v -0.000142 0.000543 0.002732
v -0.000144 0.000663 0.002550
v -0.000303 -0.000283 0.002716
v -0.000304 -0.000105 0.002802
v -0.000309 0.000069 0.002850
v -0.000312 0.000234 0.002844
v -0.000309 0.000383 0.002775
v -0.000304 0.000516 0.002653
v -0.000303 0.000636 0.002496
v -0.000451 -0.000290 0.002629
v -0.000463 -0.000128 0.002684
v -0.000474 0.000037 0.002710
v -0.000479 0.000198 0.002695
v -0.000474 0.000348 0.002635
v -0.000463 0.000484 0.002538
v -0.000451 0.000603 0.002415
v -0.000418 -0.000319 0.000079
v -0.000314 -0.000473 0.000087
v -0.000296 -0.000441 0.000315
v -0.000400 -0.000298 0.000312
v -0.000234 -0.000368 0.000503
v -0.000314 -0.000250 0.000497
v -0.000471 -0.000145 0.000076
v -0.000441 -0.000132 0.000304
v -0.000345 -0.000116 0.000487
v -0.000330 -0.000501 -0.000095
v -0.000184 -0.000626 -0.000067
v -0.000170 -0.000586 0.000106
v -0.000153 -0.000536 0.000320
v -0.000120 -0.000448 0.000508
v -0.000093 -0.000377 0.000682
v -0.000184 -0.000309 0.000678
v -0.000243 -0.000210 0.000672
v -0.000261 -0.000102 0.000661
v -0.000318 0.000007 0.000472
v -0.000235 -0.000005 0.000651
v -0.000416 0.000024 0.000292
v -0.000458 0.000022 0.000078
v -0.000480 0.000014 -0.000104
v -0.000488 -0.000159 -0.000110
v -0.000435 -0.000338 -0.000107
v -0.000219 0.000269 0.000093
v -0.000379 0.000171 0.000094
v -0.000334 0.000157 0.000294
v -0.000195 0.000252 0.000297
v -0.000252 0.000113 0.000471
v -0.000148 0.000190 0.000474
v -0.000032 0.000311 0.000092
v -0.000025 0.000294 0.000297
v -0.000014 0.000227 0.000476
v -0.000404 0.000173 -0.000081
v -0.000379 0.000171 0.000094
v -0.000334 0.000157 0.000294
v -0.000252 0.000113 0.000471
v -0.000186 0.000082 0.000646
v -0.000186 0.000082 0.000646
v -0.000109 0.000149 0.000647
v -0.000005 0.000186 0.000648
v 0.000122 0.000223 0.000480
v 0.000105 0.000184 0.000653
v 0.000148 0.000287 0.000302
v 0.000156 0.000297 0.000096
v 0.000164 0.000306 -0.000074
v -0.000037 0.000329 -0.000074
v -0.000238 0.000282 -0.000075
v -0.000404 0.000173 -0.000081
v 0.000433 0.000057 0.000091
v 0.000315 0.000201 0.000092
v 0.000291 0.000194 0.000297
v 0.000398 0.000060 0.000296
v 0.000236 0.000152 0.000478
v 0.000322 0.000043 0.000478
v 0.000491 -0.000118 0.000089
v 0.000449 -0.000101 0.000296
v 0.000364 -0.000089 0.000479
v 0.000334 0.000206 -0.000077
v 0.000201 0.000127 0.000651
v 0.000274 0.000035 0.000653
v 0.000309 -0.000077 0.000656
v 0.000355 -0.000221 0.000483
v 0.000304 -0.000189 0.000663
v 0.000429 -0.000261 0.000296
v 0.000466 -0.000292 0.000085
v 0.000492 -0.000317 -0.000088
v 0.000514 -0.000133 -0.000086
v 0.000456 0.000050 -0.000082
v 0.000209 -0.000560 0.000104
v 0.000369 -0.000446 0.000094
v 0.000341 -0.000403 0.000305
v 0.000196 -0.000510 0.000316
v 0.000284 -0.000338 0.000491
v 0.000166 -0.000428 0.000502
v 0.000017 -0.000615 0.000112
v 0.000020 -0.000562 0.000324
v 0.000022 -0.000470 0.000509
v 0.000386 -0.000478 -0.000082
v 0.000244 -0.000289 0.000670
v 0.000145 -0.000364 0.000679
v 0.000024 -0.000400 0.000685
v 0.000015 -0.000651 -0.000067
v 0.000216 -0.000594 -0.000074
v -0.000194 -0.000079 0.000995
v -0.000208 -0.000090 0.000829
v -0.000196 -0.000179 0.000839
v -0.000179 -0.000165 0.000998
v -0.000143 -0.000262 0.000844
v -0.000130 -0.000243 0.001001
v -0.000197 -0.000072 0.001160
v -0.000188 -0.000164 0.001163
v -0.000135 -0.000245 0.001165
v -0.000183 -0.000008 0.000820
v -0.000071 -0.000327 0.000847
v -0.000062 -0.000303 0.001004
v -0.000063 -0.000307 0.001167
v -0.000150 -0.000259 0.001333
v -0.000068 -0.000321 0.001332
v -0.000209 -0.000170 0.001331
v -0.000226 -0.000067 0.001328
v -0.000199 0.000031 0.001326
v -0.000173 0.000013 0.001155
v -0.000171 0.000001 0.000990
v 0.000041 -0.000368 0.001688
v 0.000040 -0.000348 0.001503
v 0.000160 -0.000300 0.001497
v 0.000171 -0.000306 0.001682
v 0.000261 -0.000215 0.001490
v 0.000289 -0.000211 0.001672
v 0.000040 -0.000375 0.001887
v 0.000191 -0.000324 0.001870
v 0.000324 -0.000210 0.001859
v -0.000078 -0.000346 0.001506
v 0.000037 -0.000329 0.001329
v 0.000145 -0.000291 0.001324
v 0.000237 -0.000219 0.001318
v 0.000296 -0.000123 0.001311
v 0.000321 -0.000104 0.001484
v 0.000353 -0.000081 0.001667
v 0.000388 -0.000057 0.001857
v 0.000361 -0.000210 0.002048
v 0.000422 -0.000035 0.002038
v 0.000216 -0.000351 0.002058
v 0.000041 -0.000393 0.002068
v -0.000090 -0.000347 0.002082
v -0.000086 -0.000347 0.001906
v -0.000086 -0.000363 0.001695
v 0.000031 -0.000326 0.001006
v 0.000027 -0.000352 0.000849
v 0.000133 -0.000321 0.000844
v 0.000131 -0.000298 0.001003
v 0.000220 -0.000254 0.000836
v 0.000215 -0.000236 0.000997
v 0.000033 -0.000322 0.001165
v 0.000135 -0.000289 0.001161
v 0.000222 -0.000225 0.001155
v 0.000271 -0.000165 0.000828
v 0.000264 -0.000150 0.000989
v 0.000276 -0.000137 0.001149
v 0.000007 0.000171 0.000975
v 0.000004 0.000159 0.000810
v -0.000080 0.000125 0.000811
v -0.000080 0.000139 0.000982
v -0.000141 0.000067 0.000815
v -0.000137 0.000080 0.000987
v 0.000009 0.000206 0.001139
v -0.000082 0.000165 0.001143
v -0.000140 0.000096 0.001149
v 0.000098 0.000160 0.000814
v -0.000141 0.000067 0.000815
v -0.000137 0.000080 0.000987
v -0.000140 0.000096 0.001149
v -0.000155 0.000121 0.001317
v -0.000091 0.000202 0.001306
v -0.000155 0.000121 0.001317
v 0.000013 0.000235 0.001304
v 0.000116 0.000219 0.001306
v 0.000109 0.000200 0.001137
v 0.000098 0.000167 0.000976
v 0.000269 -0.000053 0.000983
v 0.000277 -0.000065 0.000822
v 0.000247 0.000035 0.000820
v 0.000239 0.000043 0.000979
v 0.000183 0.000117 0.000818
v 0.000179 0.000121 0.000977
v 0.000286 -0.000036 0.001144
v 0.000256 0.000064 0.001140
v 0.000195 0.000148 0.001137
v 0.000208 0.000175 0.001301
v 0.000277 0.000092 0.001301
v 0.000308 -0.000014 0.001305
v 0.000028 0.000334 0.001655
v 0.000021 0.000276 0.001476
v -0.000099 0.000245 0.001476
v -0.000106 0.000295 0.001655
v -0.000194 0.000163 0.001485
v -0.000220 0.000202 0.001664
v 0.000037 0.000401 0.001839
v -0.000110 0.000338 0.001848
v -0.000223 0.000223 0.001867
v 0.000129 0.000257 0.001482
v -0.000194 0.000163 0.001485
v -0.000244 0.000054 0.001497
v -0.000220 0.000202 0.001664
v -0.000286 0.000077 0.001676
v -0.000223 0.000223 0.001867
v -0.000298 0.000093 0.001876
v -0.000225 0.000242 0.002040
v -0.000308 0.000108 0.002048
v -0.000116 0.000386 0.002028
v -0.000225 0.000242 0.002040
v 0.000045 0.000480 0.002020
v 0.000199 0.000454 0.002033
v 0.000172 0.000379 0.001851
v 0.000149 0.000313 0.001664
v 0.000363 0.000052 0.001663
v 0.000329 0.000015 0.001481
v 0.000299 0.000128 0.001476
v 0.000323 0.000168 0.001665
v 0.000222 0.000209 0.001480
v 0.000245 0.000256 0.001667
v 0.000375 0.000086 0.001865
v 0.000335 0.000207 0.001867
v 0.000264 0.000301 0.001866
v 0.000291 0.000359 0.002038
v 0.000353 0.000245 0.002035
v 0.000399 0.000118 0.002032
v -0.000312 -0.000062 0.001679
v -0.000269 -0.000064 0.001500
v -0.000243 -0.000185 0.001504
v -0.000275 -0.000201 0.001686
v -0.000175 -0.000286 0.001506
v -0.000196 -0.000311 0.001691
v -0.000332 -0.000057 0.001875
v -0.000280 -0.000200 0.001888
v -0.000187 -0.000293 0.001904
v -0.000190 -0.000290 0.002082
v -0.000292 -0.000203 0.002074
v -0.000356 -0.000053 0.002059
vt 0.755083 0.582413
vt 0.760933 0.558946
vt 0.754466 0.557256
vt 0.745844 0.581431
vt 0.150672 0.431868
vt 0.190518 0.436339
vt 0.191391 0.414144
vt 0.156877 0.408228
vt 0.191743 0.392969
vt 0.162432 0.387008
vt 0.192493 0.366591
vt 0.168698 0.360966
vt 0.193967 0.342605
vt 0.175131 0.337232
vt 0.196057 0.324771
vt 0.181201 0.319173
vt 0.752046 0.607697
vt 0.740914 0.607446
vt 0.112122 0.416959
vt 0.122963 0.395924
vt 0.133339 0.376446
vt 0.145791 0.351188
vt 0.157060 0.328587
vt 0.166645 0.310972
vt 0.751434 0.633737
vt 0.739744 0.634384
vt 0.077784 0.395625
vt 0.092113 0.377682
vt 0.106276 0.360672
vt 0.124255 0.338076
vt 0.140216 0.317437
vt 0.152835 0.301164
vt 0.753765 0.659643
vt 0.742702 0.661113
vt 0.049936 0.368651
vt 0.066260 0.354545
vt 0.082927 0.340171
vt 0.105210 0.321436
vt 0.124999 0.304135
vt 0.139885 0.290240
vt 0.759840 0.684234
vt 0.750708 0.686287
vt 0.028590 0.337332
vt 0.047563 0.326195
vt 0.065778 0.314988
vt 0.089981 0.301625
vt 0.111910 0.288911
vt 0.128263 0.278188
vt 0.768890 0.706444
vt 0.762668 0.708958
vt 0.013975 0.302280
vt 0.034549 0.295009
vt 0.054190 0.287720
vt 0.079203 0.279639
vt 0.102110 0.271863
vt 0.119013 0.265157
vt 0.778582 0.563931
vt 0.779684 0.546929
vt 0.771339 0.539257
vt 0.767615 0.536023
vt 0.228000 0.433713
vt 0.224626 0.413415
vt 0.220676 0.392938
vt 0.216376 0.366949
vt 0.212995 0.343225
vt 0.210610 0.326033
vt 0.209066 0.314539
vt 0.199987 0.309528
vt 0.188417 0.301986
vt 0.176803 0.293529
vt 0.165498 0.284859
vt 0.154295 0.276031
vt 0.143180 0.266832
vt 0.132914 0.257427
vt 0.114044 0.251226
vt 0.125704 0.249797
vt 0.096904 0.253342
vt 0.073363 0.256284
vt 0.048193 0.259487
vt 0.027445 0.262157
vt 0.005541 0.264967
vt 0.781908 0.724416
vt 0.778629 0.728102
vt 0.789369 0.716028
vt 0.786105 0.699644
vt 0.782474 0.678113
vt 0.779326 0.655383
vt 0.777716 0.632129
vt 0.777521 0.608948
vt 0.777819 0.586032
vt 0.824319 0.741603
vt 0.801274 0.735251
vt 0.799507 0.741728
vt 0.823405 0.750895
vt 0.009605 0.189569
vt 0.004335 0.226792
vt 0.025985 0.228595
vt 0.030209 0.195294
vt 0.046822 0.230603
vt 0.050954 0.200991
vt 0.073214 0.232162
vt 0.078253 0.208048
vt 0.097428 0.234087
vt 0.102837 0.215116
vt 0.115496 0.236495
vt 0.121346 0.221578
vt 0.849757 0.743654
vt 0.849616 0.754732
vt 0.023396 0.153023
vt 0.044298 0.163500
vt 0.064105 0.173034
vt 0.089467 0.185450
vt 0.112173 0.197191
vt 0.129773 0.207022
vt 0.875790 0.743125
vt 0.876522 0.754736
vt 0.045155 0.117487
vt 0.064675 0.133123
vt 0.082231 0.147232
vt 0.104146 0.164797
vt 0.123932 0.180599
vt 0.139807 0.193242
vt 0.901694 0.740377
vt 0.903225 0.751357
vt 0.075104 0.088305
vt 0.090010 0.106607
vt 0.103561 0.124031
vt 0.121080 0.145996
vt 0.137480 0.165463
vt 0.150967 0.180378
vt 0.926809 0.735257
vt 0.928811 0.744319
vt 0.108257 0.066328
vt 0.118554 0.086015
vt 0.128030 0.105438
vt 0.140568 0.130215
vt 0.152813 0.152414
vt 0.163212 0.168922
vt 0.949488 0.726963
vt 0.951924 0.733184
vt 0.142767 0.052730
vt 0.148803 0.072158
vt 0.154681 0.092750
vt 0.162302 0.118888
vt 0.169857 0.142641
vt 0.176345 0.159896
vt 0.806023 0.717359
vt 0.130870 0.240654
vt 0.138599 0.229045
vt 0.147226 0.217427
vt 0.156051 0.206148
vt 0.165024 0.195001
vt 0.174355 0.183981
vt 0.183860 0.173844
vt 0.190251 0.155122
vt 0.191538 0.166750
vt 0.188314 0.137595
vt 0.185611 0.113156
vt 0.182643 0.086465
vt 0.180325 0.065793
vt 0.177944 0.044659
vt 0.967460 0.714201
vt 0.971159 0.717465
vt 0.958984 0.706722
vt 0.942385 0.709826
vt 0.920312 0.712948
vt 0.897251 0.715403
vt 0.874156 0.717235
vt 0.850986 0.718299
vt 0.827849 0.718477
vt 0.983290 0.671244
vt 0.977886 0.694780
vt 0.984362 0.696423
vt 0.992532 0.672100
vt 0.250934 0.050240
vt 0.214080 0.044659
vt 0.212521 0.065003
vt 0.245211 0.071857
vt 0.211330 0.086436
vt 0.240196 0.092991
vt 0.209619 0.113651
vt 0.233327 0.119982
vt 0.207427 0.138492
vt 0.226185 0.144323
vt 0.204860 0.156742
vt 0.219633 0.162679
vt 0.985233 0.645685
vt 0.996321 0.645830
vt 0.288467 0.064451
vt 0.277796 0.085803
vt 0.268242 0.105901
vt 0.255790 0.131211
vt 0.243959 0.153742
vt 0.234046 0.171178
vt 0.984707 0.619641
vt 0.996321 0.618901
vt 0.324605 0.086727
vt 0.308543 0.106497
vt 0.294141 0.124168
vt 0.276329 0.146010
vt 0.260389 0.165594
vt 0.247673 0.181274
vt 0.981921 0.593739
vt 0.992902 0.592188
vt 0.353986 0.117562
vt 0.335098 0.132475
vt 0.317244 0.145904
vt 0.294939 0.163150
vt 0.275324 0.179241
vt 0.260361 0.192482
vt 0.976743 0.568622
vt 0.985808 0.566606
vt 0.375833 0.151840
vt 0.355332 0.161899
vt 0.335413 0.170928
vt 0.310353 0.182880
vt 0.288092 0.194654
vt 0.271602 0.204746
vt 0.968344 0.545782
vt 0.974609 0.543396
vt 0.389216 0.187968
vt 0.368182 0.193261
vt 0.347243 0.198089
vt 0.321101 0.204745
vt 0.297495 0.211688
vt 0.280379 0.217835
vt 0.959998 0.689867
vt 0.200582 0.171987
vt 0.212068 0.179782
vt 0.223565 0.188459
vt 0.234721 0.197318
vt 0.245734 0.206311
vt 0.256593 0.215640
vt 0.266544 0.225112
vt 0.284914 0.231579
vt 0.273474 0.232730
vt 0.302196 0.229959
vt 0.326359 0.227932
vt 0.352728 0.226098
vt 0.373918 0.225353
vt 0.394434 0.224319
vt 0.955425 0.527505
vt 0.958758 0.523861
vt 0.947991 0.536032
vt 0.951231 0.552881
vt 0.954458 0.575174
vt 0.956967 0.598230
vt 0.958831 0.621291
vt 0.959907 0.644405
vt 0.960347 0.667580
vt 0.912505 0.510609
vt 0.935866 0.516633
vt 0.937580 0.510164
vt 0.913398 0.501331
vt 0.386874 0.295773
vt 0.394263 0.260454
vt 0.373466 0.257533
vt 0.366667 0.289051
vt 0.352405 0.254375
vt 0.346333 0.282486
vt 0.325603 0.251547
vt 0.319580 0.274557
vt 0.301141 0.248704
vt 0.295389 0.266903
vt 0.283181 0.245881
vt 0.277312 0.260266
vt 0.887335 0.508239
vt 0.887515 0.497099
vt 0.372407 0.328553
vt 0.353929 0.318791
vt 0.334398 0.308907
vt 0.309139 0.296103
vt 0.286411 0.284074
vt 0.269074 0.274320
vt 0.861668 0.508819
vt 0.861000 0.497138
vt 0.353139 0.359650
vt 0.335559 0.346157
vt 0.317844 0.333077
vt 0.295346 0.315734
vt 0.275212 0.300036
vt 0.259404 0.287710
vt 0.836181 0.512087
vt 0.834716 0.501057
vt 0.327551 0.387440
vt 0.312525 0.370887
vt 0.297490 0.354550
vt 0.279183 0.333716
vt 0.262302 0.314802
vt 0.248711 0.300354
vt 0.811420 0.517589
vt 0.809448 0.508510
vt 0.297181 0.410080
vt 0.285600 0.391375
vt 0.274358 0.372948
vt 0.260512 0.349264
vt 0.247598 0.327738
vt 0.236958 0.311787
vt 0.789120 0.526225
vt 0.786636 0.519993
vt 0.263715 0.425711
vt 0.256148 0.405932
vt 0.248573 0.386455
vt 0.239452 0.361043
vt 0.231130 0.337805
vt 0.224249 0.320969
vt 0.931128 0.534829
vt 0.268263 0.241587
vt 0.260579 0.252851
vt 0.252091 0.264171
vt 0.243476 0.275228
vt 0.234760 0.286232
vt 0.225726 0.297193
vt 0.216522 0.307361
vt 0.795986 0.543704
vt 0.817594 0.540319
vt 0.840395 0.537735
vt 0.863209 0.535647
vt 0.886109 0.534500
vt 0.909038 0.534217
vt 0.809945 0.671168
vt 0.809855 0.693000
vt 0.831513 0.690369
vt 0.834696 0.665095
vt 0.852157 0.689001
vt 0.853099 0.663738
vt 0.872352 0.688012
vt 0.870820 0.662721
vt 0.892499 0.686536
vt 0.888523 0.661606
vt 0.913280 0.685572
vt 0.906929 0.660773
vt 0.935489 0.685990
vt 0.932319 0.664009
vt 0.808811 0.650611
vt 0.833950 0.646674
vt 0.853040 0.644511
vt 0.869666 0.643432
vt 0.886297 0.642527
vt 0.905496 0.642412
vt 0.930701 0.643284
vt 0.807431 0.630446
vt 0.832912 0.628987
vt 0.852172 0.627880
vt 0.868684 0.626910
vt 0.885188 0.625919
vt 0.904440 0.624732
vt 0.929671 0.623143
vt 0.806749 0.610295
vt 0.831927 0.611296
vt 0.851116 0.611281
vt 0.867707 0.610421
vt 0.884273 0.609327
vt 0.903295 0.607073
vt 0.928155 0.603040
vt 0.805536 0.589689
vt 0.830639 0.592931
vt 0.848992 0.592260
vt 0.866584 0.591254
vt 0.884152 0.590222
vt 0.902415 0.588719
vt 0.927127 0.582258
vt 0.802793 0.567736
vt 0.824554 0.568064
vt 0.845144 0.567235
vt 0.865098 0.565853
vt 0.885018 0.564790
vt 0.905522 0.563054
vt 0.927371 0.559743
vt 0.203812 0.195303
vt 0.193609 0.185363
vt 0.185853 0.197319
vt 0.196188 0.208295
vt 0.178362 0.208158
vt 0.189542 0.218903
vt 0.170963 0.217974
vt 0.183232 0.227690
vt 0.163095 0.227425
vt 0.176126 0.235852
vt 0.154246 0.237213
vt 0.167321 0.244767
vt 0.144363 0.247528
vt 0.156410 0.255193
vt 0.213507 0.204188
vt 0.205041 0.217133
vt 0.198357 0.227278
vt 0.192733 0.235207
vt 0.186311 0.242509
vt 0.177971 0.251357
vt 0.167307 0.262595
vt 0.222875 0.212074
vt 0.213154 0.224249
vt 0.205638 0.233709
vt 0.199942 0.240906
vt 0.194252 0.248113
vt 0.186776 0.257619
vt 0.177155 0.269905
vt 0.232600 0.219475
vt 0.221889 0.230553
vt 0.213545 0.239323
vt 0.207138 0.246593
vt 0.201547 0.254511
vt 0.194938 0.264670
vt 0.186617 0.277677
vt 0.243323 0.226949
vt 0.232420 0.237169
vt 0.223650 0.245965
vt 0.216596 0.254061
vt 0.210359 0.262808
vt 0.203829 0.273397
vt 0.196394 0.286406
vt 0.255119 0.234664
vt 0.245284 0.244721
vt 0.236519 0.254326
vt 0.228763 0.263654
vt 0.221503 0.273386
vt 0.214194 0.284178
vt 0.206673 0.296130
vt 0.821578 0.830428
vt 0.817379 0.842137
vt 0.828891 0.845488
vt 0.832788 0.834585
vt 0.840769 0.848755
vt 0.843859 0.838523
vt 0.826494 0.819473
vt 0.836912 0.824328
vt 0.847426 0.829119
vt 0.808168 0.839305
vt 0.805230 0.852048
vt 0.814419 0.854150
vt 0.825818 0.856713
vt 0.838330 0.859283
vt 0.851062 0.861495
vt 0.852994 0.851707
vt 0.855537 0.842182
vt 0.858434 0.833696
vt 0.851451 0.821190
vt 0.861593 0.826644
vt 0.841714 0.815371
vt 0.832063 0.809842
vt 0.823651 0.805324
vt 0.817676 0.815528
vt 0.812523 0.827013
vt 0.827374 0.979103
vt 0.832330 0.990619
vt 0.841591 0.984781
vt 0.837017 0.974393
vt 0.850603 0.977843
vt 0.846868 0.969504
vt 0.822991 0.966982
vt 0.833217 0.963352
vt 0.843628 0.959790
vt 0.831319 0.795995
vt 0.839238 0.801000
vt 0.848203 0.807408
vt 0.856710 0.814508
vt 0.865184 0.820501
vt 0.859321 0.971828
vt 0.856656 0.964958
vt 0.854299 0.956647
vt 0.841038 0.949833
vt 0.852544 0.947616
vt 0.830010 0.952322
vt 0.819503 0.954895
vt 0.810880 0.956993
vt 0.814729 0.969862
vt 0.819323 0.982897
vt 0.824322 0.995222
vt 0.813362 0.930517
vt 0.816197 0.942873
vt 0.827123 0.941184
vt 0.824614 0.929444
vt 0.838891 0.939477
vt 0.836960 0.928415
vt 0.811035 0.918220
vt 0.822530 0.917713
vt 0.835325 0.917185
vt 0.807340 0.944308
vt 0.850927 0.938008
vt 0.849538 0.927484
vt 0.848363 0.916705
vt 0.834439 0.906247
vt 0.847730 0.906161
vt 0.821289 0.906297
vt 0.809504 0.906257
vt 0.800102 0.906255
vt 0.801669 0.918701
vt 0.804199 0.931440
vt 0.810713 0.880311
vt 0.809616 0.893708
vt 0.821562 0.894289
vt 0.822674 0.881492
vt 0.834491 0.894839
vt 0.835297 0.882660
vt 0.812341 0.866830
vt 0.824035 0.868682
vt 0.836573 0.870516
vt 0.800083 0.893206
vt 0.847993 0.895254
vt 0.848572 0.883682
vt 0.849651 0.872089
vt 0.802843 0.865324
vt 0.801108 0.879316
vt 0.880034 0.839910
vt 0.869338 0.837385
vt 0.867365 0.845174
vt 0.878648 0.847572
vt 0.865580 0.854344
vt 0.877254 0.856158
vt 0.890630 0.841296
vt 0.890057 0.849096
vt 0.889213 0.857735
vt 0.871413 0.830685
vt 0.863912 0.863557
vt 0.876115 0.865152
vt 0.888457 0.866585
vt 0.900752 0.858803
vt 0.900205 0.867518
vt 0.901168 0.849985
vt 0.901281 0.841775
vt 0.900940 0.834180
vt 0.890962 0.834309
vt 0.881275 0.833159
vt 0.921987 0.877162
vt 0.910887 0.877219
vt 0.910135 0.887545
vt 0.921503 0.887875
vt 0.909688 0.898467
vt 0.921078 0.899475
vt 0.933102 0.876584
vt 0.932472 0.887925
vt 0.932033 0.900432
vt 0.911616 0.868059
vt 0.899346 0.876718
vt 0.898529 0.886934
vt 0.897999 0.897465
vt 0.897838 0.907602
vt 0.909565 0.908979
vt 0.921007 0.910645
vt 0.932136 0.912279
vt 0.942354 0.901307
vt 0.942019 0.913611
vt 0.942759 0.887962
vt 0.942847 0.876198
vt 0.943093 0.866908
vt 0.933816 0.867478
vt 0.922445 0.868110
vt 0.875187 0.874740
vt 0.862600 0.873459
vt 0.861619 0.884563
vt 0.874430 0.885387
vt 0.861090 0.895708
vt 0.873915 0.896132
vt 0.887536 0.875829
vt 0.886672 0.886183
vt 0.886144 0.896675
vt 0.860941 0.906204
vt 0.873739 0.906266
vt 0.886060 0.906713
vt 0.876025 0.952792
vt 0.865023 0.954240
vt 0.866414 0.961628
vt 0.876707 0.960338
vt 0.867980 0.967745
vt 0.877039 0.966270
vt 0.886837 0.952552
vt 0.886327 0.960229
vt 0.885604 0.966592
vt 0.863858 0.945800
vt 0.873623 0.824768
vt 0.882586 0.827026
vt 0.891271 0.827783
vt 0.900202 0.827210
vt 0.895938 0.961218
vt 0.894378 0.968285
vt 0.897092 0.953016
vt 0.897821 0.944785
vt 0.886926 0.944417
vt 0.875472 0.944746
vt 0.873879 0.916248
vt 0.861266 0.916386
vt 0.862106 0.926818
vt 0.874359 0.926370
vt 0.863069 0.936835
vt 0.874946 0.936010
vt 0.886216 0.916493
vt 0.886461 0.926315
vt 0.886728 0.935751
vt 0.897977 0.936271
vt 0.897944 0.927069
vt 0.897854 0.917369
vt 0.918784 0.955884
vt 0.907810 0.954094
vt 0.905783 0.962961
vt 0.915784 0.965309
vt 0.903340 0.971242
vt 0.912352 0.974637
vt 0.929748 0.958048
vt 0.925930 0.968432
vt 0.921978 0.978517
vt 0.909136 0.945716
vt 0.909307 0.825338
vt 0.910811 0.833267
vt 0.918446 0.822795
vt 0.920414 0.831865
vt 0.928501 0.820471
vt 0.930486 0.830154
vt 0.937112 0.818419
vt 0.939150 0.828592
vt 0.935220 0.971529
vt 0.930013 0.982146
vt 0.940368 0.960401
vt 0.943093 0.950419
vt 0.932147 0.948671
vt 0.920717 0.947073
vt 0.921118 0.920719
vt 0.909634 0.918878
vt 0.909643 0.928431
vt 0.921397 0.929995
vt 0.909620 0.937418
vt 0.921401 0.938726
vt 0.932593 0.922544
vt 0.932914 0.931658
vt 0.933001 0.940105
vt 0.942971 0.941489
vt 0.942166 0.932879
vt 0.941724 0.923889
vt 0.921501 0.841151
vt 0.911609 0.841618
vt 0.911892 0.850483
vt 0.922118 0.850679
vt 0.911912 0.859448
vt 0.922449 0.859738
vt 0.931690 0.840367
vt 0.932693 0.850608
vt 0.933576 0.859582
vt 0.942901 0.859248
vt 0.942427 0.850286
vt 0.941275 0.839502
vn 0.1108 -0.4973 -0.8605
vn 0.1749 -0.4100 -0.8952
vn -0.0835 -0.0073 -0.9965
vn -0.0642 -0.0804 -0.9947
vn -0.0667 -0.0730 -0.9951
vn -0.0862 -0.0023 -0.9963
vn -0.4454 0.6358 -0.6304
vn -0.3016 0.6844 -0.6638
vn -0.4995 0.8571 0.1262
vn -0.3168 0.9428 0.1041
vn -0.3757 0.7433 0.5535
vn -0.2293 0.8129 0.5353
vn -0.3457 0.7131 0.6098
vn -0.2219 0.7808 0.5840
vn -0.3810 0.7471 0.5447
vn -0.2651 0.8154 0.5147
vn 0.0011 -0.5603 -0.8283
vn -0.0912 -0.1345 -0.9867
vn -0.0925 -0.1256 -0.9878
vn -0.1789 0.7002 -0.6912
vn -0.1403 0.9866 0.0830
vn -0.0855 0.8540 0.5132
vn -0.0946 0.8262 0.5554
vn -0.1309 0.8645 0.4852
vn -0.0870 -0.5826 -0.8081
vn -0.0954 -0.1476 -0.9844
vn -0.0953 -0.1383 -0.9858
vn -0.0478 0.7042 -0.7083
vn 0.0203 0.9977 0.0645
vn 0.0413 0.8689 0.4933
vn 0.0319 0.8445 0.5346
vn 0.0218 0.8830 0.4689
vn -0.1016 -0.5762 -0.8110
vn -0.0236 -0.1398 -0.9899
vn -0.0223 -0.1308 -0.9912
vn 0.1209 0.6893 -0.7143
vn 0.1694 0.9840 0.0545
vn 0.1495 0.8608 0.4866
vn 0.1521 0.8322 0.5333
vn 0.1745 0.8644 0.4716
vn -0.1068 -0.5375 -0.8365
vn 0.0637 -0.1134 -0.9915
vn 0.0661 -0.1056 -0.9922
vn 0.2986 0.6634 -0.6861
vn 0.3253 0.9431 0.0694
vn 0.2570 0.8270 0.5001
vn 0.2620 0.7910 0.5529
vn 0.3064 0.8153 0.4913
vn -0.1394 -0.4630 -0.8753
vn 0.1163 -0.0626 -0.9912
vn 0.1192 -0.0573 -0.9912
vn 0.4573 0.6057 -0.6512
vn 0.4997 0.8610 0.0947
vn 0.3833 0.7593 0.5258
vn 0.3703 0.7221 0.5843
vn 0.4181 0.7454 0.5192
vn 0.2404 -0.4526 -0.8587
vn 0.2936 -0.4362 -0.8506
vn 0.1940 -0.3449 -0.9184
vn -0.1664 0.0033 -0.9860
vn -0.1683 0.0061 -0.9857
vn -0.6122 0.5226 -0.5934
vn -0.6708 0.7256 0.1535
vn -0.5051 0.6483 0.5697
vn -0.4574 0.6285 0.6291
vn -0.4881 0.6610 0.5699
vn -0.4953 0.6695 0.5536
vn -0.4250 0.7330 0.5312
vn -0.3159 0.8038 0.5041
vn -0.1657 0.8600 0.4826
vn 0.0203 0.8817 0.4713
vn 0.2064 0.8574 0.4715
vn 0.3567 0.7990 0.4841
vn 0.4660 0.7267 0.5048
vn 0.5241 0.6537 0.5459
vn 0.5366 0.6619 0.5234
vn 0.4827 0.6250 0.6135
vn 0.5193 0.6505 0.5543
vn 0.6775 0.7245 0.1273
vn 0.6084 0.4997 -0.6165
vn 0.1661 -0.0323 -0.9856
vn -0.1862 -0.3795 -0.9062
vn 0.1637 -0.0353 -0.9859
vn -0.2800 -0.4632 -0.8409
vn -0.2171 -0.4933 -0.8423
vn -0.1748 -0.5418 -0.8221
vn -0.1295 -0.5855 -0.8003
vn -0.0704 -0.5913 -0.8034
vn 0.0438 -0.5609 -0.8267
vn 0.1695 -0.5001 -0.8492
vn -0.3353 -0.3476 -0.8756
vn -0.2731 -0.3307 -0.9034
vn 0.1394 -0.0835 -0.9867
vn 0.1063 -0.2042 -0.9731
vn 0.1081 -0.2028 -0.9732
vn 0.1419 -0.0816 -0.9865
vn 0.7208 0.3493 -0.5987
vn 0.7870 0.1519 -0.5979
vn 0.8194 0.5504 0.1600
vn 0.9049 0.3862 0.1790
vn 0.6319 0.5163 0.5780
vn 0.6935 0.4093 0.5928
vn 0.5834 0.5133 0.6294
vn 0.6493 0.4135 0.6384
vn 0.6193 0.5486 0.5618
vn 0.6920 0.4377 0.5741
vn -0.3668 -0.3350 -0.8679
vn 0.0855 -0.2757 -0.9574
vn 0.0872 -0.2753 -0.9574
vn 0.8319 -0.0147 -0.5547
vn 0.9443 0.2349 0.2305
vn 0.7204 0.3028 0.6239
vn 0.6870 0.3041 0.6599
vn 0.7426 0.3060 0.5957
vn -0.3806 -0.2154 -0.8993
vn 0.0689 -0.2323 -0.9702
vn 0.0704 -0.2323 -0.9701
vn 0.8387 -0.1268 -0.5296
vn 0.9588 0.0661 0.2761
vn 0.7321 0.1587 0.6624
vn 0.7013 0.1661 0.6932
vn 0.7617 0.1510 0.6301
vn -0.3613 -0.0865 -0.9284
vn 0.0893 -0.1832 -0.9790
vn 0.0908 -0.1835 -0.9788
vn 0.8329 -0.2363 -0.5005
vn 0.9442 -0.1052 0.3122
vn 0.7208 0.0124 0.6930
vn 0.6871 0.0279 0.7261
vn 0.7426 -0.0029 0.6697
vn -0.3083 -0.0147 -0.9512
vn 0.1385 -0.1974 -0.9705
vn 0.1403 -0.1983 -0.9701
vn 0.8072 -0.3759 -0.4551
vn 0.8989 -0.2727 0.3431
vn 0.6885 -0.1192 0.7154
vn 0.6491 -0.0922 0.7551
vn 0.6925 -0.1328 0.7091
vn -0.2409 -0.0281 -0.9702
vn 0.1835 -0.2938 -0.9381
vn 0.1857 -0.2956 -0.9371
vn 0.7386 -0.5493 -0.3907
vn 0.8152 -0.4378 0.3792
vn 0.6320 -0.2379 0.7375
vn 0.5885 -0.1989 0.7836
vn 0.6219 -0.2417 0.7448
vn -0.3093 -0.4024 -0.8616
vn 0.6039 0.5919 0.5338
vn 0.6794 0.4833 0.5521
vn 0.7399 0.3344 0.5837
vn 0.7640 0.1503 0.6275
vn 0.7398 -0.0336 0.6720
vn 0.6793 -0.1808 0.7112
vn 0.6038 -0.2860 0.7440
vn 0.5301 -0.3439 0.7751
vn 0.5369 -0.3533 0.7661
vn 0.4994 -0.3017 0.8121
vn 0.5372 -0.3535 0.7658
vn 0.6812 -0.5974 0.4232
vn 0.6071 -0.7243 -0.3268
vn 0.1642 -0.4164 -0.8942
vn -0.2000 -0.0576 -0.9781
vn 0.1623 -0.4137 -0.8958
vn -0.3088 0.0650 -0.9489
vn -0.3090 0.0497 -0.9498
vn -0.3293 0.0338 -0.9436
vn -0.3673 -0.0682 -0.9276
vn -0.3833 -0.2151 -0.8982
vn -0.3709 -0.3459 -0.8619
vn -0.3426 -0.3961 -0.8519
vn -0.2335 0.0584 -0.9706
vn -0.2258 -0.0133 -0.9741
vn 0.0360 -0.4358 -0.8993
vn -0.0650 -0.3918 -0.9177
vn -0.0625 -0.3988 -0.9149
vn 0.0384 -0.4404 -0.8970
vn 0.4215 -0.8534 -0.3067
vn 0.2390 -0.9220 -0.3045
vn 0.5150 -0.7254 0.4567
vn 0.3478 -0.8020 0.4857
vn 0.4183 -0.4444 0.7922
vn 0.2990 -0.4960 0.8152
vn 0.3933 -0.3881 0.8335
vn 0.2839 -0.4464 0.8486
vn 0.4239 -0.4333 0.7953
vn 0.3105 -0.5026 0.8068
vn -0.1590 0.1109 -0.9810
vn -0.0803 -0.3442 -0.9354
vn -0.0789 -0.3526 -0.9325
vn 0.0949 -0.9476 -0.3051
vn 0.1808 -0.8408 0.5103
vn 0.1684 -0.5234 0.8353
vn 0.1621 -0.4819 0.8611
vn 0.1765 -0.5517 0.8151
vn -0.0286 0.1282 -0.9913
vn -0.0304 -0.3253 -0.9451
vn -0.0304 -0.3340 -0.9421
vn -0.0158 -0.9528 -0.3032
vn 0.0095 -0.8520 0.5235
vn 0.0214 -0.5322 0.8464
vn 0.0224 -0.4946 0.8688
vn 0.0204 -0.5695 0.8217
vn 0.1023 0.1085 -0.9888
vn 0.0197 -0.3450 -0.9384
vn 0.0182 -0.3533 -0.9353
vn -0.1263 -0.9460 -0.2985
vn -0.1622 -0.8383 0.5205
vn -0.1256 -0.5216 0.8439
vn -0.1173 -0.4799 0.8694
vn -0.1357 -0.5495 0.8244
vn 0.1847 0.0491 -0.9816
vn 0.0086 -0.3966 -0.9179
vn 0.0060 -0.4034 -0.9150
vn -0.2688 -0.9193 -0.2876
vn -0.3302 -0.7969 0.5058
vn -0.2575 -0.4921 0.8316
vn -0.2392 -0.4427 0.8642
vn -0.2690 -0.4985 0.8241
vn 0.1895 -0.0370 -0.9812
vn -0.0819 -0.4517 -0.8884
vn -0.0845 -0.4560 -0.8860
vn -0.4474 -0.8514 -0.2737
vn -0.5022 -0.7149 0.4865
vn -0.3835 -0.4366 0.8138
vn -0.3521 -0.3825 0.8542
vn -0.3827 -0.4276 0.8190
vn -0.2945 0.0635 -0.9535
vn 0.4662 -0.4192 0.7790
vn 0.3567 -0.4928 0.7936
vn 0.2064 -0.5507 0.8087
vn 0.0204 -0.5725 0.8197
vn -0.1657 -0.5481 0.8198
vn -0.3158 -0.4882 0.8136
vn -0.4249 -0.4128 0.8056
vn -0.4910 -0.3369 0.8034
vn -0.4953 -0.3459 0.7969
vn -0.4655 -0.2942 0.8347
vn -0.5113 -0.3412 0.7887
vn -0.6720 -0.5818 0.4582
vn -0.6283 -0.7255 -0.2809
vn -0.2026 -0.4486 -0.8705
vn 0.1726 -0.0979 -0.9801
vn -0.2008 -0.4461 -0.8722
vn 0.2914 0.0303 -0.9561
vn 0.2693 0.0414 -0.9622
vn 0.2349 0.0743 -0.9692
vn 0.1207 0.1154 -0.9860
vn -0.0285 0.1312 -0.9909
vn -0.1763 0.1182 -0.9772
vn -0.2778 0.0840 -0.9569
vn 0.2938 -0.0746 -0.9529
vn 0.2221 -0.0888 -0.9710
vn -0.2231 -0.3532 -0.9086
vn -0.1892 -0.2611 -0.9466
vn -0.1913 -0.2622 -0.9459
vn -0.2254 -0.3551 -0.9072
vn -0.7599 -0.5612 -0.3281
vn -0.8336 -0.3919 -0.3893
vn -0.8059 -0.4184 0.4188
vn -0.8894 -0.2535 0.3804
vn -0.6138 -0.2218 0.7576
vn -0.6770 -0.1026 0.7288
vn -0.5618 -0.1905 0.8050
vn -0.6285 -0.0835 0.7733
vn -0.5850 -0.2341 0.7765
vn -0.6570 -0.1242 0.7436
vn 0.3440 -0.1073 -0.9328
vn -0.1557 -0.2056 -0.9662
vn -0.1573 -0.2060 -0.9658
vn -0.8676 -0.2326 -0.4395
vn -0.9335 -0.0914 0.3468
vn -0.7107 0.0194 0.7032
vn -0.6684 0.0334 0.7430
vn -0.7079 0.0061 0.7063
vn 0.3603 -0.1830 -0.9147
vn -0.1379 -0.1916 -0.9717
vn -0.1393 -0.1916 -0.9715
vn -0.8747 -0.0921 -0.4758
vn -0.9466 0.0712 0.3146
vn -0.7195 0.1516 0.6777
vn -0.6812 0.1654 0.7132
vn -0.7266 0.1592 0.6684
vn 0.3396 -0.2816 -0.8974
vn -0.1487 -0.2027 -0.9679
vn -0.1503 -0.2024 -0.9677
vn -0.8646 0.0355 -0.5011
vn -0.9315 0.2348 0.2779
vn -0.7037 0.2884 0.6493
vn -0.6622 0.3001 0.6866
vn -0.7061 0.3134 0.6349
vn 0.2893 -0.3468 -0.8922
vn -0.1805 -0.1848 -0.9661
vn -0.1823 -0.1839 -0.9659
vn -0.8304 0.1774 -0.5282
vn -0.8861 0.3997 0.2347
vn -0.6640 0.4197 0.6189
vn -0.6169 0.4229 0.6638
vn -0.6535 0.4472 0.6107
vn 0.2338 -0.3462 -0.9086
vn -0.2010 -0.0976 -0.9747
vn -0.2030 -0.0958 -0.9745
vn -0.7506 0.3501 -0.5604
vn -0.8030 0.5649 0.1900
vn -0.6005 0.5389 0.5907
vn -0.5487 0.5323 0.6447
vn -0.5805 0.5602 0.5909
vn 0.3065 0.0087 -0.9518
vn -0.5626 -0.2777 0.7787
vn -0.6384 -0.1714 0.7504
vn -0.6990 -0.0233 0.7147
vn -0.7231 0.1609 0.6717
vn -0.6989 0.3447 0.6267
vn -0.6383 0.4928 0.5914
vn -0.5625 0.6004 0.5684
vn 0.2985 -0.4080 -0.8628
vn 0.3238 -0.3975 -0.8586
vn 0.3701 -0.3143 -0.8742
vn 0.3971 -0.1888 -0.8981
vn 0.3859 -0.0762 -0.9194
vn 0.3431 -0.0021 -0.9393
vn -0.2423 -0.4824 -0.8418
vn -0.2437 -0.4314 -0.8687
vn -0.2868 -0.4439 -0.8489
vn -0.3090 -0.4939 -0.8128
vn -0.3363 -0.3757 -0.8636
vn -0.3585 -0.4096 -0.8389
vn -0.3632 -0.2170 -0.9061
vn -0.3814 -0.2154 -0.8990
vn -0.3378 -0.0442 -0.9402
vn -0.3604 -0.0107 -0.9327
vn -0.2972 0.0559 -0.9532
vn -0.3259 0.0846 -0.9416
vn -0.2867 0.0392 -0.9572
vn -0.3014 0.0517 -0.9521
vn -0.1755 -0.5431 -0.8211
vn -0.2251 -0.5444 -0.8080
vn -0.2583 -0.4441 -0.8579
vn -0.2725 -0.2241 -0.9357
vn -0.2586 0.0075 -0.9659
vn -0.2323 0.1141 -0.9659
vn -0.2025 0.0879 -0.9753
vn -0.0485 -0.5666 -0.8226
vn -0.0325 -0.5698 -0.8212
vn -0.0297 -0.4645 -0.8851
vn -0.0306 -0.2328 -0.9720
vn -0.0296 0.0131 -0.9995
vn -0.0286 0.1291 -0.9912
vn -0.0288 0.1095 -0.9936
vn 0.1063 -0.5252 -0.8443
vn 0.1671 -0.5413 -0.8241
vn 0.2007 -0.4476 -0.8714
vn 0.2131 -0.2276 -0.9501
vn 0.2007 0.0042 -0.9796
vn 0.1767 0.1116 -0.9779
vn 0.1471 0.0855 -0.9854
vn 0.2196 -0.4569 -0.8620
vn 0.2693 -0.4910 -0.8285
vn 0.3137 -0.4125 -0.8552
vn 0.3379 -0.2169 -0.9159
vn 0.3202 -0.0140 -0.9473
vn 0.2868 0.0798 -0.9547
vn 0.2617 0.0445 -0.9641
vn 0.2430 -0.4177 -0.8755
vn 0.2702 -0.4436 -0.8545
vn 0.3236 -0.3663 -0.8724
vn 0.3607 -0.2052 -0.9099
vn 0.3407 -0.0460 -0.9390
vn 0.2977 0.0415 -0.9538
vn 0.2750 0.0192 -0.9613
vn 0.4276 -0.4402 0.7895
vn 0.5416 -0.3602 0.7596
vn 0.6271 -0.2472 0.7386
vn 0.5185 -0.3277 0.7898
vn 0.7017 -0.0732 0.7087
vn 0.6124 -0.1255 0.7806
vn 0.7340 0.1582 0.6605
vn 0.6578 0.1754 0.7325
vn 0.7018 0.3863 0.5986
vn 0.6124 0.4655 0.6390
vn 0.6272 0.5550 0.5464
vn 0.5184 0.6499 0.5558
vn 0.5416 0.6652 0.5140
vn 0.4276 0.7502 0.5044
vn 0.2537 -0.5075 0.8235
vn 0.3225 -0.4067 0.8547
vn 0.4055 -0.1801 0.8962
vn 0.4485 0.2082 0.8692
vn 0.4055 0.5666 0.7173
vn 0.3225 0.7498 0.5777
vn 0.2537 0.8255 0.5042
vn 0.0213 -0.5347 0.8447
vn 0.0236 -0.4420 0.8967
vn 0.0277 -0.2023 0.9789
vn 0.0306 0.2328 0.9720
vn 0.0277 0.6238 0.7811
vn 0.0235 0.8003 0.5991
vn 0.0213 0.8594 0.5108
vn -0.2114 -0.5042 0.8373
vn -0.2768 -0.4025 0.8726
vn -0.3540 -0.1747 0.9188
vn -0.3930 0.2142 0.8942
vn -0.3540 0.5720 0.7399
vn -0.2769 0.7541 0.5955
vn -0.2115 0.8288 0.5180
vn -0.3861 -0.4345 0.8137
vn -0.4752 -0.3205 0.8194
vn -0.5666 -0.1171 0.8156
vn -0.6105 0.1845 0.7702
vn -0.5665 0.4739 0.6741
vn -0.4752 0.6570 0.5853
vn -0.3861 0.7559 0.5287
vn -0.5005 -0.3527 0.7906
vn -0.5856 -0.2386 0.7747
vn -0.6593 -0.0635 0.7492
vn -0.6910 0.1684 0.7029
vn -0.6593 0.3961 0.6391
vn -0.5855 0.5637 0.5826
vn -0.5005 0.6726 0.5450
vn -0.8999 -0.4163 0.1298
vn -0.7289 -0.6636 0.1685
vn -0.6826 -0.6635 0.3064
vn -0.8714 -0.3902 0.2973
vn -0.6540 -0.6209 0.4322
vn -0.8320 -0.3334 0.4435
vn -0.9875 -0.0946 0.1263
vn -0.9521 -0.0315 0.3043
vn -0.8930 0.0340 0.4487
vn -0.7480 -0.6413 0.1712
vn -0.4132 -0.8861 0.2098
vn -0.3901 -0.8950 0.2163
vn -0.3608 -0.8711 0.3333
vn -0.3511 -0.8339 0.4258
vn -0.3922 -0.8466 0.3598
vn -0.6978 -0.6135 0.3696
vn -0.8757 -0.3088 0.3712
vn -0.9290 0.0749 0.3623
vn -0.8271 0.3541 0.4365
vn -0.8590 0.3818 0.3411
vn -0.8920 0.3243 0.3148
vn -0.9505 0.2768 0.1416
vn -0.9668 0.2309 0.1099
vn -0.9859 -0.1239 0.1122
vn -0.9003 -0.4153 0.1302
vn -0.3842 0.9158 0.1169
vn -0.7261 0.6726 0.1426
vn -0.6895 0.6559 0.3072
vn -0.3913 0.8823 0.2615
vn -0.6704 0.6210 0.4060
vn -0.4184 0.8378 0.3508
vn -0.0758 0.9934 0.0864
vn -0.0967 0.9711 0.2181
vn -0.1206 0.9445 0.3054
vn -0.7592 0.6405 0.1159
vn -0.7337 0.6639 0.1444
vn -0.7003 0.6445 0.3071
vn -0.6811 0.6080 0.4079
vn -0.7270 0.6122 0.3109
vn -0.7217 0.6183 0.3111
vn -0.4779 0.8398 0.2576
vn -0.1570 0.9644 0.2127
vn 0.2755 0.9134 0.2997
vn 0.2597 0.9465 0.1914
vn 0.2940 0.9306 0.2181
vn 0.3061 0.9486 0.0809
vn 0.3155 0.9454 0.0816
vn -0.0687 0.9936 0.0891
vn -0.3941 0.9132 0.1034
vn -0.7556 0.6458 0.1096
vn 0.8732 0.4717 0.1223
vn 0.6568 0.7486 0.0908
vn 0.6499 0.7255 0.2265
vn 0.8501 0.4585 0.2590
vn 0.6373 0.7093 0.3011
vn 0.8340 0.4491 0.3206
vn 0.9835 0.0874 0.1587
vn 0.9521 0.0952 0.2906
vn 0.9314 0.1155 0.3452
vn 0.6633 0.7438 0.0820
vn 0.6435 0.7427 0.1851
vn 0.8632 0.4634 0.2003
vn 0.9639 0.1309 0.2319
vn 0.8895 -0.2728 0.3666
vn 0.9259 -0.2673 0.2668
vn 0.9004 -0.3059 0.3094
vn 0.9237 -0.3323 0.1908
vn 0.9224 -0.3460 0.1719
vn 0.9880 0.0716 0.1369
vn 0.8833 0.4577 0.1011
vn 0.4320 -0.8763 0.2130
vn 0.7162 -0.6662 0.2079
vn 0.7093 -0.6286 0.3190
vn 0.4338 -0.8389 0.3287
vn 0.7034 -0.6035 0.3755
vn 0.4342 -0.8121 0.3897
vn 0.0672 -0.9719 0.2256
vn 0.0664 -0.9378 0.3409
vn 0.0636 -0.9089 0.4121
vn 0.7094 -0.6786 0.1904
vn 0.7270 -0.6232 0.2883
vn 0.4463 -0.8410 0.3058
vn 0.0478 -0.9407 0.3359
vn 0.0688 -0.9750 0.2114
vn 0.4267 -0.8837 0.1924
vn -0.9969 0.0751 0.0242
vn -0.9770 0.0877 0.1946
vn -0.9197 -0.3226 0.2236
vn -0.9369 -0.3470 0.0437
vn -0.7422 -0.6263 0.2385
vn -0.7617 -0.6456 0.0552
vn -0.9927 0.0696 -0.0982
vn -0.9341 -0.3465 -0.0864
vn -0.7484 -0.6592 -0.0725
vn -0.9095 0.3848 0.1571
vn -0.4457 -0.8613 0.2438
vn -0.4564 -0.8866 0.0751
vn -0.4103 -0.9106 -0.0492
vn -0.7174 -0.6796 -0.1533
vn -0.3477 -0.9295 -0.1232
vn -0.9148 -0.3618 -0.1796
vn -0.9781 0.0385 -0.2047
vn -0.9223 0.3164 -0.2217
vn -0.9395 0.3270 -0.1023
vn -0.9373 0.3486 -0.0025
vn 0.1609 -0.9850 -0.0622
vn 0.1747 -0.9797 -0.0989
vn 0.5050 -0.8591 -0.0827
vn 0.5131 -0.8537 -0.0889
vn 0.7649 -0.6379 -0.0894
vn 0.7788 -0.6169 -0.1133
vn 0.0564 -0.9965 -0.0618
vn 0.4939 -0.8611 -0.1205
vn 0.7991 -0.5825 -0.1491
vn -0.2844 -0.9484 -0.1400
vn 0.1308 -0.9879 -0.0834
vn 0.4815 -0.8741 -0.0639
vn 0.7477 -0.6605 -0.0687
vn 0.9437 -0.3157 -0.0987
vn 0.9501 -0.2857 -0.1253
vn 0.9613 -0.2387 -0.1376
vn 0.9750 -0.1620 -0.1522
vn 0.8180 -0.5515 -0.1634
vn 0.9786 -0.1074 -0.1755
vn 0.4766 -0.8672 -0.1442
vn -0.0258 -0.9955 -0.0915
vn -0.3947 -0.9184 -0.0274
vn -0.3474 -0.9377 0.0068
vn -0.2760 -0.9604 -0.0382
vn 0.0308 -0.9957 0.0873
vn 0.0251 -0.9739 0.2254
vn 0.4496 -0.8716 0.1955
vn 0.4477 -0.8904 0.0823
vn 0.7460 -0.6431 0.1728
vn 0.7473 -0.6622 0.0552
vn 0.0773 -0.9968 -0.0195
vn 0.4589 -0.8885 -0.0036
vn 0.7404 -0.6718 -0.0197
vn 0.9508 -0.2733 0.1461
vn 0.9562 -0.2926 0.0104
vn 0.9455 -0.3184 -0.0678
vn -0.1747 0.9766 -0.1257
vn -0.1785 0.9823 0.0561
vn -0.5290 0.8450 0.0781
vn -0.5639 0.8202 -0.0961
vn -0.7893 0.6020 0.1213
vn -0.8302 0.5558 -0.0419
vn -0.1520 0.9713 -0.1832
vn -0.5862 0.7941 -0.1604
vn -0.8481 0.5154 -0.1226
vn 0.2514 0.9666 0.0496
vn -0.7888 0.6026 0.1207
vn -0.8341 0.5497 -0.0463
vn -0.8495 0.5130 -0.1232
vn -0.8264 0.5178 -0.2215
vn -0.5468 0.8069 -0.2234
vn -0.8282 0.5121 -0.2277
vn -0.0877 0.9750 -0.2040
vn 0.2987 0.9352 -0.1904
vn 0.2898 0.9399 -0.1804
vn 0.2686 0.9549 -0.1262
vn 0.9928 0.1145 -0.0349
vn 0.9856 0.1264 0.1125
vn 0.8817 0.4648 0.0808
vn 0.8875 0.4555 -0.0698
vn 0.6443 0.7624 0.0597
vn 0.6543 0.7497 -0.0997
vn 0.9879 0.0906 -0.1261
vn 0.8800 0.4451 -0.1657
vn 0.6461 0.7424 -0.1774
vn 0.6099 0.7688 -0.1923
vn 0.8705 0.4577 -0.1806
vn 0.9864 0.0804 -0.1433
vn -0.0590 0.9510 -0.3036
vn -0.0421 0.9623 -0.2688
vn -0.4780 0.8376 -0.2643
vn -0.4861 0.8426 -0.2317
vn -0.7865 0.5599 -0.2608
vn -0.7770 0.6043 -0.1760
vn -0.1133 0.9352 -0.3354
vn -0.5711 0.7937 -0.2094
vn -0.7976 0.5923 -0.1140
vn 0.3159 0.9116 -0.2632
vn -0.7928 0.5511 -0.2602
vn -0.9195 0.2989 -0.2552
vn -0.7832 0.5959 -0.1776
vn -0.9334 0.3213 -0.1596
vn -0.7997 0.5894 -0.1147
vn -0.9269 0.3644 -0.0901
vn -0.8108 0.5733 -0.1183
vn -0.9179 0.3856 -0.0939
vn -0.6106 0.7584 -0.2281
vn -0.8113 0.5723 -0.1191
vn -0.1136 0.9239 -0.3655
vn 0.4391 0.8114 -0.3857
vn 0.4155 0.8378 -0.3541
vn 0.3572 0.8807 -0.3111
vn 0.9783 0.1360 -0.1564
vn 0.9817 0.0936 -0.1658
vn 0.8547 0.4751 -0.2094
vn 0.8549 0.4815 -0.1929
vn 0.5915 0.7696 -0.2406
vn 0.6345 0.7296 -0.2551
vn 0.9677 0.1976 -0.1562
vn 0.8709 0.4521 -0.1925
vn 0.7113 0.6477 -0.2730
vn 0.7369 0.6031 -0.3054
vn 0.8724 0.4320 -0.2287
vn 0.9549 0.2328 -0.1844
vn -0.9880 -0.0435 -0.1479
vn -0.9720 -0.0083 -0.2347
vn -0.8968 -0.3912 -0.2069
vn -0.8884 -0.4478 -0.1009
vn -0.6746 -0.7167 -0.1767
vn -0.6408 -0.7660 -0.0514
vn -0.9946 -0.0613 -0.0839
vn -0.8479 -0.5290 -0.0347
vn -0.6024 -0.7980 0.0138
vn -0.5837 -0.8117 -0.0211
vn -0.8133 -0.5786 -0.0612
vn -0.9924 -0.0771 -0.0960
usemtl Hat_1001
s 1
f 1/1/1 2/2/2 3/3/3
f 3/3/3 4/4/4 1/1/1
f 5/5/5 6/6/6 7/7/7
f 7/7/7 8/8/8 5/5/5
f 8/8/8 7/7/7 9/9/9
f 9/9/9 10/10/10 8/8/8
f 10/10/10 9/9/9 11/11/11
f 11/11/11 12/12/12 10/10/10
f 12/12/12 11/11/11 13/13/13
f 13/13/13 14/14/14 12/12/12
f 14/14/14 13/13/13 15/15/15
f 15/15/15 16/16/16 14/14/14
f 17/17/17 1/1/1 4/4/4
f 4/4/4 18/18/18 17/17/17
f 19/19/19 5/5/5 8/8/8
f 8/8/8 20/20/20 19/19/19
f 20/20/20 8/8/8 10/10/10
f 10/10/10 21/21/21 20/20/20
f 21/21/21 10/10/10 12/12/12
f 12/12/12 22/22/22 21/21/21
f 22/22/22 12/12/12 14/14/14
f 14/14/14 23/23/23 22/22/22
f 23/23/23 14/14/14 16/16/16
f 16/16/16 24/24/24 23/23/23
f 25/25/25 17/17/17 18/18/18
f 18/18/18 26/26/26 25/25/25
f 27/27/27 19/19/19 20/20/20
f 20/20/20 28/28/28 27/27/27
f 28/28/28 20/20/20 21/21/21
f 21/21/21 29/29/29 28/28/28
f 29/29/29 21/21/21 22/22/22
f 22/22/22 30/30/30 29/29/29
f 30/30/30 22/22/22 23/23/23
f 23/23/23 31/31/31 30/30/30
f 31/31/31 23/23/23 24/24/24
f 24/24/24 32/32/32 31/31/31
f 33/33/33 25/25/25 26/26/26
f 26/26/26 34/34/34 33/33/33
f 35/35/35 27/27/27 28/28/28
f 28/28/28 36/36/36 35/35/35
f 36/36/36 28/28/28 29/29/29
f 29/29/29 37/37/37 36/36/36
f 37/37/37 29/29/29 30/30/30
f 30/30/30 38/38/38 37/37/37
f 38/38/38 30/30/30 31/31/31
f 31/31/31 39/39/39 38/38/38
f 39/39/39 31/31/31 32/32/32
f 32/32/32 40/40/40 39/39/39
f 41/41/41 33/33/33 34/34/34
f 34/34/34 42/42/42 41/41/41
f 43/43/43 35/35/35 36/36/36
f 36/36/36 44/44/44 43/43/43
f 44/44/44 36/36/36 37/37/37
f 37/37/37 45/45/45 44/44/44
f 45/45/45 37/37/37 38/38/38
f 38/38/38 46/46/46 45/45/45
f 46/46/46 38/38/38 39/39/39
f 39/39/39 47/47/47 46/46/46
f 47/47/47 39/39/39 40/40/40
f 40/40/40 48/48/48 47/47/47
f 49/49/49 41/41/41 42/42/42
f 42/42/42 50/50/50 49/49/49
f 51/51/51 43/43/43 44/44/44
f 44/44/44 52/52/52 51/51/51
f 52/52/52 44/44/44 45/45/45
f 45/45/45 53/53/53 52/52/52
f 53/53/53 45/45/45 46/46/46
f 46/46/46 54/54/54 53/53/53
f 54/54/54 46/46/46 47/47/47
f 47/47/47 55/55/55 54/54/54
f 55/55/55 47/47/47 48/48/48
f 48/48/48 56/56/56 55/55/55
f 57/57/57 58/58/58 59/59/59
f 59/59/59 2/2/2 57/57/57
f 2/2/2 59/59/59 60/60/60
f 60/60/60 3/3/3 2/2/2
f 6/6/6 61/61/61 62/62/62
f 62/62/62 7/7/7 6/6/6
f 7/7/7 62/62/62 63/63/63
f 63/63/63 9/9/9 7/7/7
f 9/9/9 63/63/63 64/64/64
f 64/64/64 11/11/11 9/9/9
f 11/11/11 64/64/64 65/65/65
f 65/65/65 13/13/13 11/11/11
f 13/13/13 65/65/65 66/66/66
f 66/66/66 15/15/15 13/13/13
f 15/15/15 66/66/66 67/67/67
f 67/67/67 68/68/68 15/15/15
f 16/16/16 15/15/15 68/68/68
f 68/68/68 69/69/69 16/16/16
f 24/24/24 16/16/16 69/69/69
f 69/69/69 70/70/70 24/24/24
f 32/32/32 24/24/24 70/70/70
f 70/70/70 71/71/71 32/32/32
f 40/40/40 32/32/32 71/71/71
f 71/71/71 72/72/72 40/40/40
f 48/48/48 40/40/40 72/72/72
f 72/72/72 73/73/73 48/48/48
f 56/56/56 48/48/48 73/73/73
f 73/73/73 74/74/74 56/56/56
f 75/75/75 56/56/56 74/74/74
f 74/74/74 76/76/76 75/75/75
f 77/77/77 55/55/55 56/56/56
f 56/56/56 75/75/75 77/77/77
f 78/78/78 54/54/54 55/55/55
f 55/55/55 77/77/77 78/78/78
f 79/79/79 53/53/53 54/54/54
f 54/54/54 78/78/78 79/79/79
f 80/80/80 52/52/52 53/53/53
f 53/53/53 79/79/79 80/80/80
f 81/81/81 51/51/51 52/52/52
f 52/52/52 80/80/80 81/81/81
f 82/82/82 49/49/49 50/50/50
f 50/50/50 83/83/83 82/82/82
f 84/84/84 85/85/85 49/49/49
f 49/49/49 82/82/82 84/84/84
f 85/85/85 86/86/86 41/41/41
f 41/41/41 49/49/49 85/85/85
f 86/86/86 87/87/87 33/33/33
f 33/33/33 41/41/41 86/86/86
f 87/87/87 88/88/88 25/25/25
f 25/25/25 33/33/33 87/87/87
f 88/88/88 89/89/89 17/17/17
f 17/17/17 25/25/25 88/88/88
f 89/89/89 90/90/90 1/1/1
f 1/1/1 17/17/17 89/89/89
f 90/90/90 57/57/57 2/2/2
f 2/2/2 1/1/1 90/90/90
f 91/91/91 92/92/92 93/93/93
f 93/93/93 94/94/94 91/91/91
f 95/95/95 96/96/96 97/97/97
f 97/97/97 98/98/98 95/95/95
f 98/98/98 97/97/97 99/99/99
f 99/99/99 100/100/100 98/98/98
f 100/100/100 99/99/99 101/101/101
f 101/101/101 102/102/102 100/100/100
f 102/102/102 101/101/101 103/103/103
f 103/103/103 104/104/104 102/102/102
f 104/104/104 103/103/103 105/105/105
f 105/105/105 106/106/106 104/104/104
f 107/107/107 91/91/91 94/94/94
f 94/94/94 108/108/108 107/107/107
f 109/109/109 95/95/95 98/98/98
f 98/98/98 110/110/110 109/109/109
f 110/110/110 98/98/98 100/100/100
f 100/100/100 111/111/111 110/110/110
f 111/111/111 100/100/100 102/102/102
f 102/102/102 112/112/112 111/111/111
f 112/112/112 102/102/102 104/104/104
f 104/104/104 113/113/113 112/112/112
f 113/113/113 104/104/104 106/106/106
f 106/106/106 114/114/114 113/113/113
f 115/115/115 107/107/107 108/108/108
f 108/108/108 116/116/116 115/115/115
f 117/117/117 109/109/109 110/110/110
f 110/110/110 118/118/118 117/117/117
f 118/118/118 110/110/110 111/111/111
f 111/111/111 119/119/119 118/118/118
f 119/119/119 111/111/111 112/112/112
f 112/112/112 120/120/120 119/119/119
f 120/120/120 112/112/112 113/113/113
f 113/113/113 121/121/121 120/120/120
f 121/121/121 113/113/113 114/114/114
f 114/114/114 122/122/122 121/121/121
f 123/123/123 115/115/115 116/116/116
f 116/116/116 124/124/124 123/123/123
f 125/125/125 117/117/117 118/118/118
f 118/118/118 126/126/126 125/125/125
f 126/126/126 118/118/118 119/119/119
f 119/119/119 127/127/127 126/126/126
f 127/127/127 119/119/119 120/120/120
f 120/120/120 128/128/128 127/127/127
f 128/128/128 120/120/120 121/121/121
f 121/121/121 129/129/129 128/128/128
f 129/129/129 121/121/121 122/122/122
f 122/122/122 130/130/130 129/129/129
f 131/131/131 123/123/123 124/124/124
f 124/124/124 132/132/132 131/131/131
f 133/133/133 125/125/125 126/126/126
f 126/126/126 134/134/134 133/133/133
f 134/134/134 126/126/126 127/127/127
f 127/127/127 135/135/135 134/134/134
f 135/135/135 127/127/127 128/128/128
f 128/128/128 136/136/136 135/135/135
f 136/136/136 128/128/128 129/129/129
f 129/129/129 137/137/137 136/136/136
f 137/137/137 129/129/129 130/130/130
f 130/130/130 138/138/138 137/137/137
f 139/139/139 131/131/131 132/132/132
f 132/132/132 140/140/140 139/139/139
f 141/141/141 133/133/133 134/134/134
f 134/134/134 142/142/142 141/141/141
f 142/142/142 134/134/134 135/135/135
f 135/135/135 143/143/143 142/142/142
f 143/143/143 135/135/135 136/136/136
f 136/136/136 144/144/144 143/143/143
f 144/144/144 136/136/136 137/137/137
f 137/137/137 145/145/145 144/144/144
f 145/145/145 137/137/137 138/138/138
f 138/138/138 146/146/146 145/145/145
f 147/147/147 84/84/84 82/82/82
f 82/82/82 92/92/92 147/147/147
f 92/92/92 82/82/82 83/83/83
f 83/83/83 93/93/93 92/92/92
f 96/96/96 81/81/81 80/80/80
f 80/80/80 97/97/97 96/96/96
f 97/97/97 80/80/80 79/79/79
f 79/79/79 99/99/99 97/97/97
f 99/99/99 79/79/79 78/78/78
f 78/78/78 101/101/101 99/99/99
f 101/101/101 78/78/78 77/77/77
f 77/77/77 103/103/103 101/101/101
f 103/103/103 77/77/77 75/75/75
f 75/75/75 105/105/105 103/103/103
f 105/105/105 75/75/75 76/76/76
f 76/76/76 148/148/148 105/105/105
f 106/106/106 105/105/105 148/148/148
f 148/148/148 149/149/149 106/106/106
f 114/114/114 106/106/106 149/149/149
f 149/149/149 150/150/150 114/114/114
f 122/122/122 114/114/114 150/150/150
f 150/150/150 151/151/151 122/122/122
f 130/130/130 122/122/122 151/151/151
f 151/151/151 152/152/152 130/130/130
f 138/138/138 130/130/130 152/152/152
f 152/152/152 153/153/153 138/138/138
f 146/146/146 138/138/138 153/153/153
f 153/153/153 154/154/154 146/146/146
f 155/155/155 146/146/146 154/154/154
f 154/154/154 156/156/156 155/155/155
f 157/157/157 145/145/145 146/146/146
f 146/146/146 155/155/155 157/157/157
f 158/158/158 144/144/144 145/145/145
f 145/145/145 157/157/157 158/158/158
f 159/159/159 143/143/143 144/144/144
f 144/144/144 158/158/158 159/159/159
f 160/160/160 142/142/142 143/143/143
f 143/143/143 159/159/159 160/160/160
f 161/161/161 141/141/141 142/142/142
f 142/142/142 160/160/160 161/161/161
f 162/162/162 139/139/139 140/140/140
f 140/140/140 163/163/163 162/162/162
f 164/164/164 165/165/165 139/139/139
f 139/139/139 162/162/162 164/164/164
f 165/165/165 166/166/166 131/131/131
f 131/131/131 139/139/139 165/165/165
f 166/166/166 167/167/167 123/123/123
f 123/123/123 131/131/131 166/166/166
f 167/167/167 168/168/168 115/115/115
f 115/115/115 123/123/123 167/167/167
f 168/168/168 169/169/169 107/107/107
f 107/107/107 115/115/115 168/168/168
f 169/169/169 170/170/170 91/91/91
f 91/91/91 107/107/107 169/169/169
f 170/170/170 147/147/147 92/92/92
f 92/92/92 91/91/91 170/170/170
f 171/171/171 172/172/172 173/173/173
f 173/173/173 174/174/174 171/171/171
f 175/175/175 176/176/176 177/177/177
f 177/177/177 178/178/178 175/175/175
f 178/178/178 177/177/177 179/179/179
f 179/179/179 180/180/180 178/178/178
f 180/180/180 179/179/179 181/181/181
f 181/181/181 182/182/182 180/180/180
f 182/182/182 181/181/181 183/183/183
f 183/183/183 184/184/184 182/182/182
f 184/184/184 183/183/183 185/185/185
f 185/185/185 186/186/186 184/184/184
f 187/187/187 171/171/171 174/174/174
f 174/174/174 188/188/188 187/187/187
f 189/189/189 175/175/175 178/178/178
f 178/178/178 190/190/190 189/189/189
f 190/190/190 178/178/178 180/180/180
f 180/180/180 191/191/191 190/190/190
f 191/191/191 180/180/180 182/182/182
f 182/182/182 192/192/192 191/191/191
f 192/192/192 182/182/182 184/184/184
f 184/184/184 193/193/193 192/192/192
f 193/193/193 184/184/184 186/186/186
f 186/186/186 194/194/194 193/193/193
f 195/195/195 187/187/187 188/188/188
f 188/188/188 196/196/196 195/195/195
f 197/197/197 189/189/189 190/190/190
f 190/190/190 198/198/198 197/197/197
f 198/198/198 190/190/190 191/191/191
f 191/191/191 199/199/199 198/198/198
f 199/199/199 191/191/191 192/192/192
f 192/192/192 200/200/200 199/199/199
f 200/200/200 192/192/192 193/193/193
f 193/193/193 201/201/201 200/200/200
f 201/201/201 193/193/193 194/194/194
f 194/194/194 202/202/202 201/201/201
f 203/203/203 195/195/195 196/196/196
f 196/196/196 204/204/204 203/203/203
f 205/205/205 197/197/197 198/198/198
f 198/198/198 206/206/206 205/205/205
f 206/206/206 198/198/198 199/199/199
f 199/199/199 207/207/207 206/206/206
f 207/207/207 199/199/199 200/200/200
f 200/200/200 208/208/208 207/207/207
f 208/208/208 200/200/200 201/201/201
f 201/201/201 209/209/209 208/208/208
f 209/209/209 201/201/201 202/202/202
f 202/202/202 210/210/210 209/209/209
f 211/211/211 203/203/203 204/204/204
f 204/204/204 212/212/212 211/211/211
f 213/213/213 205/205/205 206/206/206
f 206/206/206 214/214/214 213/213/213
f 214/214/214 206/206/206 207/207/207
f 207/207/207 215/215/215 214/214/214
f 215/215/215 207/207/207 208/208/208
f 208/208/208 216/216/216 215/215/215
f 216/216/216 208/208/208 209/209/209
f 209/209/209 217/217/217 216/216/216
f 217/217/217 209/209/209 210/210/210
f 210/210/210 218/218/218 217/217/217
f 219/219/219 211/211/211 212/212/212
f 212/212/212 220/220/220 219/219/219
f 221/221/221 213/213/213 214/214/214
f 214/214/214 222/222/222 221/221/221
f 222/222/222 214/214/214 215/215/215
f 215/215/215 223/223/223 222/222/222
f 223/223/223 215/215/215 216/216/216
f 216/216/216 224/224/224 223/223/223
f 224/224/224 216/216/216 217/217/217
f 217/217/217 225/225/225 224/224/224
f 225/225/225 217/217/217 218/218/218
f 218/218/218 226/226/226 225/225/225
f 227/227/227 164/164/164 162/162/162
f 162/162/162 172/172/172 227/227/227
f 172/172/172 162/162/162 163/163/163
f 163/163/163 173/173/173 172/172/172
f 176/176/176 161/161/161 160/160/160
f 160/160/160 177/177/177 176/176/176
f 177/177/177 160/160/160 159/159/159
f 159/159/159 179/179/179 177/177/177
f 179/179/179 159/159/159 158/158/158
f 158/158/158 181/181/181 179/179/179
f 181/181/181 158/158/158 157/157/157
f 157/157/157 183/183/183 181/181/181
f 183/183/183 157/157/157 155/155/155
f 155/155/155 185/185/185 183/183/183
f 185/185/185 155/155/155 156/156/156
f 156/156/156 228/228/228 185/185/185
f 186/186/186 185/185/185 228/228/228
f 228/228/228 229/229/229 186/186/186
f 194/194/194 186/186/186 229/229/229
f 229/229/229 230/230/230 194/194/194
f 202/202/202 194/194/194 230/230/230
f 230/230/230 231/231/231 202/202/202
f 210/210/210 202/202/202 231/231/231
f 231/231/231 232/232/232 210/210/210
f 218/218/218 210/210/210 232/232/232
f 232/232/232 233/233/233 218/218/218
f 226/226/226 218/218/218 233/233/233
f 233/233/233 234/234/234 226/226/226
f 235/235/235 226/226/226 234/234/234
f 234/234/234 236/236/236 235/235/235
f 237/237/237 225/225/225 226/226/226
f 226/226/226 235/235/235 237/237/237
f 238/238/238 224/224/224 225/225/225
f 225/225/225 237/237/237 238/238/238
f 239/239/239 223/223/223 224/224/224
f 224/224/224 238/238/238 239/239/239
f 240/240/240 222/222/222 223/223/223
f 223/223/223 239/239/239 240/240/240
f 241/241/241 221/221/221 222/222/222
f 222/222/222 240/240/240 241/241/241
f 242/242/242 219/219/219 220/220/220
f 220/220/220 243/243/243 242/242/242
f 244/244/244 245/245/245 219/219/219
f 219/219/219 242/242/242 244/244/244
f 245/245/245 246/246/246 211/211/211
f 211/211/211 219/219/219 245/245/245
f 246/246/246 247/247/247 203/203/203
f 203/203/203 211/211/211 246/246/246
f 247/247/247 248/248/248 195/195/195
f 195/195/195 203/203/203 247/247/247
f 248/248/248 249/249/249 187/187/187
f 187/187/187 195/195/195 248/248/248
f 249/249/249 250/250/250 171/171/171
f 171/171/171 187/187/187 249/249/249
f 250/250/250 227/227/227 172/172/172
f 172/172/172 171/171/171 250/250/250
f 251/251/251 252/252/252 253/253/253
f 253/253/253 254/254/254 251/251/251
f 255/255/255 256/256/256 257/257/257
f 257/257/257 258/258/258 255/255/255
f 258/258/258 257/257/257 259/259/259
f 259/259/259 260/260/260 258/258/258
f 260/260/260 259/259/259 261/261/261
f 261/261/261 262/262/262 260/260/260
f 262/262/262 261/261/261 263/263/263
f 263/263/263 264/264/264 262/262/262
f 264/264/264 263/263/263 265/265/265
f 265/265/265 266/266/266 264/264/264
f 267/267/267 251/251/251 254/254/254
f 254/254/254 268/268/268 267/267/267
f 269/269/269 255/255/255 258/258/258
f 258/258/258 270/270/270 269/269/269
f 270/270/270 258/258/258 260/260/260
f 260/260/260 271/271/271 270/270/270
f 271/271/271 260/260/260 262/262/262
f 262/262/262 272/272/272 271/271/271
f 272/272/272 262/262/262 264/264/264
f 264/264/264 273/273/273 272/272/272
f 273/273/273 264/264/264 266/266/266
f 266/266/266 274/274/274 273/273/273
f 275/275/275 267/267/267 268/268/268
f 268/268/268 276/276/276 275/275/275
f 277/277/277 269/269/269 270/270/270
f 270/270/270 278/278/278 277/277/277
f 278/278/278 270/270/270 271/271/271
f 271/271/271 279/279/279 278/278/278
f 279/279/279 271/271/271 272/272/272
f 272/272/272 280/280/280 279/279/279
f 280/280/280 272/272/272 273/273/273
f 273/273/273 281/281/281 280/280/280
f 281/281/281 273/273/273 274/274/274
f 274/274/274 282/282/282 281/281/281
f 283/283/283 275/275/275 276/276/276
f 276/276/276 284/284/284 283/283/283
f 285/285/285 277/277/277 278/278/278
f 278/278/278 286/286/286 285/285/285
f 286/286/286 278/278/278 279/279/279
f 279/279/279 287/287/287 286/286/286
f 287/287/287 279/279/279 280/280/280
f 280/280/280 288/288/288 287/287/287
f 288/288/288 280/280/280 281/281/281
f 281/281/281 289/289/289 288/288/288
f 289/289/289 281/281/281 282/282/282
f 282/282/282 290/290/290 289/289/289
f 291/291/291 283/283/283 284/284/284
f 284/284/284 292/292/292 291/291/291
f 293/293/293 285/285/285 286/286/286
f 286/286/286 294/294/294 293/293/293
f 294/294/294 286/286/286 287/287/287
f 287/287/287 295/295/295 294/294/294
f 295/295/295 287/287/287 288/288/288
f 288/288/288 296/296/296 295/295/295
f 296/296/296 288/288/288 289/289/289
f 289/289/289 297/297/297 296/296/296
f 297/297/297 289/289/289 290/290/290
f 290/290/290 298/298/298 297/297/297
f 299/299/299 291/291/291 292/292/292
f 292/292/292 300/300/300 299/299/299
f 301/301/301 293/293/293 294/294/294
f 294/294/294 302/302/302 301/301/301
f 302/302/302 294/294/294 295/295/295
f 295/295/295 303/303/303 302/302/302
f 303/303/303 295/295/295 296/296/296
f 296/296/296 304/304/304 303/303/303
f 304/304/304 296/296/296 297/297/297
f 297/297/297 305/305/305 304/304/304
f 305/305/305 297/297/297 298/298/298
f 298/298/298 306/306/306 305/305/305
f 307/307/307 244/244/244 242/242/242
f 242/242/242 252/252/252 307/307/307
f 252/252/252 242/242/242 243/243/243
f 243/243/243 253/253/253 252/252/252
f 256/256/256 241/241/241 240/240/240
f 240/240/240 257/257/257 256/256/256
f 257/257/257 240/240/240 239/239/239
f 239/239/239 259/259/259 257/257/257
f 259/259/259 239/239/239 238/238/238
f 238/238/238 261/261/261 259/259/259
f 261/261/261 238/238/238 237/237/237
f 237/237/237 263/263/263 261/261/261
f 263/263/263 237/237/237 235/235/235
f 235/235/235 265/265/265 263/263/263
f 265/265/265 235/235/235 236/236/236
f 236/236/236 308/308/308 265/265/265
f 266/266/266 265/265/265 308/308/308
f 308/308/308 309/309/309 266/266/266
f 274/274/274 266/266/266 309/309/309
f 309/309/309 310/310/310 274/274/274
f 282/282/282 274/274/274 310/310/310
f 310/310/310 311/311/311 282/282/282
f 290/290/290 282/282/282 311/311/311
f 311/311/311 312/312/312 290/290/290
f 298/298/298 290/290/290 312/312/312
f 312/312/312 313/313/313 298/298/298
f 306/306/306 298/298/298 313/313/313
f 313/313/313 314/314/314 306/306/306
f 66/66/66 306/306/306 314/314/314
f 314/314/314 67/67/67 66/66/66
f 65/65/65 305/305/305 306/306/306
f 306/306/306 66/66/66 65/65/65
f 64/64/64 304/304/304 305/305/305
f 305/305/305 65/65/65 64/64/64
f 63/63/63 303/303/303 304/304/304
f 304/304/304 64/64/64 63/63/63
f 62/62/62 302/302/302 303/303/303
f 303/303/303 63/63/63 62/62/62
f 61/61/61 301/301/301 302/302/302
f 302/302/302 62/62/62 61/61/61
f 59/59/59 299/299/299 300/300/300
f 300/300/300 60/60/60 59/59/59
f 58/58/58 315/315/315 299/299/299
f 299/299/299 59/59/59 58/58/58
f 315/315/315 316/316/316 291/291/291
f 291/291/291 299/299/299 315/315/315
f 316/316/316 317/317/317 283/283/283
f 283/283/283 291/291/291 316/316/316
f 317/317/317 318/318/318 275/275/275
f 275/275/275 283/283/283 317/317/317
f 318/318/318 319/319/319 267/267/267
f 267/267/267 275/275/275 318/318/318
f 319/319/319 320/320/320 251/251/251
f 251/251/251 267/267/267 319/319/319
f 320/320/320 307/307/307 252/252/252
f 252/252/252 251/251/251 320/320/320
f 321/321/321 322/322/322 323/323/323
f 323/323/323 324/324/324 321/321/321
f 324/324/324 323/323/323 325/325/325
f 325/325/325 326/326/326 324/324/324
f 326/326/326 325/325/325 327/327/327
f 327/327/327 328/328/328 326/326/326
f 328/328/328 327/327/327 329/329/329
f 329/329/329 330/330/330 328/328/328
f 330/330/330 329/329/329 331/331/331
f 331/331/331 332/332/332 330/330/330
f 332/332/332 331/331/331 333/333/333
f 333/333/333 334/334/334 332/332/332
f 335/335/335 321/321/321 324/324/324
f 324/324/324 336/336/336 335/335/335
f 336/336/336 324/324/324 326/326/326
f 326/326/326 337/337/337 336/336/336
f 337/337/337 326/326/326 328/328/328
f 328/328/328 338/338/338 337/337/337
f 338/338/338 328/328/328 330/330/330
f 330/330/330 339/339/339 338/338/338
f 339/339/339 330/330/330 332/332/332
f 332/332/332 340/340/340 339/339/339
f 340/340/340 332/332/332 334/334/334
f 334/334/334 341/341/341 340/340/340
f 342/342/342 335/335/335 336/336/336
f 336/336/336 343/343/343 342/342/342
f 343/343/343 336/336/336 337/337/337
f 337/337/337 344/344/344 343/343/343
f 344/344/344 337/337/337 338/338/338
f 338/338/338 345/345/345 344/344/344
f 345/345/345 338/338/338 339/339/339
f 339/339/339 346/346/346 345/345/345
f 346/346/346 339/339/339 340/340/340
f 340/340/340 347/347/347 346/346/346
f 347/347/347 340/340/340 341/341/341
f 341/341/341 348/348/348 347/347/347
f 349/349/349 342/342/342 343/343/343
f 343/343/343 350/350/350 349/349/349
f 350/350/350 343/343/343 344/344/344
f 344/344/344 351/351/351 350/350/350
f 351/351/351 344/344/344 345/345/345
f 345/345/345 352/352/352 351/351/351
f 352/352/352 345/345/345 346/346/346
f 346/346/346 353/353/353 352/352/352
f 353/353/353 346/346/346 347/347/347
f 347/347/347 354/354/354 353/353/353
f 354/354/354 347/347/347 348/348/348
f 348/348/348 355/355/355 354/354/354
f 356/356/356 349/349/349 350/350/350
f 350/350/350 357/357/357 356/356/356
f 357/357/357 350/350/350 351/351/351
f 351/351/351 358/358/358 357/357/357
f 358/358/358 351/351/351 352/352/352
f 352/352/352 359/359/359 358/358/358
f 359/359/359 352/352/352 353/353/353
f 353/353/353 360/360/360 359/359/359
f 360/360/360 353/353/353 354/354/354
f 354/354/354 361/361/361 360/360/360
f 361/361/361 354/354/354 355/355/355
f 355/355/355 362/362/362 361/361/361
f 363/363/363 356/356/356 357/357/357
f 357/357/357 364/364/364 363/363/363
f 364/364/364 357/357/357 358/358/358
f 358/358/358 365/365/365 364/364/364
f 365/365/365 358/358/358 359/359/359
f 359/359/359 366/366/366 365/365/365
f 366/366/366 359/359/359 360/360/360
f 360/360/360 367/367/367 366/366/366
f 367/367/367 360/360/360 361/361/361
f 361/361/361 368/368/368 367/367/367
f 368/368/368 361/361/361 362/362/362
f 362/362/362 369/369/369 368/368/368
f 85/85/85 84/84/84 147/147/147
f 147/147/147 322/322/322 85/85/85
f 322/322/322 147/147/147 170/170/170
f 170/170/170 323/323/323 322/322/322
f 323/323/323 170/170/170 169/169/169
f 169/169/169 325/325/325 323/323/323
f 325/325/325 169/169/169 168/168/168
f 168/168/168 327/327/327 325/325/325
f 327/327/327 168/168/168 167/167/167
f 167/167/167 329/329/329 327/327/327
f 329/329/329 167/167/167 166/166/166
f 166/166/166 331/331/331 329/329/329
f 331/331/331 166/166/166 165/165/165
f 165/165/165 333/333/333 331/331/331
f 333/333/333 165/165/165 164/164/164
f 164/164/164 227/227/227 333/333/333
f 334/334/334 333/333/333 227/227/227
f 227/227/227 250/250/250 334/334/334
f 341/341/341 334/334/334 250/250/250
f 250/250/250 249/249/249 341/341/341
f 348/348/348 341/341/341 249/249/249
f 249/249/249 248/248/248 348/348/348
f 355/355/355 348/348/348 248/248/248
f 248/248/248 247/247/247 355/355/355
f 362/362/362 355/355/355 247/247/247
f 247/247/247 246/246/246 362/362/362
f 369/369/369 362/362/362 246/246/246
f 246/246/246 245/245/245 369/369/369
f 307/307/307 369/369/369 245/245/245
f 245/245/245 244/244/244 307/307/307
f 320/320/320 368/368/368 369/369/369
f 369/369/369 307/307/307 320/320/320
f 319/319/319 367/367/367 368/368/368
f 368/368/368 320/320/320 319/319/319
f 318/318/318 366/366/366 367/367/367
f 367/367/367 319/319/319 318/318/318
f 317/317/317 365/365/365 366/366/366
f 366/366/366 318/318/318 317/317/317
f 316/316/316 364/364/364 365/365/365
f 365/365/365 317/317/317 316/316/316
f 315/315/315 363/363/363 364/364/364
f 364/364/364 316/316/316 315/315/315
f 58/58/58 57/57/57 363/363/363
f 363/363/363 315/315/315 58/58/58
f 57/57/57 90/90/90 356/356/356
f 356/356/356 363/363/363 57/57/57
f 90/90/90 89/89/89 349/349/349
f 349/349/349 356/356/356 90/90/90
f 89/89/89 88/88/88 342/342/342
f 342/342/342 349/349/349 89/89/89
f 88/88/88 87/87/87 335/335/335
f 335/335/335 342/342/342 88/88/88
f 87/87/87 86/86/86 321/321/321
f 321/321/321 335/335/335 87/87/87
f 86/86/86 85/85/85 322/322/322
f 322/322/322 321/321/321 86/86/86
f 370/370/370 371/371/371 372/372/372
f 372/372/372 373/373/373 370/370/370
f 373/373/373 372/372/372 374/374/374
f 374/374/374 375/375/375 373/373/373
f 375/375/375 374/374/374 376/376/376
f 376/376/376 377/377/377 375/375/375
f 377/377/377 376/376/376 378/378/378
f 378/378/378 379/379/379 377/377/377
f 379/379/379 378/378/378 380/380/380
f 380/380/380 381/381/381 379/379/379
f 381/381/381 380/380/380 382/382/382
f 382/382/382 383/383/383 381/381/381
f 384/384/384 370/370/370 373/373/373
f 373/373/373 385/385/385 384/384/384
f 385/385/385 373/373/373 375/375/375
f 375/375/375 386/386/386 385/385/385
f 386/386/386 375/375/375 377/377/377
f 377/377/377 387/387/387 386/386/386
f 387/387/387 377/377/377 379/379/379
f 379/379/379 388/388/388 387/387/387
f 388/388/388 379/379/379 381/381/381
f 381/381/381 389/389/389 388/388/388
f 389/389/389 381/381/381 383/383/383
f 383/383/383 390/390/390 389/389/389
f 391/391/391 384/384/384 385/385/385
f 385/385/385 392/392/392 391/391/391
f 392/392/392 385/385/385 386/386/386
f 386/386/386 393/393/393 392/392/392
f 393/393/393 386/386/386 387/387/387
f 387/387/387 394/394/394 393/393/393
f 394/394/394 387/387/387 388/388/388
f 388/388/388 395/395/395 394/394/394
f 395/395/395 388/388/388 389/389/389
f 389/389/389 396/396/396 395/395/395
f 396/396/396 389/389/389 390/390/390
f 390/390/390 397/397/397 396/396/396
f 398/398/398 391/391/391 392/392/392
f 392/392/392 399/399/399 398/398/398
f 399/399/399 392/392/392 393/393/393
f 393/393/393 400/400/400 399/399/399
f 400/400/400 393/393/393 394/394/394
f 394/394/394 401/401/401 400/400/400
f 401/401/401 394/394/394 395/395/395
f 395/395/395 402/402/402 401/401/401
f 402/402/402 395/395/395 396/396/396
f 396/396/396 403/403/403 402/402/402
f 403/403/403 396/396/396 397/397/397
f 397/397/397 404/404/404 403/403/403
f 405/405/405 398/398/398 399/399/399
f 399/399/399 406/406/406 405/405/405
f 406/406/406 399/399/399 400/400/400
f 400/400/400 407/407/407 406/406/406
f 407/407/407 400/400/400 401/401/401
f 401/401/401 408/408/408 407/407/407
f 408/408/408 401/401/401 402/402/402
f 402/402/402 409/409/409 408/408/408
f 409/409/409 402/402/402 403/403/403
f 403/403/403 410/410/410 409/409/409
f 410/410/410 403/403/403 404/404/404
f 404/404/404 411/411/411 410/410/410
f 412/412/412 405/405/405 406/406/406
f 406/406/406 413/413/413 412/412/412
f 413/413/413 406/406/406 407/407/407
f 407/407/407 414/414/414 413/413/413
f 414/414/414 407/407/407 408/408/408
f 408/408/408 415/415/415 414/414/414
f 415/415/415 408/408/408 409/409/409
f 409/409/409 416/416/416 415/415/415
f 416/416/416 409/409/409 410/410/410
f 410/410/410 417/417/417 416/416/416
f 417/417/417 410/410/410 411/411/411
f 411/411/411 418/418/418 417/417/417
f 228/228/228 156/156/156 154/154/154
f 154/154/154 371/371/371 228/228/228
f 371/371/371 154/154/154 153/153/153
f 153/153/153 372/372/372 371/371/371
f 372/372/372 153/153/153 152/152/152
f 152/152/152 374/374/374 372/372/372
f 374/374/374 152/152/152 151/151/151
f 151/151/151 376/376/376 374/374/374
f 376/376/376 151/151/151 150/150/150
f 150/150/150 378/378/378 376/376/376
f 378/378/378 150/150/150 149/149/149
f 149/149/149 380/380/380 378/378/378
f 380/380/380 149/149/149 148/148/148
f 148/148/148 382/382/382 380/380/380
f 382/382/382 148/148/148 76/76/76
f 76/76/76 74/74/74 382/382/382
f 383/383/383 382/382/382 74/74/74
f 74/74/74 73/73/73 383/383/383
f 390/390/390 383/383/383 73/73/73
f 73/73/73 72/72/72 390/390/390
f 397/397/397 390/390/390 72/72/72
f 72/72/72 71/71/71 397/397/397
f 404/404/404 397/397/397 71/71/71
f 71/71/71 70/70/70 404/404/404
f 411/411/411 404/404/404 70/70/70
f 70/70/70 69/69/69 411/411/411
f 418/418/418 411/411/411 69/69/69
f 69/69/69 68/68/68 418/418/418
f 314/314/314 418/418/418 68/68/68
f 68/68/68 67/67/67 314/314/314
f 313/313/313 417/417/417 418/418/418
f 418/418/418 314/314/314 313/313/313
f 312/312/312 416/416/416 417/417/417
f 417/417/417 313/313/313 312/312/312
f 311/311/311 415/415/415 416/416/416
f 416/416/416 312/312/312 311/311/311
f 310/310/310 414/414/414 415/415/415
f 415/415/415 311/311/311 310/310/310
f 309/309/309 413/413/413 414/414/414
f 414/414/414 310/310/310 309/309/309
f 308/308/308 412/412/412 413/413/413
f 413/413/413 309/309/309 308/308/308
f 236/236/236 234/234/234 412/412/412
f 412/412/412 308/308/308 236/236/236
f 234/234/234 233/233/233 405/405/405
f 405/405/405 412/412/412 234/234/234
f 233/233/233 232/232/232 398/398/398
f 398/398/398 405/405/405 233/233/233
f 232/232/232 231/231/231 391/391/391
f 391/391/391 398/398/398 232/232/232
f 231/231/231 230/230/230 384/384/384
f 384/384/384 391/391/391 231/231/231
f 230/230/230 229/229/229 370/370/370
f 370/370/370 384/384/384 230/230/230
f 229/229/229 228/228/228 371/371/371
f 371/371/371 370/370/370 229/229/229
usemtl Stems_1001
f 419/419/419 420/420/420 421/421/421
f 421/421/421 422/422/422 419/419/419
f 422/422/422 421/421/421 423/423/423
f 423/423/423 424/424/424 422/422/422
f 425/425/425 419/419/419 422/422/422
f 422/422/422 426/426/426 425/425/425
f 426/426/426 422/422/422 424/424/424
f 424/424/424 427/427/427 426/426/426
f 428/428/428 429/429/429 430/430/430
f 430/430/430 420/420/420 428/428/428
f 420/420/420 430/430/430 431/431/431
f 431/431/431 421/421/421 420/420/420
f 421/421/421 431/431/431 432/432/432
f 432/432/432 423/423/423 421/421/421
f 423/423/423 432/432/432 433/433/433
f 433/433/433 434/434/434 423/423/423
f 424/424/424 423/423/423 434/434/434
f 434/434/434 435/435/435 424/424/424
f 427/427/427 424/424/424 435/435/435
f 435/435/435 436/436/436 427/427/427
f 437/437/437 427/427/427 436/436/436
f 436/436/436 438/438/438 437/437/437
f 439/439/439 426/426/426 427/427/427
f 427/427/427 437/437/437 439/439/439
f 440/440/440 425/425/425 426/426/426
f 426/426/426 439/439/439 440/440/440
f 441/441/441 442/442/442 425/425/425
f 425/425/425 440/440/440 441/441/441
f 442/442/442 443/443/443 419/419/419
f 419/419/419 425/425/425 442/442/442
f 443/443/443 428/428/428 420/420/420
f 420/420/420 419/419/419 443/443/443
f 444/444/444 445/445/445 446/446/446
f 446/446/446 447/447/447 444/444/444
f 447/447/447 446/446/446 448/448/448
f 448/448/448 449/449/449 447/447/447
f 450/450/450 444/444/444 447/447/447
f 447/447/447 451/451/451 450/450/450
f 451/451/451 447/447/447 449/449/449
f 449/449/449 452/452/452 451/451/451
f 453/453/453 441/441/441 440/440/440
f 440/440/440 454/454/454 453/453/453
f 454/454/454 440/440/440 439/439/439
f 439/439/439 455/455/455 454/454/454
f 455/455/455 439/439/439 437/437/437
f 437/437/437 456/456/456 455/455/455
f 456/456/456 437/437/437 438/438/438
f 438/438/438 457/457/457 456/456/456
f 449/449/449 448/448/448 458/458/458
f 458/458/458 459/459/459 449/449/449
f 452/452/452 449/449/449 459/459/459
f 459/459/459 460/460/460 452/452/452
f 461/461/461 452/452/452 460/460/460
f 460/460/460 462/462/462 461/461/461
f 463/463/463 451/451/451 452/452/452
f 452/452/452 461/461/461 463/463/463
f 464/464/464 450/450/450 451/451/451
f 451/451/451 463/463/463 464/464/464
f 465/465/465 466/466/466 450/450/450
f 450/450/450 464/464/464 465/465/465
f 466/466/466 467/467/467 444/444/444
f 444/444/444 450/450/450 466/466/466
f 467/467/467 468/468/468 445/445/445
f 445/445/445 444/444/444 467/467/467
f 469/469/469 470/470/470 471/471/471
f 471/471/471 472/472/472 469/469/469
f 472/472/472 471/471/471 473/473/473
f 473/473/473 474/474/474 472/472/472
f 475/475/475 469/469/469 472/472/472
f 472/472/472 476/476/476 475/475/475
f 476/476/476 472/472/472 474/474/474
f 474/474/474 477/477/477 476/476/476
f 478/478/478 465/465/465 464/464/464
f 464/464/464 470/470/470 478/478/478
f 470/470/470 464/464/464 463/463/463
f 463/463/463 471/471/471 470/470/470
f 471/471/471 463/463/463 461/461/461
f 461/461/461 473/473/473 471/471/471
f 473/473/473 461/461/461 462/462/462
f 462/462/462 479/479/479 473/473/473
f 474/474/474 473/473/473 479/479/479
f 479/479/479 480/480/480 474/474/474
f 477/477/477 474/474/474 480/480/480
f 480/480/480 481/481/481 477/477/477
f 482/482/482 477/477/477 481/481/481
f 481/481/481 483/483/483 482/482/482
f 484/484/484 476/476/476 477/477/477
f 477/477/477 482/482/482 484/484/484
f 485/485/485 475/475/475 476/476/476
f 476/476/476 484/484/484 485/485/485
f 486/486/486 487/487/487 475/475/475
f 475/475/475 485/485/485 486/486/486
f 487/487/487 488/488/488 469/469/469
f 469/469/469 475/475/475 487/487/487
f 488/488/488 478/478/478 470/470/470
f 470/470/470 469/469/469 488/488/488
f 489/489/489 490/490/490 491/491/491
f 491/491/491 492/492/492 489/489/489
f 492/492/492 491/491/491 493/493/493
f 493/493/493 494/494/494 492/492/492
f 495/495/495 489/489/489 492/492/492
f 492/492/492 496/496/496 495/495/495
f 496/496/496 492/492/492 494/494/494
f 494/494/494 497/497/497 496/496/496
f 498/498/498 486/486/486 485/485/485
f 485/485/485 490/490/490 498/498/498
f 490/490/490 485/485/485 484/484/484
f 484/484/484 491/491/491 490/490/490
f 491/491/491 484/484/484 482/482/482
f 482/482/482 493/493/493 491/491/491
f 493/493/493 482/482/482 483/483/483
f 483/483/483 499/499/499 493/493/493
f 494/494/494 493/493/493 499/499/499
f 499/499/499 500/500/500 494/494/494
f 497/497/497 494/494/494 500/500/500
f 500/500/500 501/501/501 497/497/497
f 432/432/432 497/497/497 501/501/501
f 501/501/501 433/433/433 432/432/432
f 431/431/431 496/496/496 497/497/497
f 497/497/497 432/432/432 431/431/431
f 430/430/430 495/495/495 496/496/496
f 496/496/496 431/431/431 430/430/430
f 429/429/429 502/502/502 495/495/495
f 495/495/495 430/430/430 429/429/429
f 502/502/502 503/503/503 489/489/489
f 489/489/489 495/495/495 502/502/502
f 503/503/503 498/498/498 490/490/490
f 490/490/490 489/489/489 503/503/503
f 504/504/504 505/505/505 506/506/506
f 506/506/506 507/507/507 504/504/504
f 507/507/507 506/506/506 508/508/508
f 508/508/508 509/509/509 507/507/507
f 510/510/510 504/504/504 507/507/507
f 507/507/507 511/511/511 510/510/510
f 511/511/511 507/507/507 509/509/509
f 509/509/509 512/512/512 511/511/511
f 513/513/513 438/438/438 436/436/436
f 436/436/436 505/505/505 513/513/513
f 505/505/505 436/436/436 435/435/435
f 435/435/435 506/506/506 505/505/505
f 506/506/506 435/435/435 434/434/434
f 434/434/434 508/508/508 506/506/506
f 508/508/508 434/434/434 433/433/433
f 433/433/433 514/514/514 508/508/508
f 509/509/509 508/508/508 514/514/514
f 514/514/514 515/515/515 509/509/509
f 512/512/512 509/509/509 515/515/515
f 515/515/515 516/516/516 512/512/512
f 517/517/517 512/512/512 516/516/516
f 516/516/516 518/518/518 517/517/517
f 519/519/519 511/511/511 512/512/512
f 512/512/512 517/517/517 519/519/519
f 520/520/520 510/510/510 511/511/511
f 511/511/511 519/519/519 520/520/520
f 521/521/521 522/522/522 510/510/510
f 510/510/510 520/520/520 521/521/521
f 522/522/522 523/523/523 504/504/504
f 504/504/504 510/510/510 522/522/522
f 523/523/523 513/513/513 505/505/505
f 505/505/505 504/504/504 523/523/523
f 524/524/524 525/525/525 526/526/526
f 526/526/526 527/527/527 524/524/524
f 527/527/527 526/526/526 528/528/528
f 528/528/528 529/529/529 527/527/527
f 530/530/530 524/524/524 527/527/527
f 527/527/527 531/531/531 530/530/530
f 531/531/531 527/527/527 529/529/529
f 529/529/529 532/532/532 531/531/531
f 533/533/533 518/518/518 534/534/534
f 534/534/534 525/525/525 533/533/533
f 525/525/525 534/534/534 535/535/535
f 535/535/535 526/526/526 525/525/525
f 526/526/526 535/535/535 536/536/536
f 536/536/536 528/528/528 526/526/526
f 528/528/528 536/536/536 537/537/537
f 537/537/537 538/538/538 528/528/528
f 529/529/529 528/528/528 538/538/538
f 538/538/538 539/539/539 529/529/529
f 532/532/532 529/529/529 539/539/539
f 539/539/539 540/540/540 532/532/532
f 541/541/541 532/532/532 540/540/540
f 540/540/540 542/542/542 541/541/541
f 543/543/543 531/531/531 532/532/532
f 532/532/532 541/541/541 543/543/543
f 544/544/544 530/530/530 531/531/531
f 531/531/531 543/543/543 544/544/544
f 545/545/545 546/546/546 530/530/530
f 530/530/530 544/544/544 545/545/545
f 546/546/546 547/547/547 524/524/524
f 524/524/524 530/530/530 546/546/546
f 547/547/547 533/533/533 525/525/525
f 525/525/525 524/524/524 547/547/547
f 548/548/548 549/549/549 550/550/550
f 550/550/550 551/551/551 548/548/548
f 551/551/551 550/550/550 552/552/552
f 552/552/552 553/553/553 551/551/551
f 554/554/554 548/548/548 551/551/551
f 551/551/551 555/555/555 554/554/554
f 555/555/555 551/551/551 553/553/553
f 553/553/553 556/556/556 555/555/555
f 514/514/514 433/433/433 501/501/501
f 501/501/501 549/549/549 514/514/514
f 549/549/549 501/501/501 500/500/500
f 500/500/500 550/550/550 549/549/549
f 550/550/550 500/500/500 499/499/499
f 499/499/499 552/552/552 550/550/550
f 552/552/552 499/499/499 483/483/483
f 483/483/483 557/557/557 552/552/552
f 553/553/553 552/552/552 557/557/557
f 557/557/557 558/558/558 553/553/553
f 556/556/556 553/553/553 558/558/558
f 558/558/558 559/559/559 556/556/556
f 536/536/536 556/556/556 559/559/559
f 559/559/559 537/537/537 536/536/536
f 535/535/535 555/555/555 556/556/556
f 556/556/556 536/536/536 535/535/535
f 534/534/534 554/554/554 555/555/555
f 555/555/555 535/535/535 534/534/534
f 518/518/518 516/516/516 554/554/554
f 554/554/554 534/534/534 518/518/518
f 516/516/516 515/515/515 548/548/548
f 548/548/548 554/554/554 516/516/516
f 515/515/515 514/514/514 549/549/549
f 549/549/549 548/548/548 515/515/515
f 560/560/560 561/561/561 562/562/562
f 562/562/562 563/563/563 560/560/560
f 563/563/563 562/562/562 564/564/564
f 564/564/564 565/565/565 563/563/563
f 566/566/566 560/560/560 563/563/563
f 563/563/563 567/567/567 566/566/566
f 567/567/567 563/563/563 565/565/565
f 565/565/565 568/568/568 567/567/567
f 569/569/569 462/462/462 460/460/460
f 460/460/460 561/561/561 569/569/569
f 561/561/561 460/460/460 459/459/459
f 459/459/459 562/562/562 561/561/561
f 562/562/562 459/459/459 458/458/458
f 458/458/458 564/564/564 562/562/562
f 570/570/570 457/457/457 438/438/438
f 438/438/438 513/513/513 570/570/570
f 571/571/571 570/570/570 513/513/513
f 513/513/513 523/523/523 571/571/571
f 572/572/572 571/571/571 523/523/523
f 523/523/523 522/522/522 572/572/572
f 573/573/573 572/572/572 522/522/522
f 522/522/522 521/521/521 573/573/573
f 574/574/574 567/567/567 568/568/568
f 568/568/568 575/575/575 574/574/574
f 576/576/576 566/566/566 567/567/567
f 567/567/567 574/574/574 576/576/576
f 577/577/577 578/578/578 566/566/566
f 566/566/566 576/576/576 577/577/577
f 578/578/578 579/579/579 560/560/560
f 560/560/560 566/566/566 578/578/578
f 579/579/579 569/569/569 561/561/561
f 561/561/561 560/560/560 579/579/579
f 580/580/580 581/581/581 582/582/582
f 582/582/582 583/583/583 580/580/580
f 583/583/583 582/582/582 584/584/584
f 584/584/584 585/585/585 583/583/583
f 586/586/586 580/580/580 583/583/583
f 583/583/583 587/587/587 586/586/586
f 587/587/587 583/583/583 585/585/585
f 585/585/585 588/588/588 587/587/587
f 557/557/557 483/483/483 481/481/481
f 481/481/481 581/581/581 557/557/557
f 581/581/581 481/481/481 480/480/480
f 480/480/480 582/582/582 581/581/581
f 582/582/582 480/480/480 479/479/479
f 479/479/479 584/584/584 582/582/582
f 584/584/584 479/479/479 462/462/462
f 462/462/462 569/569/569 584/584/584
f 585/585/585 584/584/584 569/569/569
f 569/569/569 579/579/579 585/585/585
f 588/588/588 585/585/585 579/579/579
f 579/579/579 578/578/578 588/588/588
f 589/589/589 588/588/588 578/578/578
f 578/578/578 577/577/577 589/589/589
f 590/590/590 587/587/587 588/588/588
f 588/588/588 589/589/589 590/590/590
f 591/591/591 586/586/586 587/587/587
f 587/587/587 590/590/590 591/591/591
f 537/537/537 559/559/559 586/586/586
f 586/586/586 591/591/591 537/537/537
f 559/559/559 558/558/558 580/580/580
f 580/580/580 586/586/586 559/559/559
f 558/558/558 557/557/557 581/581/581
f 581/581/581 580/580/580 558/558/558
f 592/592/592 593/593/593 594/594/594
f 594/594/594 595/595/595 592/592/592
f 595/595/595 594/594/594 596/596/596
f 596/596/596 597/597/597 595/595/595
f 598/598/598 592/592/592 595/595/595
f 595/595/595 599/599/599 598/598/598
f 599/599/599 595/595/595 597/597/597
f 597/597/597 600/600/600 599/599/599
f 601/601/601 577/577/577 576/576/576
f 576/576/576 593/593/593 601/601/601
f 593/593/593 576/576/576 574/574/574
f 574/574/574 594/594/594 593/593/593
f 594/594/594 574/574/574 575/575/575
f 575/575/575 596/596/596 594/594/594
f 602/602/602 573/573/573 521/521/521
f 521/521/521 603/603/603 602/602/602
f 604/604/604 602/602/602 603/603/603
f 603/603/603 605/605/605 604/604/604
f 606/606/606 604/604/604 605/605/605
f 605/605/605 607/607/607 606/606/606
f 608/608/608 606/606/606 607/607/607
f 607/607/607 609/609/609 608/608/608
f 610/610/610 599/599/599 600/600/600
f 600/600/600 611/611/611 610/610/610
f 612/612/612 598/598/598 599/599/599
f 599/599/599 610/610/610 612/612/612
f 613/613/613 614/614/614 598/598/598
f 598/598/598 612/612/612 613/613/613
f 614/614/614 615/615/615 592/592/592
f 592/592/592 598/598/598 614/614/614
f 615/615/615 601/601/601 593/593/593
f 593/593/593 592/592/592 615/615/615
f 616/616/616 617/617/617 618/618/618
f 618/618/618 619/619/619 616/616/616
f 619/619/619 618/618/618 620/620/620
f 620/620/620 621/621/621 619/619/619
f 622/622/622 616/616/616 619/619/619
f 619/619/619 623/623/623 622/622/622
f 623/623/623 619/619/619 621/621/621
f 621/621/621 624/624/624 623/623/623
f 538/538/538 537/537/537 591/591/591
f 591/591/591 617/617/617 538/538/538
f 617/617/617 591/591/591 590/590/590
f 590/590/590 618/618/618 617/617/617
f 618/618/618 590/590/590 589/589/589
f 589/589/589 620/620/620 618/618/618
f 620/620/620 589/589/589 577/577/577
f 577/577/577 601/601/601 620/620/620
f 621/621/621 620/620/620 601/601/601
f 601/601/601 615/615/615 621/621/621
f 624/624/624 621/621/621 615/615/615
f 615/615/615 614/614/614 624/624/624
f 625/625/625 624/624/624 614/614/614
f 614/614/614 613/613/613 625/625/625
f 626/626/626 623/623/623 624/624/624
f 624/624/624 625/625/625 626/626/626
f 627/627/627 622/622/622 623/623/623
f 623/623/623 626/626/626 627/627/627
f 542/542/542 540/540/540 622/622/622
f 622/622/622 627/627/627 542/542/542
f 540/540/540 539/539/539 616/616/616
f 616/616/616 622/622/622 540/540/540
f 539/539/539 538/538/538 617/617/617
f 617/617/617 616/616/616 539/539/539
f 628/628/628 629/629/629 630/630/630
f 630/630/630 631/631/631 628/628/628
f 631/631/631 630/630/630 632/632/632
f 632/632/632 633/633/633 631/631/631
f 634/634/634 628/628/628 631/631/631
f 631/631/631 635/635/635 634/634/634
f 635/635/635 631/631/631 633/633/633
f 633/633/633 636/636/636 635/635/635
f 603/603/603 521/521/521 520/520/520
f 520/520/520 629/629/629 603/603/603
f 629/629/629 520/520/520 519/519/519
f 519/519/519 630/630/630 629/629/629
f 630/630/630 519/519/519 517/517/517
f 517/517/517 632/632/632 630/630/630
f 632/632/632 517/517/517 518/518/518
f 518/518/518 533/533/533 632/632/632
f 633/633/633 632/632/632 533/533/533
f 533/533/533 547/547/547 633/633/633
f 636/636/636 633/633/633 547/547/547
f 547/547/547 546/546/546 636/636/636
f 637/637/637 636/636/636 546/546/546
f 546/546/546 545/545/545 637/637/637
f 638/638/638 635/635/635 636/636/636
f 636/636/636 637/637/637 638/638/638
f 639/639/639 634/634/634 635/635/635
f 635/635/635 638/638/638 639/639/639
f 609/609/609 607/607/607 634/634/634
f 634/634/634 639/639/639 609/609/609
f 607/607/607 605/605/605 628/628/628
f 628/628/628 634/634/634 607/607/607
f 605/605/605 603/603/603 629/629/629
f 629/629/629 628/628/628 605/605/605
