# Blender v3.6.19 OBJ File: 'mushroom3.blend'
# www.blender.org
mtllib mushroom3.mtl
o defaultMaterial.004
v 0.000060 0.037391 0.005928
v -0.014856 0.035488 0.006081
v -0.013496 0.032480 0.018955
v -0.000001 0.034816 0.019032
v -0.011023 0.026794 0.035048
v -0.000092 0.027919 0.034726
v 0.014478 0.034914 0.006225
v 0.013049 0.031828 0.018956
v 0.011205 0.026207 0.035142
v -0.015172 0.035876 -0.003404
v -0.029071 0.030152 -0.002087
v -0.028652 0.029728 0.006977
v -0.026580 0.027575 0.019636
v -0.022408 0.023149 0.036610
v -0.015639 0.015755 0.045578
v -0.008549 0.020480 0.046251
v 0.000087 0.021951 0.046422
v 0.009323 0.019751 0.046386
v 0.018299 0.018511 0.033368
v 0.015577 0.013580 0.045302
v 0.023070 0.024540 0.018827
v 0.026218 0.028100 0.006820
v 0.026091 0.028515 -0.002679
v 0.014214 0.035023 -0.003480
v -0.000137 0.037508 -0.003733
v 0.035951 0.002161 0.008356
v 0.034281 0.017126 0.008179
v 0.028824 0.014029 0.019110
v 0.030392 0.001468 0.019279
v 0.020982 0.009656 0.031916
v 0.022372 0.000757 0.032012
v 0.032525 -0.013053 0.008322
v 0.028688 -0.011661 0.019630
v 0.022762 -0.009240 0.033294
v 0.034562 0.017798 -0.000959
v 0.017998 0.006712 0.044061
v 0.019682 -0.000050 0.043968
v 0.020125 -0.008357 0.044289
v 0.017964 -0.018532 0.033878
v 0.015192 -0.015904 0.044539
v 0.022400 -0.023471 0.019872
v 0.024760 -0.026255 0.008507
v 0.024783 -0.026572 -0.000489
v 0.033286 -0.013194 -0.000401
v 0.036735 0.002562 -0.000470
v -0.002907 -0.037588 0.007570
v 0.011958 -0.034275 0.008027
v 0.011071 -0.030354 0.019361
v -0.002025 -0.033578 0.019135
v 0.009280 -0.024097 0.033480
v -0.000921 -0.027807 0.034322
v -0.017693 -0.035271 0.007084
v -0.015491 -0.031919 0.018922
v -0.012663 -0.027258 0.035163
v 0.011669 -0.034895 -0.000898
v 0.007083 -0.018200 0.043636
v -0.000457 -0.020941 0.044207
v -0.009486 -0.021615 0.045305
v -0.021009 -0.019734 0.033850
v -0.017295 -0.016435 0.044914
v -0.026175 -0.024511 0.018563
v -0.029505 -0.027202 0.006414
v -0.030404 -0.027422 -0.002613
v -0.018370 -0.035418 -0.002120
v -0.003523 -0.037872 -0.001517
v -0.040506 0.001029 0.006783
v -0.037300 -0.014602 0.006576
v -0.032935 -0.013098 0.018678
v -0.037666 0.000552 0.019389
v -0.026320 -0.010756 0.033405
v -0.031915 -0.000374 0.035585
v -0.038342 0.017359 0.006997
v -0.036610 0.016121 0.019994
v -0.030415 0.012801 0.036763
v -0.038036 -0.014541 -0.002632
v -0.023742 -0.010011 0.045332
v -0.027533 -0.000341 0.046720
v -0.022734 0.009887 0.046508
v -0.030415 0.012801 0.036763
v -0.022734 0.009887 0.046508
v -0.036610 0.016121 0.019994
v -0.038342 0.017359 0.006997
v -0.038142 0.017449 -0.002315
v -0.038142 0.017449 -0.002315
v -0.040740 0.001288 -0.002562
v 0.008535 0.018659 0.064425
v 0.008958 0.018639 0.055434
v -0.000097 0.020169 0.055504
v -0.000458 0.018541 0.063930
v -0.007618 0.016911 0.054881
v -0.007283 0.016028 0.063643
v 0.008826 0.019793 0.075524
v -0.000292 0.020416 0.075372
v -0.008355 0.018379 0.075421
v 0.014959 0.012301 0.054584
v -0.013935 0.013729 0.054583
v -0.014487 0.014700 0.063672
v -0.016520 0.016342 0.075488
v -0.008804 0.018819 0.086530
v -0.016351 0.015574 0.086375
v -0.000390 0.020315 0.086651
v 0.008186 0.018771 0.086737
v 0.014249 0.012687 0.086770
v 0.015082 0.013206 0.075576
v 0.014602 0.012350 0.064015
v -0.019915 0.007877 0.107437
v -0.019673 0.007699 0.095337
v -0.020321 -0.001226 0.095190
v -0.020055 -0.001512 0.107416
v -0.018893 -0.010527 0.095102
v -0.017819 -0.011202 0.107031
v -0.021486 0.008723 0.119740
v -0.021707 -0.001850 0.119382
v -0.018772 -0.012822 0.119020
v -0.015929 0.014979 0.095370
v -0.020965 0.008321 0.086253
v -0.019673 0.007699 0.095337
v -0.020965 0.008321 0.086253
v -0.021565 -0.000905 0.085989
v -0.020733 -0.010369 0.085891
v -0.017652 -0.020183 0.085873
v -0.014872 -0.019334 0.095178
v -0.012029 -0.018825 0.107011
v -0.012117 -0.021505 0.118997
v -0.020531 -0.014715 0.128844
v -0.013118 -0.025168 0.128655
v -0.024708 -0.002123 0.129105
v -0.024710 0.010141 0.129501
v -0.019335 0.018520 0.130450
v -0.017038 0.016314 0.120489
v -0.021486 0.008723 0.119740
v -0.024710 0.010141 0.129501
v -0.016119 0.015266 0.107705
v -0.019915 0.007877 0.107437
v -0.022719 0.010224 0.064427
v -0.021715 0.009943 0.055015
v -0.026494 -0.000025 0.055346
v -0.025803 -0.000341 0.064927
v -0.022903 -0.009768 0.054644
v -0.021954 -0.009486 0.063975
v -0.023172 0.009616 0.075743
v -0.024135 -0.000636 0.075613
v -0.021519 -0.009884 0.074988
v -0.021715 0.009943 0.055015
v -0.016520 -0.016371 0.053808
v -0.016766 -0.017093 0.063197
v -0.018002 -0.019232 0.074519
v -0.023172 0.009616 0.075743
v -0.022719 0.010224 0.064427
v 0.021297 -0.009193 0.062565
v 0.019962 -0.008648 0.052804
v 0.019587 -0.000522 0.053239
v 0.020562 -0.000337 0.063336
v 0.017543 0.005594 0.053814
v 0.017513 0.005753 0.063764
v 0.023433 -0.010406 0.074916
v 0.021964 -0.000962 0.075258
v 0.018220 0.005923 0.075497
v 0.014806 -0.016017 0.053014
v 0.018427 0.005786 0.086527
v 0.022253 -0.001492 0.086062
v 0.023019 -0.010773 0.086105
v 0.018534 -0.019262 0.086078
v 0.017567 -0.018240 0.074609
v 0.015499 -0.016514 0.062828
v -0.008575 -0.021984 0.062888
v -0.008588 -0.020971 0.053479
v -0.000124 -0.020450 0.053423
v 0.000215 -0.021492 0.063012
v 0.007212 -0.018408 0.053358
v 0.007772 -0.019241 0.063023
v -0.008905 -0.024531 0.073929
v 0.000909 -0.024188 0.074049
v 0.009232 -0.021469 0.074410
v 0.010704 -0.023932 0.085455
v 0.001733 -0.026920 0.085105
v -0.008687 -0.026424 0.085341
v 0.021879 -0.011748 0.106867
v 0.021854 -0.011048 0.095185
v 0.022063 -0.002020 0.095161
v 0.023288 -0.002813 0.106916
v 0.019350 0.006272 0.095366
v 0.020942 0.006408 0.106974
v 0.025009 -0.013831 0.119251
v 0.026382 -0.003694 0.119209
v 0.023767 0.006839 0.119416
v 0.017380 -0.018290 0.095363
v 0.014155 0.012750 0.095755
v 0.015444 0.013724 0.107228
v 0.017795 0.015689 0.119559
v 0.026704 0.007460 0.129408
v 0.020063 0.017826 0.129553
v 0.030015 -0.004522 0.129092
v 0.029236 -0.016364 0.128909
v 0.023481 -0.024813 0.129487
v 0.019918 -0.021072 0.119766
v 0.017166 -0.018189 0.107242
v -0.004427 -0.023188 0.106923
v -0.006568 -0.024186 0.095017
v 0.002508 -0.024809 0.094713
v 0.003657 -0.024296 0.107263
v 0.010573 -0.022521 0.095091
v 0.011044 -0.022226 0.107429
v -0.003599 -0.026563 0.119086
v 0.005371 -0.027844 0.119512
v 0.013297 -0.025548 0.119931
v 0.016187 -0.030062 0.129509
v 0.007096 -0.032797 0.129051
v -0.003372 -0.031614 0.128565
v 0.008107 0.019205 0.107240
v 0.007652 0.018074 0.095687
v -0.000728 0.020116 0.095585
v -0.000941 0.021229 0.107331
v -0.009092 0.019029 0.095451
v -0.009677 0.019990 0.107329
v 0.008922 0.021383 0.119777
v -0.001275 0.022685 0.120227
v -0.010407 0.020977 0.120494
v -0.011957 0.023471 0.130592
v -0.001871 0.025388 0.130315
v 0.009701 0.024147 0.129825
v -0.027995 0.063645 0.107912
v -0.041141 0.059036 0.109625
v -0.042671 0.062869 0.109626
v -0.029326 0.069058 0.107306
v -0.029326 0.069058 0.107306
v -0.042671 0.062869 0.109626
v -0.046591 0.070512 0.114321
v -0.031848 0.078081 0.111661
v -0.044926 0.071807 0.122677
v -0.029860 0.079445 0.120164
v -0.036022 0.063792 0.130520
v -0.022369 0.070000 0.128538
v -0.025595 0.052381 0.135370
v -0.014096 0.056876 0.134083
v -0.018302 0.043363 0.139517
v -0.008485 0.046516 0.138795
v -0.013593 0.066319 0.106017
v -0.014691 0.072848 0.104862
v -0.014691 0.072848 0.104862
v -0.015629 0.082791 0.108817
v -0.013361 0.084052 0.117492
v -0.007697 0.073236 0.126516
v -0.001910 0.058991 0.132756
v 0.002028 0.048013 0.137875
v 0.001310 0.067382 0.104057
v 0.000689 0.074379 0.102599
v 0.000689 0.074379 0.102599
v 0.001459 0.084644 0.106223
v 0.003960 0.085907 0.114920
v 0.007262 0.074005 0.124521
v 0.010252 0.059192 0.131281
v 0.012515 0.048105 0.136631
v 0.016289 0.066903 0.102062
v 0.016230 0.073592 0.100662
v 0.016230 0.073592 0.100662
v 0.018755 0.083625 0.104068
v 0.021454 0.084852 0.112632
v 0.022212 0.072907 0.122466
v 0.022084 0.057895 0.129528
v 0.022600 0.046988 0.134972
v 0.030896 0.064767 0.100466
v 0.031423 0.070420 0.099441
v 0.031423 0.070420 0.099441
v 0.035628 0.079683 0.102634
v 0.038473 0.080798 0.110931
v 0.036983 0.069756 0.120729
v 0.033630 0.055269 0.127790
v 0.032147 0.044879 0.133087
v 0.044136 0.060788 0.098476
v 0.045306 0.064816 0.097944
v 0.045306 0.064816 0.097944
v 0.051016 0.072771 0.100870
v 0.053989 0.073718 0.108900
v 0.050593 0.063958 0.118764
v 0.044580 0.051087 0.125857
v 0.040926 0.041785 0.131071
v -0.036659 0.049203 0.111839
v -0.046844 0.047645 0.112112
v -0.051847 0.051846 0.111149
v -0.054071 0.053975 0.111562
v -0.054071 0.053975 0.111562
v -0.059146 0.059941 0.116465
v -0.057775 0.061020 0.124758
v -0.047633 0.054376 0.132310
v -0.035268 0.044977 0.136698
v -0.026221 0.037937 0.140293
v -0.020560 0.033210 0.142056
v -0.013827 0.034764 0.142091
v -0.004809 0.036255 0.141888
v 0.004672 0.037105 0.141286
v 0.014026 0.037157 0.140192
v 0.022954 0.036390 0.138554
v 0.031310 0.035086 0.136462
v 0.038924 0.033558 0.134174
v 0.048314 0.036986 0.129429
v 0.044617 0.032285 0.132305
v 0.053941 0.044437 0.124104
v 0.062250 0.055277 0.116759
v 0.067281 0.063579 0.106741
v 0.064137 0.062819 0.098813
v 0.057189 0.056503 0.096147
v 0.055068 0.054192 0.096561
v 0.057189 0.056503 0.096147
v 0.051305 0.049491 0.099222
v 0.041877 0.050281 0.102028
v 0.029539 0.051049 0.105031
v 0.016503 0.051580 0.107249
v 0.003457 0.051967 0.109076
v -0.009858 0.051731 0.110392
v -0.023438 0.050766 0.111273
v 0.066999 0.029977 0.096013
v 0.062203 0.043293 0.095918
v 0.065946 0.044800 0.094910
v 0.072170 0.031086 0.094152
v 0.072170 0.031086 0.094152
v 0.065946 0.044800 0.094910
v 0.074506 0.049917 0.097137
v 0.082026 0.034727 0.095963
v 0.077837 0.050491 0.105014
v 0.085550 0.035106 0.103870
v 0.071337 0.043755 0.115386
v 0.077759 0.030185 0.114632
v 0.060961 0.035125 0.123162
v 0.065699 0.024042 0.122856
v 0.053468 0.029526 0.128939
v 0.056909 0.020237 0.129010
v 0.069979 0.015345 0.096131
v 0.076042 0.016048 0.093639
v 0.076042 0.016048 0.093639
v 0.086692 0.018025 0.095174
v 0.090362 0.018192 0.103142
v 0.081629 0.015409 0.114211
v 0.068534 0.012035 0.122758
v 0.059075 0.009983 0.129150
v 0.071173 0.000159 0.095818
v 0.077522 0.000346 0.093145
v 0.077522 0.000346 0.093145
v 0.088484 0.000557 0.094619
v 0.092225 0.000494 0.102657
v 0.083096 0.000092 0.113881
v 0.069641 -0.000358 0.122605
v 0.059980 -0.000686 0.129106
v 0.070519 -0.015059 0.095063
v 0.076621 -0.015407 0.092605
v 0.076621 -0.015407 0.092605
v 0.087381 -0.016975 0.094180
v 0.091085 -0.017271 0.102216
v 0.082261 -0.015272 0.113430
v 0.069059 -0.012783 0.122176
v 0.059539 -0.011378 0.128692
v 0.068051 -0.029786 0.093886
v 0.073280 -0.030601 0.092038
v 0.073280 -0.030601 0.092038
v 0.083326 -0.033874 0.093838
v 0.086909 -0.034387 0.101861
v 0.078959 -0.030204 0.112948
v 0.066703 -0.024895 0.121604
v 0.057804 -0.021702 0.128055
v 0.063737 -0.043280 0.092870
v 0.067549 -0.044585 0.091830
v 0.067549 -0.044585 0.091830
v 0.076364 -0.049404 0.093975
v 0.079774 -0.050119 0.101998
v 0.073056 -0.044053 0.112852
v 0.062404 -0.036174 0.121265
v 0.054746 -0.031121 0.127497
v 0.053058 0.039496 0.100609
v 0.046365 0.026138 0.132899
v 0.048292 0.017728 0.133540
v 0.049749 0.008537 0.133956
v 0.050434 -0.000982 0.133982
v 0.050163 -0.010513 0.133550
v 0.049107 -0.019736 0.132738
v 0.047537 -0.028192 0.131703
v 0.049908 -0.038810 0.127618
v 0.046045 -0.034382 0.130803
v 0.055773 -0.045808 0.121724
v 0.064445 -0.055999 0.113605
v 0.069755 -0.063704 0.103007
v 0.066521 -0.062793 0.094929
v 0.059266 -0.056692 0.092405
v 0.057044 -0.054492 0.092906
v 0.059266 -0.056692 0.092405
v 0.053096 -0.050059 0.095805
v 0.054458 -0.040057 0.097774
v 0.055928 -0.027156 0.100231
v 0.056948 -0.013770 0.102097
v 0.057203 -0.000275 0.103007
v 0.056477 0.013214 0.103072
v 0.054989 0.026597 0.102171
v 0.033541 -0.066247 0.096959
v 0.046464 -0.061623 0.094707
v 0.047811 -0.065574 0.094019
v 0.034314 -0.071831 0.095701
v 0.034314 -0.071831 0.095701
v 0.047811 -0.065574 0.094019
v 0.053892 -0.073374 0.096707
v 0.038939 -0.081012 0.098561
v 0.056959 -0.074482 0.104859
v 0.041876 -0.082302 0.106946
v 0.053210 -0.065245 0.115339
v 0.039976 -0.071700 0.117413
v 0.046736 -0.052917 0.123270
v 0.036069 -0.057642 0.125317
v 0.042750 -0.043981 0.129092
v 0.034162 -0.047526 0.131127
v 0.019198 -0.069079 0.098988
v 0.019417 -0.075708 0.097260
v 0.019417 -0.075708 0.097260
v 0.022378 -0.085737 0.100237
v 0.025168 -0.087155 0.108856
v 0.025470 -0.075556 0.119389
v 0.024732 -0.060831 0.127215
v 0.024767 -0.050116 0.133083
v 0.004183 -0.070277 0.100696
v 0.003836 -0.077235 0.098836
v 0.003836 -0.077235 0.098836
v 0.005049 -0.087580 0.102004
v 0.007656 -0.089048 0.110802
v 0.010529 -0.077373 0.121195
v 0.012949 -0.062703 0.128828
v 0.014749 -0.051730 0.134710
v -0.010856 -0.069930 0.102326
v -0.011706 -0.076452 0.100768
v -0.011706 -0.076452 0.100768
v -0.012216 -0.086562 0.104265
v -0.009830 -0.088038 0.113082
v -0.004525 -0.077324 0.122942
v 0.000748 -0.063082 0.130155
v 0.004256 -0.052138 0.135904
v -0.025421 -0.067953 0.104108
v -0.026539 -0.073391 0.103190
v -0.026539 -0.073391 0.103190
v -0.028664 -0.082666 0.107153
v -0.026554 -0.084250 0.115788
v -0.019371 -0.074803 0.124920
v -0.011557 -0.061547 0.131423
v -0.006334 -0.051133 0.136801
v -0.038728 -0.063986 0.106091
v -0.040103 -0.067878 0.105885
v -0.040103 -0.067878 0.105885
v -0.043670 -0.075849 0.110288
v -0.041898 -0.077373 0.118744
v -0.033272 -0.069271 0.127179
v -0.023255 -0.057605 0.132837
v -0.016296 -0.048438 0.137584
v 0.043780 -0.051361 0.098797
v 0.040427 -0.035969 0.132652
v 0.032898 -0.037909 0.134901
v 0.024620 -0.039649 0.136966
v 0.015755 -0.040863 0.138631
v 0.006416 -0.041257 0.139747
v -0.003096 -0.040842 0.140360
v -0.012183 -0.039752 0.140575
v -0.024452 -0.043393 0.138555
v -0.018989 -0.038493 0.140561
v -0.033227 -0.050682 0.134514
v -0.045230 -0.060442 0.129531
v -0.055117 -0.067242 0.121562
v -0.056573 -0.065923 0.113205
v -0.051789 -0.059569 0.108491
v -0.049660 -0.057332 0.108168
v -0.051789 -0.059569 0.108491
v -0.044836 -0.052955 0.109342
v -0.034617 -0.054058 0.108930
v -0.021323 -0.055023 0.108373
v -0.007643 -0.055368 0.107710
v 0.005754 -0.054980 0.106687
v 0.018803 -0.053962 0.105008
v 0.031636 -0.052779 0.102256
v -0.060869 -0.033040 0.111375
v -0.056498 -0.046419 0.109983
v -0.060396 -0.047824 0.110305
v -0.066533 -0.034034 0.111266
v -0.066533 -0.034034 0.111266
v -0.060396 -0.047824 0.110305
v -0.066849 -0.052975 0.115212
v -0.074395 -0.037720 0.116165
v -0.065614 -0.054005 0.123646
v -0.073239 -0.038414 0.124809
v -0.054390 -0.048474 0.131498
v -0.060676 -0.034344 0.132775
v -0.040415 -0.040733 0.136248
v -0.045028 -0.028912 0.137615
v -0.029678 -0.035345 0.140081
v -0.032902 -0.025387 0.141541
v -0.063544 -0.018336 0.112228
v -0.070377 -0.018958 0.111761
v -0.070377 -0.018958 0.111761
v -0.079138 -0.021003 0.116635
v -0.077987 -0.021401 0.125492
v -0.064385 -0.019153 0.133630
v -0.047716 -0.016261 0.138625
v -0.034843 -0.014425 0.142658
v -0.064689 -0.003100 0.112674
v -0.071902 -0.003246 0.112074
v -0.071902 -0.003246 0.112074
v -0.080997 -0.003533 0.116963
v -0.079846 -0.003670 0.125925
v -0.065815 -0.003513 0.134128
v -0.048757 -0.003233 0.139178
v -0.035654 -0.003021 0.143238
v -0.064205 0.012175 0.112887
v -0.071062 0.012515 0.112432
v -0.071062 0.012515 0.112432
v -0.079900 0.014000 0.117382
v -0.078760 0.014128 0.126250
v -0.065067 0.012181 0.134298
v -0.048284 0.009838 0.139181
v -0.035340 0.008419 0.143146
v -0.062126 0.026999 0.112829
v -0.067843 0.027749 0.112704
v -0.067843 0.027749 0.112704
v -0.075877 0.030912 0.117668
v -0.074753 0.031342 0.126313
v -0.062016 0.027538 0.134119
v -0.046143 0.022621 0.138738
v -0.033878 0.019487 0.142502
v -0.058284 0.040593 0.112211
v -0.062249 0.041814 0.112554
v -0.062249 0.041814 0.112554
v -0.068939 0.046500 0.117594
v -0.067760 0.047278 0.126009
v -0.056310 0.041961 0.133593
v -0.042031 0.034670 0.137943
v -0.031083 0.029620 0.141497
v -0.045695 -0.043114 0.111332
v -0.020268 -0.031906 0.141983
v -0.021676 -0.022887 0.143571
v -0.022759 -0.013022 0.144777
v -0.023316 -0.002792 0.145366
v -0.023205 0.007466 0.145214
v -0.022553 0.017406 0.144431
v -0.021539 0.026528 0.143235
v -0.047336 0.037713 0.113463
v -0.047717 0.024641 0.114955
v -0.047971 0.010971 0.115752
v -0.047959 -0.002792 0.115748
v -0.047392 -0.016531 0.115098
v -0.046577 -0.030136 0.113606
v 0.027107 0.033255 0.109279
v 0.038880 0.034863 0.105136
v 0.038758 0.022058 0.107960
v 0.025306 0.018460 0.112851
v 0.039447 0.010480 0.109495
v 0.026308 0.008591 0.114864
v 0.040046 -0.000769 0.109701
v 0.026879 -0.001157 0.115318
v 0.039880 -0.012015 0.108821
v 0.026723 -0.010895 0.114418
v 0.039615 -0.023544 0.106521
v 0.026129 -0.020718 0.111910
v 0.040207 -0.036216 0.102864
v 0.028526 -0.035279 0.107569
v 0.016415 0.033100 0.112115
v 0.016568 0.018525 0.116163
v 0.016944 0.007943 0.118211
v 0.017415 -0.001423 0.118660
v 0.017351 -0.010777 0.117811
v 0.017467 -0.021284 0.115423
v 0.017961 -0.035695 0.110814
v 0.005753 0.033456 0.113826
v 0.007447 0.018696 0.117953
v 0.008280 0.007937 0.120006
v 0.008677 -0.001647 0.120541
v 0.008700 -0.011212 0.119607
v 0.008384 -0.021917 0.117268
v 0.007331 -0.036576 0.112514
v -0.005456 0.033341 0.114605
v -0.002299 0.018486 0.118454
v -0.000964 0.007704 0.120522
v -0.000676 -0.001859 0.121032
v -0.000539 -0.011400 0.120145
v -0.001368 -0.022149 0.117747
v -0.003913 -0.036975 0.113145
v -0.017608 0.033314 0.114400
v -0.012846 0.018195 0.117511
v -0.012033 0.008003 0.119850
v -0.011773 -0.002089 0.120406
v -0.011586 -0.012156 0.119449
v -0.011938 -0.022282 0.116739
v -0.016108 -0.037467 0.112749
v -0.031345 0.034183 0.113516
v -0.028864 0.021188 0.116154
v -0.027939 0.009243 0.117884
v -0.027751 -0.002397 0.118203
v -0.027440 -0.014013 0.117361
v -0.027856 -0.025915 0.115088
v -0.029845 -0.038897 0.111643
v 0.032438 -0.028466 0.137430
v 0.040052 -0.027680 0.134870
v 0.040558 -0.019077 0.136331
v 0.032613 -0.019411 0.139303
v 0.041163 -0.010249 0.137360
v 0.033112 -0.010519 0.140831
v 0.041349 -0.001249 0.137867
v 0.033276 -0.001492 0.141567
v 0.040772 0.007745 0.137744
v 0.032719 0.007539 0.141217
v 0.039782 0.016568 0.137092
v 0.031832 0.016450 0.140068
v 0.038902 0.025187 0.135999
v 0.031262 0.025548 0.138583
v 0.024554 -0.029582 0.139635
v 0.024824 -0.020223 0.142002
v 0.025371 -0.011098 0.144270
v 0.025531 -0.001729 0.145374
v 0.024963 0.007657 0.144670
v 0.024017 0.016824 0.142792
v 0.023339 0.026240 0.140827
v 0.016204 -0.030487 0.141339
v 0.016553 -0.020922 0.143955
v 0.016977 -0.011592 0.146638
v 0.017057 -0.001961 0.147983
v 0.016557 0.007699 0.147050
v 0.015726 0.017091 0.144766
v 0.014959 0.026720 0.142559
v 0.007382 -0.030791 0.142353
v 0.007738 -0.021164 0.144772
v 0.007846 -0.011801 0.147179
v 0.007747 -0.002170 0.148356
v 0.007426 0.007491 0.147591
v 0.006909 0.016920 0.145585
v 0.006132 0.026603 0.143574
v -0.001723 -0.030733 0.142773
v -0.001455 -0.021198 0.144731
v -0.001665 -0.011861 0.146457
v -0.001942 -0.002362 0.147303
v -0.002079 0.007164 0.146863
v -0.002277 0.016556 0.145537
v -0.002965 0.026135 0.143974
v -0.010965 -0.030782 0.142731
v -0.011153 -0.021597 0.144406
v -0.011679 -0.012182 0.145687
v -0.012084 -0.002565 0.146322
v -0.012099 0.007077 0.146098
v -0.011983 0.016545 0.145220
v -0.012199 0.025783 0.143928
vt 0.401197 0.082890
vt 0.388519 0.088150
vt 0.393869 0.099151
vt 0.405601 0.094319
vt 0.401193 0.113991
vt 0.411507 0.109968
vt 0.413732 0.078558
vt 0.417479 0.090260
vt 0.422826 0.106583
vt 0.384850 0.080229
vt 0.372630 0.087293
vt 0.376588 0.094741
vt 0.382441 0.105061
vt 0.390934 0.119141
vt 0.398176 0.129885
vt 0.406602 0.126627
vt 0.416201 0.123842
vt 0.427459 0.121126
vt 0.433783 0.103279
vt 0.438352 0.118345
vt 0.428722 0.086898
vt 0.425466 0.075464
vt 0.422853 0.067238
vt 0.410628 0.070237
vt 0.397808 0.074640
vt 0.450617 0.072765
vt 0.437366 0.073941
vt 0.440072 0.085177
vt 0.452342 0.084177
vt 0.443990 0.101201
vt 0.454236 0.100336
vt 0.464760 0.072063
vt 0.465396 0.083478
vt 0.466157 0.099968
vt 0.435474 0.065922
vt 0.447460 0.116193
vt 0.456270 0.115310
vt 0.467198 0.114572
vt 0.478557 0.099713
vt 0.479412 0.113942
vt 0.478485 0.082896
vt 0.478681 0.071705
vt 0.478733 0.063435
vt 0.464256 0.064000
vt 0.449526 0.064717
vt 0.506211 0.071440
vt 0.492365 0.071295
vt 0.491451 0.082622
vt 0.504556 0.082840
vt 0.490426 0.098969
vt 0.502302 0.099430
vt 0.519725 0.072141
vt 0.517634 0.083604
vt 0.514691 0.100633
vt 0.493027 0.063084
vt 0.490466 0.113136
vt 0.500606 0.113462
vt 0.512225 0.114655
vt 0.526665 0.101804
vt 0.523968 0.115484
vt 0.529919 0.085121
vt 0.532568 0.073485
vt 0.534606 0.065395
vt 0.521279 0.063815
vt 0.507343 0.063132
vt 0.559423 0.081192
vt 0.545597 0.076726
vt 0.542125 0.088237
vt 0.555065 0.092419
vt 0.537476 0.103894
vt 0.549021 0.107947
vt 0.573721 0.086387
vt 0.568719 0.097683
vt 0.560753 0.112626
vt 0.548140 0.068625
vt 0.534392 0.117019
vt 0.545720 0.120049
vt 0.556693 0.123504
vt 0.381147 0.126371
vt 0.390422 0.134576
vt 0.370629 0.112773
vt 0.364039 0.102242
vt 0.359725 0.094495
vt 0.576638 0.078247
vt 0.562345 0.073092
vt 0.430785 0.143481
vt 0.429700 0.132414
vt 0.418667 0.134536
vt 0.420029 0.144574
vt 0.409427 0.136602
vt 0.411992 0.145906
vt 0.432044 0.156332
vt 0.422312 0.157330
vt 0.413709 0.158454
vt 0.440520 0.130082
vt 0.402128 0.138649
vt 0.404603 0.147703
vt 0.405400 0.159675
vt 0.414473 0.169954
vt 0.406084 0.170291
vt 0.423475 0.169381
vt 0.433003 0.168658
vt 0.442701 0.168220
vt 0.442054 0.155482
vt 0.441339 0.141841
vt 0.550978 0.179683
vt 0.549635 0.168668
vt 0.541234 0.169018
vt 0.542144 0.181059
vt 0.531776 0.169567
vt 0.532015 0.182125
vt 0.553950 0.190654
vt 0.544204 0.192621
vt 0.533355 0.194523
vt 0.406513 0.179333
vt 0.397835 0.170939
vt 0.398425 0.179561
vt 0.549986 0.160238
vt 0.541242 0.159922
vt 0.531937 0.160058
vt 0.521953 0.160519
vt 0.521698 0.170357
vt 0.521662 0.183669
vt 0.522598 0.196884
vt 0.534727 0.204031
vt 0.523552 0.206844
vt 0.546452 0.201775
vt 0.557417 0.199474
vt 0.404285 0.214648
vt 0.405503 0.204552
vt 0.397171 0.202739
vt 0.395212 0.212299
vt 0.406362 0.191776
vt 0.398309 0.191043
vt 0.553239 0.140046
vt 0.555059 0.131414
vt 0.544144 0.129274
vt 0.542663 0.139037
vt 0.533069 0.127403
vt 0.532427 0.137675
vt 0.551432 0.150362
vt 0.541727 0.149608
vt 0.532121 0.149141
vt 0.394150 0.141760
vt 0.522514 0.125998
vt 0.522162 0.136979
vt 0.522089 0.149410
vt 0.396528 0.160969
vt 0.395771 0.150426
vt 0.469297 0.138632
vt 0.468345 0.125995
vt 0.457725 0.127176
vt 0.458381 0.139978
vt 0.449544 0.128452
vt 0.450083 0.140882
vt 0.470623 0.153454
vt 0.460026 0.154104
vt 0.451045 0.154767
vt 0.480364 0.125384
vt 0.451973 0.167484
vt 0.461343 0.166353
vt 0.471840 0.165653
vt 0.482202 0.165054
vt 0.481374 0.152467
vt 0.480895 0.138161
vt 0.511059 0.136875
vt 0.511206 0.125213
vt 0.500370 0.125210
vt 0.500500 0.137176
vt 0.490706 0.125427
vt 0.490961 0.137558
vt 0.511318 0.149606
vt 0.500836 0.150291
vt 0.491211 0.151223
vt 0.491739 0.163583
vt 0.501367 0.162244
vt 0.511539 0.161178
vt 0.475184 0.189807
vt 0.473265 0.176038
vt 0.462648 0.176866
vt 0.464571 0.190559
vt 0.452517 0.177757
vt 0.453754 0.191095
vt 0.476710 0.204476
vt 0.465939 0.204501
vt 0.454796 0.204741
vt 0.483181 0.175317
vt 0.442982 0.178540
vt 0.443585 0.191646
vt 0.444014 0.205067
vt 0.455336 0.214797
vt 0.444154 0.215024
vt 0.466714 0.214848
vt 0.477636 0.215343
vt 0.487264 0.215417
vt 0.486198 0.204242
vt 0.484714 0.189238
vt 0.511764 0.185237
vt 0.511495 0.171550
vt 0.501586 0.172656
vt 0.502390 0.187182
vt 0.492303 0.174200
vt 0.493405 0.188558
vt 0.512609 0.199319
vt 0.503328 0.201706
vt 0.494702 0.203426
vt 0.495700 0.214418
vt 0.504273 0.212492
vt 0.513470 0.209832
vt 0.433593 0.191749
vt 0.433379 0.178852
vt 0.423730 0.179099
vt 0.423657 0.191809
vt 0.414678 0.179275
vt 0.414450 0.191714
vt 0.433387 0.205150
vt 0.422986 0.205250
vt 0.413587 0.205186
vt 0.412648 0.215417
vt 0.422258 0.215395
vt 0.433072 0.215239
vt 0.589409 0.977336
vt 0.560145 0.970230
vt 0.557736 0.978676
vt 0.588059 0.989283
vt 0.167388 0.524904
vt 0.124357 0.544276
vt 0.138593 0.571320
vt 0.176011 0.554406
vt 0.151072 0.594591
vt 0.183623 0.580120
vt 0.168362 0.621424
vt 0.195846 0.611297
vt 0.185191 0.648256
vt 0.207522 0.641966
vt 0.196305 0.669107
vt 0.214509 0.665565
vt 0.620952 0.979996
vt 0.620687 0.994528
vt 0.213293 0.514777
vt 0.216406 0.545223
vt 0.219332 0.572099
vt 0.225139 0.607120
vt 0.230719 0.640321
vt 0.233592 0.665098
vt 0.653183 0.978975
vt 0.654320 0.994530
vt 0.259578 0.514500
vt 0.257819 0.543891
vt 0.256519 0.571503
vt 0.254771 0.608264
vt 0.253582 0.642271
vt 0.252438 0.666972
vt 0.685220 0.974482
vt 0.687586 0.989173
vt 0.305869 0.521129
vt 0.298842 0.551145
vt 0.293208 0.577924
vt 0.284067 0.613544
vt 0.275710 0.646877
vt 0.270644 0.670639
vt 0.715822 0.965999
vt 0.719034 0.978109
vt 0.350523 0.538849
vt 0.337795 0.567089
vt 0.327417 0.591861
vt 0.311930 0.623756
vt 0.297058 0.654101
vt 0.288006 0.675924
vt 0.743499 0.954247
vt 0.747270 0.962525
vt 0.390665 0.564433
vt 0.373089 0.589165
vt 0.358158 0.610696
vt 0.337243 0.637883
vt 0.317232 0.664058
vt 0.304136 0.682764
vt 0.566742 0.947324
vt 0.544986 0.946552
vt 0.535525 0.957117
vt 0.531121 0.962087
vt 0.085112 0.571972
vt 0.105536 0.595431
vt 0.123069 0.615257
vt 0.144426 0.637612
vt 0.165703 0.660316
vt 0.180943 0.677213
vt 0.190029 0.687673
vt 0.202144 0.686521
vt 0.218131 0.685979
vt 0.234743 0.686562
vt 0.251099 0.688285
vt 0.266928 0.691049
vt 0.282186 0.694455
vt 0.296527 0.698109
vt 0.317413 0.692637
vt 0.307502 0.701135
vt 0.334171 0.678217
vt 0.358898 0.656809
vt 0.384251 0.634490
vt 0.403327 0.616961
vt 0.426345 0.596468
vt 0.765775 0.937692
vt 0.770965 0.942068
vt 0.754414 0.927905
vt 0.733222 0.931333
vt 0.706243 0.935317
vt 0.678596 0.939324
vt 0.651194 0.943071
vt 0.623334 0.945796
vt 0.594777 0.947234
vt 0.784648 0.883527
vt 0.778269 0.912931
vt 0.787055 0.915261
vt 0.797111 0.884738
vt 0.472829 0.680554
vt 0.453797 0.636149
vt 0.427120 0.650649
vt 0.443096 0.689464
vt 0.404379 0.663710
vt 0.417795 0.697580
vt 0.374540 0.681126
vt 0.384118 0.708947
vt 0.345580 0.697176
vt 0.351788 0.719007
vt 0.325142 0.707311
vt 0.328913 0.724898
vt 0.786925 0.851890
vt 0.801834 0.851935
vt 0.482465 0.728865
vt 0.450985 0.731739
vt 0.424119 0.734442
vt 0.388114 0.738566
vt 0.354059 0.742020
vt 0.330121 0.743780
vt 0.785988 0.819588
vt 0.801539 0.818252
vt 0.482045 0.778704
vt 0.450586 0.775355
vt 0.423160 0.772276
vt 0.387115 0.768517
vt 0.353168 0.765216
vt 0.329231 0.762979
vt 0.781774 0.787497
vt 0.796416 0.784933
vt 0.471274 0.826717
vt 0.441839 0.817677
vt 0.416526 0.809207
vt 0.382434 0.797949
vt 0.349779 0.788112
vt 0.326618 0.781974
vt 0.774482 0.756485
vt 0.786532 0.753221
vt 0.452128 0.869675
vt 0.426792 0.856516
vt 0.403946 0.843539
vt 0.373360 0.826045
vt 0.343525 0.810221
vt 0.322100 0.800241
vt 0.763437 0.728372
vt 0.771706 0.724632
vt 0.428241 0.908558
vt 0.405245 0.890649
vt 0.385519 0.873889
vt 0.359389 0.851471
vt 0.333743 0.830484
vt 0.315383 0.816789
vt 0.754214 0.906157
vt 0.308689 0.712622
vt 0.309595 0.728006
vt 0.309652 0.744433
vt 0.308692 0.761112
vt 0.306671 0.777666
vt 0.303717 0.793746
vt 0.300168 0.808643
vt 0.305323 0.829784
vt 0.297043 0.819679
vt 0.319381 0.847015
vt 0.340070 0.872500
vt 0.361409 0.899121
vt 0.377294 0.919075
vt 0.396451 0.942584
vt 0.747039 0.706027
vt 0.751418 0.700837
vt 0.737460 0.717612
vt 0.740843 0.739220
vt 0.744415 0.766875
vt 0.747591 0.794926
vt 0.750254 0.822720
vt 0.752012 0.850521
vt 0.753314 0.878533
vt 0.692934 0.686982
vt 0.722273 0.693587
vt 0.724561 0.684794
vt 0.694058 0.674510
vt 0.313152 0.986254
vt 0.356849 0.968208
vt 0.343489 0.941192
vt 0.305114 0.956337
vt 0.331633 0.917080
vt 0.298544 0.929965
vt 0.315604 0.887067
vt 0.288295 0.896169
vt 0.300378 0.857798
vt 0.278892 0.863679
vt 0.290651 0.837088
vt 0.273684 0.840872
vt 0.661306 0.684165
vt 0.661232 0.669226
vt 0.266251 0.995860
vt 0.263994 0.964789
vt 0.262719 0.937138
vt 0.259406 0.900513
vt 0.256864 0.866758
vt 0.255822 0.842823
vt 0.628884 0.684709
vt 0.627457 0.669066
vt 0.218624 0.995860
vt 0.222001 0.965515
vt 0.225668 0.937974
vt 0.230121 0.901277
vt 0.234571 0.867678
vt 0.237526 0.843373
vt 0.596837 0.688579
vt 0.594197 0.674190
vt 0.173745 0.986104
vt 0.181562 0.958289
vt 0.189333 0.931999
vt 0.201005 0.898029
vt 0.211969 0.866052
vt 0.218874 0.842167
vt 0.566119 0.696125
vt 0.562839 0.684515
vt 0.131468 0.969850
vt 0.144191 0.942919
vt 0.155823 0.918670
vt 0.173015 0.889512
vt 0.189561 0.860895
vt 0.200324 0.838707
vt 0.538468 0.707933
vt 0.534697 0.699991
vt 0.092996 0.944603
vt 0.110783 0.920490
vt 0.126478 0.899325
vt 0.147740 0.875255
vt 0.168718 0.851260
vt 0.183085 0.832400
vt 0.715856 0.717975
vt 0.285787 0.820712
vt 0.271145 0.821803
vt 0.255657 0.822511
vt 0.239737 0.822506
vt 0.223496 0.821467
vt 0.207174 0.819343
vt 0.191613 0.816271
vt 0.169329 0.822061
vt 0.179914 0.813234
vt 0.151595 0.836338
vt 0.126867 0.855489
vt 0.102445 0.874719
vt 0.082860 0.891635
vt 0.059432 0.911618
vt 0.516417 0.725005
vt 0.511237 0.720850
vt 0.527451 0.733967
vt 0.548758 0.729668
vt 0.576467 0.725308
vt 0.604953 0.722344
vt 0.632905 0.720807
vt 0.660474 0.720171
vt 0.688405 0.718980
vt 0.497186 0.779475
vt 0.503892 0.749975
vt 0.495259 0.747889
vt 0.484973 0.778471
vt 0.014386 0.829070
vt 0.033312 0.872318
vt 0.060102 0.858153
vt 0.043738 0.820519
vt 0.083887 0.845804
vt 0.069681 0.813428
vt 0.111788 0.830866
vt 0.101775 0.803217
vt 0.140126 0.816458
vt 0.133568 0.793918
vt 0.161442 0.806523
vt 0.157483 0.788147
vt 0.494427 0.811238
vt 0.479760 0.811256
vt 0.004602 0.782984
vt 0.034758 0.780175
vt 0.061895 0.777921
vt 0.096886 0.773748
vt 0.130793 0.770289
vt 0.156043 0.768445
vt 0.495143 0.843699
vt 0.479760 0.844932
vt 0.004580 0.736950
vt 0.033561 0.739065
vt 0.060796 0.741053
vt 0.096893 0.743726
vt 0.131241 0.746347
vt 0.156710 0.748337
vt 0.499609 0.875850
vt 0.485125 0.878173
vt 0.011286 0.691432
vt 0.040713 0.698557
vt 0.067267 0.704698
vt 0.101361 0.713984
vt 0.134477 0.722583
vt 0.159208 0.728349
vt 0.507541 0.906704
vt 0.495618 0.909671
vt 0.027791 0.647348
vt 0.055509 0.659941
vt 0.080141 0.670534
vt 0.110661 0.685403
vt 0.140914 0.699570
vt 0.163747 0.709045
vt 0.519017 0.934648
vt 0.510840 0.938131
vt 0.052999 0.607424
vt 0.077630 0.625318
vt 0.099133 0.640375
vt 0.125021 0.659354
vt 0.151041 0.678211
vt 0.170625 0.691436
vt 0.527481 0.755522
vt 0.178755 0.801134
vt 0.177846 0.784952
vt 0.177727 0.767670
vt 0.178602 0.750081
vt 0.180549 0.732558
vt 0.183439 0.715461
vt 0.186949 0.699549
vt 0.541452 0.925426
vt 0.537694 0.897795
vt 0.534221 0.869306
vt 0.531299 0.840810
vt 0.529573 0.812211
vt 0.528365 0.783510
vt 0.694148 0.898079
vt 0.721206 0.899540
vt 0.715363 0.872606
vt 0.684570 0.867831
vt 0.712438 0.848787
vt 0.682289 0.847607
vt 0.710771 0.826084
vt 0.680722 0.828621
vt 0.708743 0.803382
vt 0.679136 0.809648
vt 0.707821 0.779259
vt 0.678130 0.789313
vt 0.709274 0.751521
vt 0.682618 0.757896
vt 0.671012 0.899466
vt 0.665209 0.868903
vt 0.662168 0.847994
vt 0.660713 0.830282
vt 0.659239 0.812586
vt 0.658785 0.791601
vt 0.659510 0.760713
vt 0.649064 0.902437
vt 0.646930 0.870853
vt 0.645202 0.849578
vt 0.643799 0.831678
vt 0.642258 0.813797
vt 0.640515 0.792723
vt 0.637482 0.761383
vt 0.626334 0.905033
vt 0.628030 0.872910
vt 0.627775 0.851213
vt 0.626317 0.833116
vt 0.624822 0.815045
vt 0.621621 0.793752
vt 0.614685 0.762370
vt 0.601756 0.908556
vt 0.607266 0.875714
vt 0.606661 0.854502
vt 0.605164 0.834849
vt 0.603483 0.815234
vt 0.600695 0.794298
vt 0.589829 0.762688
vt 0.573848 0.914369
vt 0.575775 0.886020
vt 0.575164 0.861014
vt 0.573123 0.837449
vt 0.571332 0.813869
vt 0.567901 0.789095
vt 0.561268 0.761256
vt 0.270761 0.804482
vt 0.285332 0.805330
vt 0.286881 0.790127
vt 0.271648 0.788485
vt 0.288852 0.774873
vt 0.273023 0.773158
vt 0.290509 0.759495
vt 0.274485 0.758090
vt 0.291569 0.744040
vt 0.275642 0.742982
vt 0.292292 0.728615
vt 0.276931 0.727591
vt 0.293414 0.713278
vt 0.278815 0.711586
vt 0.256159 0.804259
vt 0.257056 0.787639
vt 0.258155 0.771918
vt 0.259282 0.756779
vt 0.260749 0.741652
vt 0.262345 0.725922
vt 0.264295 0.709298
vt 0.241341 0.803866
vt 0.242573 0.786895
vt 0.243759 0.770733
vt 0.244956 0.755559
vt 0.246330 0.740381
vt 0.247884 0.724196
vt 0.249529 0.707169
vt 0.226222 0.802812
vt 0.227848 0.785872
vt 0.229176 0.769788
vt 0.230516 0.754342
vt 0.231765 0.738870
vt 0.233135 0.722738
vt 0.234351 0.705670
vt 0.210783 0.801394
vt 0.212529 0.784776
vt 0.213613 0.768794
vt 0.214738 0.753028
vt 0.216220 0.737274
vt 0.217781 0.721280
vt 0.218790 0.704504
vt 0.195012 0.800248
vt 0.196102 0.784142
vt 0.196768 0.767920
vt 0.197740 0.751631
vt 0.199423 0.735382
vt 0.201403 0.719215
vt 0.202945 0.703055
vn 0.0260 0.9927 0.1180
vn -0.2502 0.9592 0.1316
vn -0.2277 0.9304 0.2871
vn 0.0226 0.9548 0.2965
vn -0.2080 0.8667 0.4534
vn 0.0216 0.9037 0.4275
vn 0.3514 0.9259 0.1384
vn 0.3830 0.8630 0.3294
vn 0.4266 0.7940 0.4331
vn -0.2472 0.9680 0.0425
vn -0.6077 0.7930 0.0427
vn -0.5939 0.7938 0.1311
vn -0.5466 0.7868 0.2867
vn -0.4774 0.7164 0.5088
vn -0.4678 0.7411 0.4816
vn -0.2980 0.8448 0.4445
vn -0.0072 0.9302 0.3669
vn 0.4779 0.8184 0.3191
vn 0.7776 0.4714 0.4161
vn 0.8492 0.4678 0.2450
vn 0.6866 0.5986 0.4126
vn 0.6610 0.7240 0.1971
vn 0.6413 0.7668 0.0273
vn 0.3280 0.9446 0.0106
vn 0.0251 0.9995 0.0186
vn 0.9665 -0.0354 0.2543
vn 0.8978 0.3568 0.2583
vn 0.8309 0.2696 0.4867
vn 0.8841 0.0100 0.4673
vn 0.8845 0.2200 0.4114
vn 0.9194 0.0891 0.3831
vn 0.9132 -0.3492 0.2101
vn 0.8752 -0.2705 0.4010
vn 0.9077 -0.2112 0.3627
vn 0.9140 0.4021 0.0551
vn 0.9488 0.2592 0.1806
vn 0.9793 0.1461 0.1403
vn 0.9609 -0.2357 0.1455
vn 0.6477 -0.6470 0.4023
vn 0.6203 -0.7606 0.1915
vn 0.6727 -0.6392 0.3727
vn 0.7027 -0.6876 0.1830
vn 0.7067 -0.7061 0.0447
vn 0.9258 -0.3719 0.0679
vn 0.9965 -0.0376 0.0752
vn 0.0281 -0.9835 0.1786
vn 0.3682 -0.9126 0.1778
vn 0.3645 -0.8608 0.3552
vn 0.0668 -0.9395 0.3359
vn 0.3605 -0.8250 0.4351
vn 0.1454 -0.8864 0.4395
vn -0.3642 -0.9124 0.1867
vn -0.3512 -0.8718 0.3416
vn -0.3184 -0.8404 0.4385
vn 0.3643 -0.9305 0.0383
vn 0.3311 -0.9080 0.2568
vn 0.2037 -0.9315 0.3013
vn -0.2595 -0.9134 0.3136
vn -0.6865 -0.6121 0.3926
vn -0.6572 -0.7116 0.2482
vn -0.6924 -0.6225 0.3649
vn -0.7108 -0.6739 0.2016
vn -0.7292 -0.6802 0.0750
vn -0.3814 -0.9229 0.0520
vn 0.0094 -0.9993 0.0372
vn -0.9903 -0.0510 0.1296
vn -0.9093 -0.3712 0.1881
vn -0.8451 -0.4050 0.3489
vn -0.9465 -0.1261 0.2971
vn -0.8124 -0.4713 0.3434
vn -0.9087 -0.1600 0.3856
vn -0.9175 0.3836 0.1053
vn -0.8884 0.3637 0.2802
vn -0.7945 0.3604 0.4888
vn -0.9334 -0.3530 0.0652
vn -0.8219 -0.5340 0.1983
vn -0.9597 -0.0551 0.2757
vn -0.7392 0.5379 0.4052
vn -0.8884 0.3636 0.2802
vn -0.9232 0.3839 0.0159
vn -0.9995 -0.0183 0.0264
vn 0.4156 0.9091 -0.0291
vn 0.4620 0.8803 0.1076
vn -0.0977 0.9797 0.1753
vn -0.1495 0.9885 -0.0221
vn -0.3739 0.9080 0.1890
vn -0.3019 0.9514 -0.0599
vn 0.4254 0.9048 -0.0185
vn -0.0850 0.9938 -0.0714
vn -0.2562 0.9618 -0.0964
vn 0.8471 0.5271 0.0677
vn -0.4599 0.8815 0.1074
vn -0.3958 0.9125 -0.1036
vn -0.4999 0.8654 -0.0340
vn -0.2852 0.9585 0.0017
vn -0.6299 0.7728 0.0773
vn -0.0072 0.9997 0.0223
vn 0.4488 0.8911 0.0674
vn 0.7808 0.6239 0.0316
vn 0.8208 0.5712 -0.0039
vn 0.8355 0.5489 -0.0267
vn -0.9639 0.2565 -0.0718
vn -0.9610 0.2699 0.0601
vn -0.9948 -0.0511 0.0886
vn -0.9942 -0.0927 -0.0538
vn -0.9446 -0.2927 0.1488
vn -0.9193 -0.3930 -0.0192
vn -0.9351 0.2701 -0.2296
vn -0.9707 -0.1203 -0.2082
vn -0.8805 -0.4283 -0.2033
vn -0.7184 0.6955 0.0143
vn -0.9318 0.3237 0.1642
vn -0.9845 -0.0419 0.1702
vn -0.9589 -0.2454 0.1424
vn -0.7766 -0.6195 0.1143
vn -0.7217 -0.6594 0.2107
vn -0.6804 -0.7328 -0.0101
vn -0.6527 -0.7141 -0.2529
vn -0.8604 -0.4333 -0.2681
vn -0.6308 -0.6995 -0.3359
vn -0.9506 -0.1240 -0.2846
vn -0.8983 0.2976 -0.3232
vn -0.6733 0.6722 -0.3080
vn -0.7109 0.6687 -0.2179
vn -0.9351 0.2700 -0.2296
vn -0.7436 0.6638 -0.0805
vn -0.8004 0.5980 -0.0421
vn -0.7377 0.6738 0.0411
vn -0.9971 0.0224 0.0730
vn -0.9975 -0.0432 0.0552
vn -0.8477 -0.5258 0.0702
vn -0.8923 -0.4508 0.0228
vn -0.8911 0.4449 0.0898
vn -0.9891 -0.0656 0.1321
vn -0.9439 -0.3273 0.0432
vn -0.7377 0.6739 0.0411
vn -0.6356 -0.7716 0.0232
vn -0.6914 -0.7163 -0.0942
vn -0.7599 -0.6435 -0.0924
vn -0.8911 0.4448 0.0897
vn -0.8004 0.5980 -0.0422
vn 0.9525 -0.2634 -0.1528
vn 0.9595 -0.2768 -0.0519
vn 0.9803 0.1959 -0.0246
vn 0.9579 0.2717 -0.0927
vn 0.9383 0.3448 0.0267
vn 0.9113 0.4096 -0.0420
vn 0.9657 -0.2390 -0.1019
vn 0.9528 0.2993 -0.0508
vn 0.8930 0.4493 -0.0251
vn 0.5806 -0.8125 -0.0527
vn 0.8806 0.4735 -0.0149
vn 0.9662 0.2577 0.0106
vn 0.9724 -0.2296 0.0406
vn 0.6946 -0.7193 0.0114
vn 0.6282 -0.7593 -0.1695
vn 0.5787 -0.7992 -0.1621
vn -0.2372 -0.9569 -0.1675
vn -0.2318 -0.9727 -0.0119
vn 0.1807 -0.9828 -0.0378
vn 0.1703 -0.9703 -0.1721
vn 0.2956 -0.9540 -0.0497
vn 0.3065 -0.9385 -0.1589
vn -0.2656 -0.9451 -0.1906
vn 0.1622 -0.9595 -0.2303
vn 0.3468 -0.9120 -0.2189
vn 0.3930 -0.9190 -0.0324
vn 0.1366 -0.9905 -0.0181
vn -0.2985 -0.9532 0.0487
vn 0.9218 -0.3527 -0.1606
vn 0.9569 -0.2880 0.0366
vn 0.9871 0.1568 -0.0320
vn 0.9834 0.0740 -0.1657
vn 0.8784 0.4707 -0.0831
vn 0.8847 0.4329 -0.1730
vn 0.8676 -0.3400 -0.3629
vn 0.9523 0.0676 -0.2977
vn 0.8776 0.4022 -0.2611
vn 0.7049 -0.7059 0.0691
vn 0.7258 0.6849 -0.0641
vn 0.6927 0.7007 -0.1708
vn 0.6755 0.6930 -0.2518
vn 0.8721 0.3901 -0.2953
vn 0.6661 0.6892 -0.2852
vn 0.9336 0.0717 -0.3510
vn 0.8352 -0.3334 -0.4374
vn 0.6110 -0.6349 -0.4728
vn 0.6359 -0.6636 -0.3941
vn 0.6837 -0.7127 -0.1569
vn -0.3137 -0.9478 -0.0566
vn -0.2969 -0.9360 0.1891
vn 0.1040 -0.9867 0.1247
vn 0.0809 -0.9889 -0.1250
vn 0.4050 -0.9106 0.0825
vn 0.4105 -0.8990 -0.1525
vn -0.3106 -0.8903 -0.3330
vn 0.0851 -0.9181 -0.3871
vn 0.3964 -0.8266 -0.3996
vn 0.3944 -0.7827 -0.4815
vn 0.1115 -0.8719 -0.4768
vn -0.2720 -0.8602 -0.4313
vn 0.3986 0.9057 -0.1445
vn 0.4422 0.8965 -0.0273
vn 0.0366 0.9987 -0.0347
vn 0.0238 0.9937 -0.1091
vn -0.3291 0.9437 -0.0347
vn -0.3665 0.9261 -0.0898
vn 0.3399 0.9124 -0.2280
vn -0.0210 0.9804 -0.1956
vn -0.3768 0.9054 -0.1957
vn -0.3757 0.8828 -0.2819
vn -0.0506 0.9629 -0.2653
vn 0.3035 0.9122 -0.2752
vn -0.0772 -0.1963 -0.9775
vn -0.0737 -0.1416 -0.9872
vn -0.2991 0.2156 -0.9295
vn -0.2392 0.2063 -0.9488
vn -0.1875 0.0522 -0.9809
vn -0.2327 0.1013 -0.9673
vn -0.5401 0.6849 -0.4892
vn -0.3884 0.7499 -0.5356
vn -0.4422 0.7824 0.4386
vn -0.2716 0.8749 0.4010
vn -0.1508 0.4535 0.8784
vn -0.0540 0.5120 0.8573
vn -0.0778 0.3465 0.9348
vn -0.0072 0.3976 0.9175
vn -0.0676 0.3183 0.9456
vn -0.0026 0.3537 0.9354
vn -0.0947 -0.2398 -0.9662
vn -0.1863 0.1891 -0.9641
vn -0.1582 0.0146 -0.9873
vn -0.2455 0.7806 -0.5748
vn -0.1130 0.9208 0.3733
vn 0.0351 0.5402 0.8408
vn 0.0639 0.4291 0.9010
vn 0.0682 0.3788 0.9229
vn -0.1205 -0.2597 -0.9581
vn -0.1365 0.1799 -0.9742
vn -0.1352 -0.0017 -0.9908
vn -0.1060 0.7865 -0.6084
vn 0.0346 0.9374 0.3466
vn 0.1166 0.5443 0.8308
vn 0.1370 0.4400 0.8875
vn 0.1478 0.3896 0.9091
vn -0.1381 -0.2539 -0.9573
vn -0.0792 0.1762 -0.9812
vn -0.1056 -0.0012 -0.9944
vn 0.0392 0.7683 -0.6389
vn 0.1804 0.9315 0.3159
vn 0.1874 0.5335 0.8248
vn 0.1993 0.4275 0.8818
vn 0.2214 0.3801 0.8981
vn -0.1713 -0.2212 -0.9601
vn -0.0359 0.1847 -0.9821
vn -0.0895 0.0204 -0.9958
vn 0.1760 0.7348 -0.6551
vn 0.3418 0.8943 0.2886
vn 0.2754 0.5074 0.8165
vn 0.2621 0.3938 0.8810
vn 0.2835 0.3516 0.8922
vn -0.2219 -0.1703 -0.9601
vn -0.0164 0.1976 -0.9802
vn -0.0925 0.0641 -0.9937
vn 0.3012 0.6734 -0.6751
vn 0.5251 0.8152 0.2443
vn 0.3931 0.4573 0.7977
vn 0.3427 0.3425 0.8748
vn 0.3450 0.3152 0.8841
vn -0.0093 -0.1863 -0.9825
vn 0.0245 -0.1625 -0.9864
vn -0.0542 -0.0909 -0.9944
vn -0.3469 0.1928 -0.9179
vn -0.2779 0.1232 -0.9527
vn -0.6872 0.5722 -0.4476
vn -0.6059 0.6335 0.4812
vn -0.2475 0.3594 0.8998
vn -0.1483 0.2748 0.9500
vn -0.1316 0.2616 0.9562
vn -0.0819 0.2182 0.9725
vn -0.0388 0.2326 0.9718
vn 0.0115 0.2507 0.9680
vn 0.0740 0.2681 0.9605
vn 0.1544 0.2763 0.9486
vn 0.2328 0.2692 0.9345
vn 0.2920 0.2516 0.9227
vn 0.3351 0.2339 0.9127
vn 0.4081 0.2668 0.8731
vn 0.3732 0.2205 0.9012
vn 0.4182 0.2827 0.8633
vn 0.5020 0.3839 0.7750
vn 0.7019 0.6850 0.1955
vn 0.4291 0.5613 -0.7077
vn -0.0803 0.0755 -0.9939
vn -0.2659 -0.1308 -0.9551
vn 0.0189 0.1783 -0.9838
vn -0.3224 -0.2042 -0.9243
vn -0.2705 -0.2151 -0.9384
vn -0.2211 -0.2451 -0.9440
vn -0.1644 -0.2787 -0.9462
vn -0.1147 -0.2856 -0.9515
vn -0.0600 -0.2625 -0.9631
vn -0.0191 -0.2178 -0.9758
vn -0.3668 -0.1052 -0.9243
vn -0.3151 -0.1218 -0.9412
vn 0.0350 0.1106 -0.9932
vn 0.0104 0.0535 -0.9985
vn -0.1520 -0.0087 -0.9883
vn -0.1033 0.0221 -0.9944
vn 0.5296 0.4110 -0.7420
vn 0.5794 0.2669 -0.7701
vn 0.8392 0.5204 0.1581
vn 0.9272 0.3494 0.1353
vn 0.5804 0.2947 0.7591
vn 0.6310 0.2001 0.7495
vn 0.4735 0.2202 0.8528
vn 0.5126 0.1526 0.8450
vn 0.4517 0.2074 0.8677
vn 0.4787 0.1461 0.8657
vn -0.4056 -0.0502 -0.9127
vn -0.0153 0.0313 -0.9994
vn -0.1857 -0.0008 -0.9826
vn 0.6007 0.1436 -0.7864
vn 0.9755 0.1824 0.1232
vn 0.6610 0.1008 0.7436
vn 0.5384 0.0779 0.8391
vn 0.4990 0.0761 0.8633
vn -0.4178 0.0236 -0.9082
vn -0.0224 0.0304 -0.9993
vn -0.1942 0.0273 -0.9806
vn 0.6096 0.0349 -0.7919
vn 0.9927 0.0174 0.1191
vn 0.6724 -0.0049 0.7402
vn 0.5503 -0.0080 0.8349
vn 0.5086 -0.0081 0.8610
vn -0.4024 0.0986 -0.9101
vn -0.0061 0.0317 -0.9995
vn -0.1757 0.0574 -0.9828
vn 0.6114 -0.0728 -0.7880
vn 0.9816 -0.1500 0.1180
vn 0.6657 -0.1149 0.7373
vn 0.5445 -0.0987 0.8329
vn 0.5045 -0.0951 0.8582
vn -0.3620 0.1537 -0.9194
vn 0.0246 0.0112 -0.9996
vn -0.1345 0.0654 -0.9888
vn 0.5979 -0.1971 -0.7770
vn 0.9394 -0.3208 0.1205
vn 0.6400 -0.2207 0.7360
vn 0.5236 -0.1810 0.8325
vn 0.4902 -0.1708 0.8547
vn -0.3108 0.1649 -0.9361
vn 0.0499 -0.0511 -0.9974
vn -0.0844 0.0268 -0.9961
vn 0.5537 -0.3493 -0.7559
vn 0.8591 -0.4942 0.1333
vn 0.5956 -0.3161 0.7384
vn 0.4908 -0.2515 0.8342
vn 0.4696 -0.2363 0.8507
vn -0.3353 -0.1720 -0.9263
vn 0.3856 0.1797 0.9050
vn 0.4006 0.1313 0.9068
vn 0.4154 0.0701 0.9069
vn 0.4236 -0.0100 0.9058
vn 0.4198 -0.0915 0.9030
vn 0.4091 -0.1559 0.8991
vn 0.3986 -0.2067 0.8935
vn 0.4309 -0.2972 0.8520
vn 0.3892 -0.2521 0.8860
vn 0.4422 -0.3132 0.8405
vn 0.5269 -0.4027 0.7484
vn 0.7312 -0.6625 0.1625
vn 0.4563 -0.5135 -0.7267
vn -0.0715 -0.0389 -0.9967
vn -0.2732 0.1644 -0.9478
vn 0.0320 -0.1351 -0.9903
vn -0.3470 0.2363 -0.9076
vn -0.3514 0.2128 -0.9117
vn -0.3666 0.1928 -0.9102
vn -0.3976 0.1172 -0.9100
vn -0.4091 0.0240 -0.9122
vn -0.3940 -0.0677 -0.9166
vn -0.3595 -0.1426 -0.9222
vn -0.2167 0.2529 -0.9429
vn -0.2519 0.1982 -0.9472
vn -0.0185 -0.1729 -0.9848
vn -0.0535 -0.1594 -0.9858
vn -0.1184 0.0090 -0.9929
vn -0.1080 -0.0381 -0.9934
vn 0.3239 -0.6404 -0.6964
vn 0.1950 -0.7086 -0.6781
vn 0.5649 -0.7990 0.2062
vn 0.3884 -0.8873 0.2486
vn 0.4297 -0.4763 0.7671
vn 0.3194 -0.5309 0.7849
vn 0.3771 -0.3697 0.8492
vn 0.3023 -0.4196 0.8559
vn 0.3743 -0.3409 0.8624
vn 0.3150 -0.3732 0.8726
vn -0.1622 0.2948 -0.9417
vn -0.0765 -0.1430 -0.9868
vn -0.1118 0.0410 -0.9929
vn 0.0711 -0.7462 -0.6619
vn 0.2214 -0.9337 0.2815
vn 0.2166 -0.5650 0.7961
vn 0.2262 -0.4575 0.8600
vn 0.2460 -0.4020 0.8820
vn -0.1144 0.3083 -0.9444
vn -0.1100 -0.1396 -0.9841
vn -0.1153 0.0471 -0.9922
vn -0.0599 -0.7658 -0.6402
vn 0.0689 -0.9493 0.3068
vn 0.1283 -0.5827 0.8025
vn 0.1480 -0.4771 0.8663
vn 0.1634 -0.4183 0.8935
vn -0.0870 0.2922 -0.9524
vn -0.1624 -0.1491 -0.9754
vn -0.1401 0.0285 -0.9897
vn -0.2039 -0.7673 -0.6080
vn -0.0789 -0.9404 0.3308
vn 0.0461 -0.5840 0.8104
vn 0.0713 -0.4739 0.8777
vn 0.0793 -0.4161 0.9058
vn -0.0788 0.2504 -0.9649
vn -0.2271 -0.1655 -0.9597
vn -0.1822 -0.0122 -0.9832
vn -0.3577 -0.7428 -0.5659
vn -0.2355 -0.9033 0.3585
vn -0.0389 -0.5618 0.8264
vn 0.0001 -0.4485 0.8938
vn 0.0063 -0.3978 0.9174
vn -0.0854 0.1954 -0.9770
vn -0.2976 -0.1755 -0.9384
vn -0.2409 -0.0630 -0.9685
vn -0.5192 -0.6834 -0.5132
vn -0.4066 -0.8207 0.4015
vn -0.1321 -0.5090 0.8506
vn -0.0682 -0.4017 0.9132
vn -0.0595 -0.3680 0.9279
vn -0.3041 0.2509 -0.9190
vn 0.3530 -0.2611 0.8984
vn 0.3103 -0.2741 0.9103
vn 0.2497 -0.2909 0.9236
vn 0.1679 -0.3006 0.9389
vn 0.0855 -0.2974 0.9509
vn 0.0205 -0.2858 0.9581
vn -0.0311 -0.2718 0.9618
vn -0.1244 -0.3114 0.9421
vn -0.0782 -0.2577 0.9631
vn -0.1382 -0.3312 0.9334
vn -0.2300 -0.4189 0.8784
vn -0.5750 -0.6809 0.4536
vn -0.6725 -0.5773 -0.4631
vn -0.2908 -0.0851 -0.9530
vn -0.0685 0.1448 -0.9871
vn -0.3524 -0.1609 -0.9219
vn 0.0093 0.2246 -0.9744
vn -0.0130 0.2481 -0.9686
vn -0.0188 0.2818 -0.9593
vn -0.0556 0.3199 -0.9458
vn -0.1156 0.3347 -0.9352
vn -0.1947 0.3179 -0.9279
vn -0.2703 0.2768 -0.9221
vn 0.0575 0.0948 -0.9938
vn -0.0093 0.1173 -0.9931
vn -0.3591 -0.1196 -0.9256
vn -0.3365 -0.0741 -0.9388
vn -0.1958 -0.0186 -0.9805
vn -0.2585 -0.0489 -0.9648
vn -0.7834 -0.4386 -0.4403
vn -0.8469 -0.2967 -0.4413
vn -0.7066 -0.5036 0.4970
vn -0.7861 -0.3306 0.5222
vn -0.3131 -0.3020 0.9004
vn -0.3644 -0.1952 0.9105
vn -0.2034 -0.2444 0.9481
vn -0.2494 -0.1653 0.9542
vn -0.1724 -0.2354 0.9565
vn -0.2024 -0.1668 0.9650
vn 0.1060 0.0587 -0.9926
vn -0.3165 -0.0315 -0.9481
vn -0.1566 -0.0008 -0.9877
vn -0.8825 -0.1553 -0.4439
vn -0.8255 -0.1754 0.5365
vn -0.3903 -0.1082 0.9143
vn -0.2761 -0.0964 0.9563
vn -0.2234 -0.0998 0.9696
vn 0.1224 0.0254 -0.9922
vn -0.3097 0.0144 -0.9507
vn -0.1449 0.0183 -0.9893
vn -0.8958 -0.0099 -0.4444
vn -0.8402 -0.0298 0.5415
vn -0.3996 -0.0281 0.9162
vn -0.2865 -0.0263 0.9577
vn -0.2324 -0.0255 0.9723
vn 0.1107 -0.0050 -0.9938
vn -0.3126 0.0617 -0.9479
vn -0.1552 0.0397 -0.9871
vn -0.8874 0.1370 -0.4402
vn -0.8325 0.1169 0.5416
vn -0.3935 0.0516 0.9179
vn -0.2797 0.0432 0.9591
vn -0.2266 0.0488 0.9728
vn 0.0669 -0.0375 -0.9971
vn -0.3272 0.1067 -0.9389
vn -0.1897 0.0613 -0.9799
vn -0.8546 0.2825 -0.4358
vn -0.8013 0.2730 0.5323
vn -0.3722 0.1364 0.9181
vn -0.2556 0.1101 0.9605
vn -0.2084 0.1149 0.9713
vn 0.0030 -0.0618 -0.9981
vn -0.3459 0.1483 -0.9265
vn -0.2475 0.0911 -0.9646
vn -0.7944 0.4284 -0.4306
vn -0.7300 0.4490 0.5152
vn -0.3257 0.2416 0.9141
vn -0.2118 0.1882 0.9590
vn -0.1805 0.1840 0.9662
vn 0.0396 0.1896 -0.9811
vn -0.0887 -0.2089 0.9739
vn -0.1025 -0.1574 0.9822
vn -0.1167 -0.0980 0.9883
vn -0.1249 -0.0240 0.9919
vn -0.1212 0.0507 0.9913
vn -0.1090 0.1107 0.9879
vn -0.0951 0.1636 0.9819
vn 0.0452 -0.1256 -0.9910
vn 0.0802 -0.1015 -0.9916
vn 0.1257 -0.0393 -0.9913
vn 0.1440 0.0252 -0.9893
vn 0.1282 0.0908 -0.9876
vn 0.0832 0.1573 -0.9840
vn -0.2654 -0.2044 -0.9422
vn -0.2756 -0.1743 -0.9453
vn -0.3020 -0.1674 -0.9385
vn -0.3101 -0.1993 -0.9296
vn -0.3452 -0.0943 -0.9338
vn -0.3431 -0.1205 -0.9315
vn -0.3720 0.0215 -0.9280
vn -0.3603 0.0159 -0.9327
vn -0.3560 0.1401 -0.9239
vn -0.3600 0.1502 -0.9208
vn -0.3301 0.2088 -0.9206
vn -0.3398 0.2321 -0.9114
vn -0.3091 0.2176 -0.9258
vn -0.3035 0.2420 -0.9216
vn -0.2067 -0.2458 -0.9470
vn -0.2472 -0.2241 -0.9427
vn -0.2669 -0.1307 -0.9548
vn -0.2722 0.0150 -0.9621
vn -0.2766 0.1550 -0.9484
vn -0.2670 0.2529 -0.9299
vn -0.2382 0.2777 -0.9307
vn -0.1134 -0.2621 -0.9583
vn -0.1184 -0.2332 -0.9652
vn -0.1261 -0.1265 -0.9839
vn -0.1325 0.0175 -0.9910
vn -0.1339 0.1558 -0.9787
vn -0.1300 0.2623 -0.9562
vn -0.1218 0.3037 -0.9450
vn -0.0216 -0.2327 -0.9723
vn 0.0009 -0.2232 -0.9748
vn 0.0058 -0.1236 -0.9923
vn 0.0008 0.0202 -0.9998
vn 0.0020 0.1609 -0.9870
vn -0.0039 0.2564 -0.9666
vn -0.0231 0.2849 -0.9583
vn 0.0198 -0.1931 -0.9810
vn 0.0643 -0.1933 -0.9790
vn 0.0895 -0.1109 -0.9898
vn 0.0920 0.0219 -0.9955
vn 0.0810 0.1541 -0.9847
vn 0.0593 0.2372 -0.9696
vn 0.0236 0.2476 -0.9686
vn 0.0135 -0.1534 -0.9881
vn 0.0577 -0.1477 -0.9874
vn 0.0966 -0.0834 -0.9918
vn 0.1193 0.0230 -0.9926
vn 0.0961 0.1279 -0.9871
vn 0.0503 0.2040 -0.9777
vn 0.0092 0.2138 -0.9768
vn 0.3204 -0.2201 0.9214
vn 0.3522 -0.2041 0.9134
vn 0.3680 -0.1631 0.9154
vn 0.3532 -0.1954 0.9149
vn 0.3891 -0.1025 0.9155
vn 0.3968 -0.1334 0.9081
vn 0.3979 -0.0102 0.9174
vn 0.4156 -0.0087 0.9095
vn 0.3835 0.0809 0.9200
vn 0.3901 0.1137 0.9137
vn 0.3596 0.1384 0.9228
vn 0.3444 0.1703 0.9233
vn 0.3417 0.1774 0.9229
vn 0.3095 0.1935 0.9310
vn 0.2626 -0.2425 0.9339
vn 0.2953 -0.2380 0.9253
vn 0.3380 -0.1741 0.9249
vn 0.3559 -0.0106 0.9345
vn 0.3313 0.1503 0.9315
vn 0.2880 0.2100 0.9343
vn 0.2525 0.2146 0.9435
vn 0.1682 -0.2538 0.9525
vn 0.1679 -0.2588 0.9512
vn 0.1695 -0.1956 0.9659
vn 0.1697 -0.0174 0.9853
vn 0.1650 0.1615 0.9730
vn 0.1614 0.2255 0.9608
vn 0.1586 0.2246 0.9615
vn 0.0732 -0.2424 0.9674
vn 0.0403 -0.2385 0.9703
vn 0.0008 -0.1796 0.9837
vn -0.0186 -0.0236 0.9995
vn -0.0041 0.1362 0.9907
vn 0.0330 0.2007 0.9791
vn 0.0639 0.2118 0.9752
vn 0.0123 -0.2214 0.9751
vn -0.0209 -0.1974 0.9801
vn -0.0637 -0.1424 0.9878
vn -0.0867 -0.0253 0.9959
vn -0.0704 0.0949 0.9930
vn -0.0305 0.1571 0.9871
vn 0.0024 0.1878 0.9822
vn -0.0298 -0.2065 0.9780
vn -0.0461 -0.1661 0.9850
vn -0.0685 -0.1107 0.9915
vn -0.0822 -0.0242 0.9963
vn -0.0745 0.0642 0.9951
vn -0.0546 0.1237 0.9908
vn -0.0374 0.1679 0.9851
usemtl Stems_1001
s 1
f 1/1/1 2/2/2 3/3/3
f 3/3/3 4/4/4 1/1/1
f 4/4/4 3/3/3 5/5/5
f 5/5/5 6/6/6 4/4/4
f 7/7/7 1/1/1 4/4/4
f 4/4/4 8/8/8 7/7/7
f 8/8/8 4/4/4 6/6/6
f 6/6/6 9/9/9 8/8/8
f 10/10/10 11/11/11 12/12/12
f 12/12/12 2/2/2 10/10/10
f 2/2/2 12/12/12 13/13/13
f 13/13/13 3/3/3 2/2/2
f 3/3/3 13/13/13 14/14/14
f 14/14/14 5/5/5 3/3/3
f 5/5/5 14/14/14 15/15/15
f 15/15/15 16/16/16 5/5/5
f 6/6/6 5/5/5 16/16/16
f 16/16/16 17/17/17 6/6/6
f 9/9/9 6/6/6 17/17/17
f 17/17/17 18/18/18 9/9/9
f 19/19/19 9/9/9 18/18/18
f 18/18/18 20/20/20 19/19/19
f 21/21/21 8/8/8 9/9/9
f 9/9/9 19/19/19 21/21/21
f 22/22/22 7/7/7 8/8/8
f 8/8/8 21/21/21 22/22/22
f 23/23/23 24/24/24 7/7/7
f 7/7/7 22/22/22 23/23/23
f 24/24/24 25/25/25 1/1/1
f 1/1/1 7/7/7 24/24/24
f 25/25/25 10/10/10 2/2/2
f 2/2/2 1/1/1 25/25/25
f 26/26/26 27/27/27 28/28/28
f 28/28/28 29/29/29 26/26/26
f 29/29/29 28/28/28 30/30/30
f 30/30/30 31/31/31 29/29/29
f 32/32/32 26/26/26 29/29/29
f 29/29/29 33/33/33 32/32/32
f 33/33/33 29/29/29 31/31/31
f 31/31/31 34/34/34 33/33/33
f 35/35/35 23/23/23 22/22/22
f 22/22/22 27/27/27 35/35/35
f 27/27/27 22/22/22 21/21/21
f 21/21/21 28/28/28 27/27/27
f 28/28/28 21/21/21 19/19/19
f 19/19/19 30/30/30 28/28/28
f 30/30/30 19/19/19 20/20/20
f 20/20/20 36/36/36 30/30/30
f 31/31/31 30/30/30 36/36/36
f 36/36/36 37/37/37 31/31/31
f 34/34/34 31/31/31 37/37/37
f 37/37/37 38/38/38 34/34/34
f 39/39/39 34/34/34 38/38/38
f 38/38/38 40/40/40 39/39/39
f 41/41/41 33/33/33 34/34/34
f 34/34/34 39/39/39 41/41/41
f 42/42/42 32/32/32 33/33/33
f 33/33/33 41/41/41 42/42/42
f 43/43/43 44/44/44 32/32/32
f 32/32/32 42/42/42 43/43/43
f 44/44/44 45/45/45 26/26/26
f 26/26/26 32/32/32 44/44/44
f 45/45/45 35/35/35 27/27/27
f 27/27/27 26/26/26 45/45/45
f 46/46/46 47/47/47 48/48/48
f 48/48/48 49/49/49 46/46/46
f 49/49/49 48/48/48 50/50/50
f 50/50/50 51/51/51 49/49/49
f 52/52/52 46/46/46 49/49/49
f 49/49/49 53/53/53 52/52/52
f 53/53/53 49/49/49 51/51/51
f 51/51/51 54/54/54 53/53/53
f 55/55/55 43/43/43 42/42/42
f 42/42/42 47/47/47 55/55/55
f 47/47/47 42/42/42 41/41/41
f 41/41/41 48/48/48 47/47/47
f 48/48/48 41/41/41 39/39/39
f 39/39/39 50/50/50 48/48/48
f 50/50/50 39/39/39 40/40/40
f 40/40/40 56/56/56 50/50/50
f 51/51/51 50/50/50 56/56/56
f 56/56/56 57/57/57 51/51/51
f 54/54/54 51/51/51 57/57/57
f 57/57/57 58/58/58 54/54/54
f 59/59/59 54/54/54 58/58/58
f 58/58/58 60/60/60 59/59/59
f 61/61/61 53/53/53 54/54/54
f 54/54/54 59/59/59 61/61/61
f 62/62/62 52/52/52 53/53/53
f 53/53/53 61/61/61 62/62/62
f 63/63/63 64/64/64 52/52/52
f 52/52/52 62/62/62 63/63/63
f 64/64/64 65/65/65 46/46/46
f 46/46/46 52/52/52 64/64/64
f 65/65/65 55/55/55 47/47/47
f 47/47/47 46/46/46 65/65/65
f 66/66/66 67/67/67 68/68/68
f 68/68/68 69/69/69 66/66/66
f 69/69/69 68/68/68 70/70/70
f 70/70/70 71/71/71 69/69/69
f 72/72/72 66/66/66 69/69/69
f 69/69/69 73/73/73 72/72/72
f 73/73/73 69/69/69 71/71/71
f 71/71/71 74/74/74 73/73/73
f 75/75/75 63/63/63 62/62/62
f 62/62/62 67/67/67 75/75/75
f 67/67/67 62/62/62 61/61/61
f 61/61/61 68/68/68 67/67/67
f 68/68/68 61/61/61 59/59/59
f 59/59/59 70/70/70 68/68/68
f 70/70/70 59/59/59 60/60/60
f 60/60/60 76/76/76 70/70/70
f 71/71/71 70/70/70 76/76/76
f 76/76/76 77/77/77 71/71/71
f 74/74/74 71/71/71 77/77/77
f 77/77/77 78/78/78 74/74/74
f 14/14/14 79/79/74 80/80/78
f 80/80/78 15/15/15 14/14/14
f 13/13/13 81/81/79 79/79/74
f 79/79/74 14/14/14 13/13/13
f 12/12/12 82/82/72 81/81/79
f 81/81/79 13/13/13 12/12/12
f 11/11/11 83/83/80 82/82/72
f 82/82/72 12/12/12 11/11/11
f 84/84/80 85/85/81 66/66/66
f 66/66/66 72/72/72 84/84/80
f 85/85/81 75/75/75 67/67/67
f 67/67/67 66/66/66 85/85/81
f 86/86/82 87/87/83 88/88/84
f 88/88/84 89/89/85 86/86/82
f 89/89/85 88/88/84 90/90/86
f 90/90/86 91/91/87 89/89/85
f 92/92/88 86/86/82 89/89/85
f 89/89/85 93/93/89 92/92/88
f 93/93/89 89/89/85 91/91/87
f 91/91/87 94/94/90 93/93/89
f 95/95/91 20/20/20 18/18/18
f 18/18/18 87/87/83 95/95/91
f 87/87/83 18/18/18 17/17/17
f 17/17/17 88/88/84 87/87/83
f 88/88/84 17/17/17 16/16/16
f 16/16/16 90/90/86 88/88/84
f 90/90/86 16/16/16 15/15/15
f 15/15/15 96/96/92 90/90/86
f 91/91/87 90/90/86 96/96/92
f 96/96/92 97/97/93 91/91/87
f 94/94/90 91/91/87 97/97/93
f 97/97/93 98/98/94 94/94/90
f 99/99/95 94/94/90 98/98/94
f 98/98/94 100/100/96 99/99/95
f 101/101/97 93/93/89 94/94/90
f 94/94/90 99/99/95 101/101/97
f 102/102/98 92/92/88 93/93/89
f 93/93/89 101/101/97 102/102/98
f 103/103/99 104/104/100 92/92/88
f 92/92/88 102/102/98 103/103/99
f 104/104/100 105/105/101 86/86/82
f 86/86/82 92/92/88 104/104/100
f 105/105/101 95/95/91 87/87/83
f 87/87/83 86/86/82 105/105/101
f 106/106/102 107/107/103 108/108/104
f 108/108/104 109/109/105 106/106/102
f 109/109/105 108/108/104 110/110/106
f 110/110/106 111/111/107 109/109/105
f 112/112/108 106/106/102 109/109/105
f 109/109/105 113/113/109 112/112/108
f 113/113/109 109/109/105 111/111/107
f 111/111/107 114/114/110 113/113/109
f 115/115/111 100/100/96 116/116/112
f 116/116/112 117/117/103 115/115/111
f 107/107/103 118/118/112 119/119/113
f 119/119/113 108/108/104 107/107/103
f 108/108/104 119/119/113 120/120/114
f 120/120/114 110/110/106 108/108/104
f 110/110/106 120/120/114 121/121/115
f 121/121/115 122/122/116 110/110/106
f 111/111/107 110/110/106 122/122/116
f 122/122/116 123/123/117 111/111/107
f 114/114/110 111/111/107 123/123/117
f 123/123/117 124/124/118 114/114/110
f 125/125/119 114/114/110 124/124/118
f 124/124/118 126/126/120 125/125/119
f 127/127/121 113/113/109 114/114/110
f 114/114/110 125/125/119 127/127/121
f 128/128/122 112/112/108 113/113/109
f 113/113/109 127/127/121 128/128/122
f 129/129/123 130/130/124 131/131/125
f 131/131/125 132/132/122 129/129/123
f 130/130/124 133/133/126 134/134/102
f 134/134/102 131/131/125 130/130/124
f 133/133/126 115/115/111 117/117/103
f 117/117/103 134/134/102 133/133/126
f 135/135/127 136/136/128 137/137/129
f 137/137/129 138/138/130 135/135/127
f 138/138/130 137/137/129 139/139/131
f 139/139/131 140/140/132 138/138/130
f 141/141/133 135/135/127 138/138/130
f 138/138/130 142/142/134 141/141/133
f 142/142/134 138/138/130 140/140/132
f 140/140/132 143/143/135 142/142/134
f 96/96/92 15/15/15 80/80/78
f 80/80/78 144/144/136 96/96/92
f 136/136/128 78/78/78 77/77/77
f 77/77/77 137/137/129 136/136/128
f 137/137/129 77/77/77 76/76/76
f 76/76/76 139/139/131 137/137/129
f 139/139/131 76/76/76 60/60/60
f 60/60/60 145/145/137 139/139/131
f 140/140/132 139/139/131 145/145/137
f 145/145/137 146/146/138 140/140/132
f 143/143/135 140/140/132 146/146/138
f 146/146/138 147/147/139 143/143/135
f 120/120/114 143/143/135 147/147/139
f 147/147/139 121/121/115 120/120/114
f 119/119/113 142/142/134 143/143/135
f 143/143/135 120/120/114 119/119/113
f 118/118/112 141/141/133 142/142/134
f 142/142/134 119/119/113 118/118/112
f 100/100/96 98/98/94 148/148/140
f 148/148/140 116/116/112 100/100/96
f 98/98/94 97/97/93 149/149/141
f 149/149/141 148/148/140 98/98/94
f 97/97/93 96/96/92 144/144/136
f 144/144/136 149/149/141 97/97/93
f 150/150/142 151/151/143 152/152/144
f 152/152/144 153/153/145 150/150/142
f 153/153/145 152/152/144 154/154/146
f 154/154/146 155/155/147 153/153/145
f 156/156/148 150/150/142 153/153/145
f 153/153/145 157/157/149 156/156/148
f 157/157/149 153/153/145 155/155/147
f 155/155/147 158/158/150 157/157/149
f 159/159/151 40/40/40 38/38/38
f 38/38/38 151/151/143 159/159/151
f 151/151/143 38/38/38 37/37/37
f 37/37/37 152/152/144 151/151/143
f 152/152/144 37/37/37 36/36/36
f 36/36/36 154/154/146 152/152/144
f 154/154/146 36/36/36 20/20/20
f 20/20/20 95/95/91 154/154/146
f 155/155/147 154/154/146 95/95/91
f 95/95/91 105/105/101 155/155/147
f 158/158/150 155/155/147 105/105/101
f 105/105/101 104/104/100 158/158/150
f 160/160/152 158/158/150 104/104/100
f 104/104/100 103/103/99 160/160/152
f 161/161/153 157/157/149 158/158/150
f 158/158/150 160/160/152 161/161/153
f 162/162/154 156/156/148 157/157/149
f 157/157/149 161/161/153 162/162/154
f 163/163/155 164/164/156 156/156/148
f 156/156/148 162/162/154 163/163/155
f 164/164/156 165/165/157 150/150/142
f 150/150/142 156/156/148 164/164/156
f 165/165/157 159/159/151 151/151/143
f 151/151/143 150/150/142 165/165/157
f 166/166/158 167/167/159 168/168/160
f 168/168/160 169/169/161 166/166/158
f 169/169/161 168/168/160 170/170/162
f 170/170/162 171/171/163 169/169/161
f 172/172/164 166/166/158 169/169/161
f 169/169/161 173/173/165 172/172/164
f 173/173/165 169/169/161 171/171/163
f 171/171/163 174/174/166 173/173/165
f 145/145/137 60/60/60 58/58/58
f 58/58/58 167/167/159 145/145/137
f 167/167/159 58/58/58 57/57/57
f 57/57/57 168/168/160 167/167/159
f 168/168/160 57/57/57 56/56/56
f 56/56/56 170/170/162 168/168/160
f 170/170/162 56/56/56 40/40/40
f 40/40/40 159/159/151 170/170/162
f 171/171/163 170/170/162 159/159/151
f 159/159/151 165/165/157 171/171/163
f 174/174/166 171/171/163 165/165/157
f 165/165/157 164/164/156 174/174/166
f 175/175/167 174/174/166 164/164/156
f 164/164/156 163/163/155 175/175/167
f 176/176/168 173/173/165 174/174/166
f 174/174/166 175/175/167 176/176/168
f 177/177/169 172/172/164 173/173/165
f 173/173/165 176/176/168 177/177/169
f 121/121/115 147/147/139 172/172/164
f 172/172/164 177/177/169 121/121/115
f 147/147/139 146/146/138 166/166/158
f 166/166/158 172/172/164 147/147/139
f 146/146/138 145/145/137 167/167/159
f 167/167/159 166/166/158 146/146/138
f 178/178/170 179/179/171 180/180/172
f 180/180/172 181/181/173 178/178/170
f 181/181/173 180/180/172 182/182/174
f 182/182/174 183/183/175 181/181/173
f 184/184/176 178/178/170 181/181/173
f 181/181/173 185/185/177 184/184/176
f 185/185/177 181/181/173 183/183/175
f 183/183/175 186/186/178 185/185/177
f 187/187/179 163/163/155 162/162/154
f 162/162/154 179/179/171 187/187/179
f 179/179/171 162/162/154 161/161/153
f 161/161/153 180/180/172 179/179/171
f 180/180/172 161/161/153 160/160/152
f 160/160/152 182/182/174 180/180/172
f 182/182/174 160/160/152 103/103/99
f 103/103/99 188/188/180 182/182/174
f 183/183/175 182/182/174 188/188/180
f 188/188/180 189/189/181 183/183/175
f 186/186/178 183/183/175 189/189/181
f 189/189/181 190/190/182 186/186/178
f 191/191/183 186/186/178 190/190/182
f 190/190/182 192/192/184 191/191/183
f 193/193/185 185/185/177 186/186/178
f 186/186/178 191/191/183 193/193/185
f 194/194/186 184/184/176 185/185/177
f 185/185/177 193/193/185 194/194/186
f 195/195/187 196/196/188 184/184/176
f 184/184/176 194/194/186 195/195/187
f 196/196/188 197/197/189 178/178/170
f 178/178/170 184/184/176 196/196/188
f 197/197/189 187/187/179 179/179/171
f 179/179/171 178/178/170 197/197/189
f 198/198/190 199/199/191 200/200/192
f 200/200/192 201/201/193 198/198/190
f 201/201/193 200/200/192 202/202/194
f 202/202/194 203/203/195 201/201/193
f 204/204/196 198/198/190 201/201/193
f 201/201/193 205/205/197 204/204/196
f 205/205/197 201/201/193 203/203/195
f 203/203/195 206/206/198 205/205/197
f 122/122/116 121/121/115 177/177/169
f 177/177/169 199/199/191 122/122/116
f 199/199/191 177/177/169 176/176/168
f 176/176/168 200/200/192 199/199/191
f 200/200/192 176/176/168 175/175/167
f 175/175/167 202/202/194 200/200/192
f 202/202/194 175/175/167 163/163/155
f 163/163/155 187/187/179 202/202/194
f 203/203/195 202/202/194 187/187/179
f 187/187/179 197/197/189 203/203/195
f 206/206/198 203/203/195 197/197/189
f 197/197/189 196/196/188 206/206/198
f 207/207/199 206/206/198 196/196/188
f 196/196/188 195/195/187 207/207/199
f 208/208/200 205/205/197 206/206/198
f 206/206/198 207/207/199 208/208/200
f 209/209/201 204/204/196 205/205/197
f 205/205/197 208/208/200 209/209/201
f 126/126/120 124/124/118 204/204/196
f 204/204/196 209/209/201 126/126/120
f 124/124/118 123/123/117 198/198/190
f 198/198/190 204/204/196 124/124/118
f 123/123/117 122/122/116 199/199/191
f 199/199/191 198/198/190 123/123/117
f 210/210/202 211/211/203 212/212/204
f 212/212/204 213/213/205 210/210/202
f 213/213/205 212/212/204 214/214/206
f 214/214/206 215/215/207 213/213/205
f 216/216/208 210/210/202 213/213/205
f 213/213/205 217/217/209 216/216/208
f 217/217/209 213/213/205 215/215/207
f 215/215/207 218/218/210 217/217/209
f 188/188/180 103/103/99 102/102/98
f 102/102/98 211/211/203 188/188/180
f 211/211/203 102/102/98 101/101/97
f 101/101/97 212/212/204 211/211/203
f 212/212/204 101/101/97 99/99/95
f 99/99/95 214/214/206 212/212/204
f 214/214/206 99/99/95 100/100/96
f 100/100/96 115/115/111 214/214/206
f 215/215/207 214/214/206 115/115/111
f 115/115/111 133/133/126 215/215/207
f 218/218/210 215/215/207 133/133/126
f 133/133/126 130/130/124 218/218/210
f 219/219/211 218/218/210 130/130/124
f 130/130/124 129/129/123 219/219/211
f 220/220/212 217/217/209 218/218/210
f 218/218/210 219/219/211 220/220/212
f 221/221/213 216/216/208 217/217/209
f 217/217/209 220/220/212 221/221/213
f 192/192/184 190/190/182 216/216/208
f 216/216/208 221/221/213 192/192/184
f 190/190/182 189/189/181 210/210/202
f 210/210/202 216/216/208 190/190/182
f 189/189/181 188/188/180 211/211/203
f 211/211/203 210/210/202 189/189/181
usemtl Hat_1001
f 222/222/214 223/223/215 224/224/216
f 224/224/216 225/225/217 222/222/214
f 226/226/218 227/227/219 228/228/220
f 228/228/220 229/229/221 226/226/218
f 229/229/221 228/228/220 230/230/222
f 230/230/222 231/231/223 229/229/221
f 231/231/223 230/230/222 232/232/224
f 232/232/224 233/233/225 231/231/223
f 233/233/225 232/232/224 234/234/226
f 234/234/226 235/235/227 233/233/225
f 235/235/227 234/234/226 236/236/228
f 236/236/228 237/237/229 235/235/227
f 238/238/230 222/222/214 225/225/217
f 225/225/217 239/239/231 238/238/230
f 240/240/232 226/226/218 229/229/221
f 229/229/221 241/241/233 240/240/232
f 241/241/233 229/229/221 231/231/223
f 231/231/223 242/242/234 241/241/233
f 242/242/234 231/231/223 233/233/225
f 233/233/225 243/243/235 242/242/234
f 243/243/235 233/233/225 235/235/227
f 235/235/227 244/244/236 243/243/235
f 244/244/236 235/235/227 237/237/229
f 237/237/229 245/245/237 244/244/236
f 246/246/238 238/238/230 239/239/231
f 239/239/231 247/247/239 246/246/238
f 248/248/240 240/240/232 241/241/233
f 241/241/233 249/249/241 248/248/240
f 249/249/241 241/241/233 242/242/234
f 242/242/234 250/250/242 249/249/241
f 250/250/242 242/242/234 243/243/235
f 243/243/235 251/251/243 250/250/242
f 251/251/243 243/243/235 244/244/236
f 244/244/236 252/252/244 251/251/243
f 252/252/244 244/244/236 245/245/237
f 245/245/237 253/253/245 252/252/244
f 254/254/246 246/246/238 247/247/239
f 247/247/239 255/255/247 254/254/246
f 256/256/248 248/248/240 249/249/241
f 249/249/241 257/257/249 256/256/248
f 257/257/249 249/249/241 250/250/242
f 250/250/242 258/258/250 257/257/249
f 258/258/250 250/250/242 251/251/243
f 251/251/243 259/259/251 258/258/250
f 259/259/251 251/251/243 252/252/244
f 252/252/244 260/260/252 259/259/251
f 260/260/252 252/252/244 253/253/245
f 253/253/245 261/261/253 260/260/252
f 262/262/254 254/254/246 255/255/247
f 255/255/247 263/263/255 262/262/254
f 264/264/256 256/256/248 257/257/249
f 257/257/249 265/265/257 264/264/256
f 265/265/257 257/257/249 258/258/250
f 258/258/250 266/266/258 265/265/257
f 266/266/258 258/258/250 259/259/251
f 259/259/251 267/267/259 266/266/258
f 267/267/259 259/259/251 260/260/252
f 260/260/252 268/268/260 267/267/259
f 268/268/260 260/260/252 261/261/253
f 261/261/253 269/269/261 268/268/260
f 270/270/262 262/262/254 263/263/255
f 263/263/255 271/271/263 270/270/262
f 272/272/264 264/264/256 265/265/257
f 265/265/257 273/273/265 272/272/264
f 273/273/265 265/265/257 266/266/258
f 266/266/258 274/274/266 273/273/265
f 274/274/266 266/266/258 267/267/259
f 267/267/259 275/275/267 274/274/266
f 275/275/267 267/267/259 268/268/260
f 268/268/260 276/276/268 275/275/267
f 276/276/268 268/268/260 269/269/261
f 269/269/261 277/277/269 276/276/268
f 278/278/270 279/279/271 280/280/272
f 280/280/272 223/223/215 278/278/270
f 223/223/215 280/280/272 281/281/273
f 281/281/273 224/224/216 223/223/215
f 227/227/219 282/282/274 283/283/275
f 283/283/275 228/228/220 227/227/219
f 228/228/220 283/283/275 284/284/276
f 284/284/276 230/230/222 228/228/220
f 230/230/222 284/284/276 285/285/277
f 285/285/277 232/232/224 230/230/222
f 232/232/224 285/285/277 286/286/278
f 286/286/278 234/234/226 232/232/224
f 234/234/226 286/286/278 287/287/279
f 287/287/279 236/236/228 234/234/226
f 236/236/228 287/287/279 288/288/280
f 288/288/280 289/289/281 236/236/228
f 237/237/229 236/236/228 289/289/281
f 289/289/281 290/290/282 237/237/229
f 245/245/237 237/237/229 290/290/282
f 290/290/282 291/291/283 245/245/237
f 253/253/245 245/245/237 291/291/283
f 291/291/283 292/292/284 253/253/245
f 261/261/253 253/253/245 292/292/284
f 292/292/284 293/293/285 261/261/253
f 269/269/261 261/261/253 293/293/285
f 293/293/285 294/294/286 269/269/261
f 277/277/269 269/269/261 294/294/286
f 294/294/286 295/295/287 277/277/269
f 296/296/288 277/277/269 295/295/287
f 295/295/287 297/297/289 296/296/288
f 298/298/290 276/276/268 277/277/269
f 277/277/269 296/296/288 298/298/290
f 299/299/291 275/275/267 276/276/268
f 276/276/268 298/298/290 299/299/291
f 300/300/292 274/274/266 275/275/267
f 275/275/267 299/299/291 300/300/292
f 301/301/293 273/273/265 274/274/266
f 274/274/266 300/300/292 301/301/293
f 302/302/294 272/272/264 273/273/265
f 273/273/265 301/301/293 302/302/294
f 303/303/295 270/270/262 271/271/263
f 271/271/263 304/304/296 303/303/295
f 305/305/297 306/306/298 270/270/262
f 270/270/262 303/303/295 305/305/297
f 306/306/298 307/307/299 262/262/254
f 262/262/254 270/270/262 306/306/298
f 307/307/299 308/308/300 254/254/246
f 254/254/246 262/262/254 307/307/299
f 308/308/300 309/309/301 246/246/238
f 246/246/238 254/254/246 308/308/300
f 309/309/301 310/310/302 238/238/230
f 238/238/230 246/246/238 309/309/301
f 310/310/302 311/311/303 222/222/214
f 222/222/214 238/238/230 310/310/302
f 311/311/303 278/278/270 223/223/215
f 223/223/215 222/222/214 311/311/303
f 312/312/304 313/313/305 314/314/306
f 314/314/306 315/315/307 312/312/304
f 316/316/308 317/317/309 318/318/310
f 318/318/310 319/319/311 316/316/308
f 319/319/311 318/318/310 320/320/312
f 320/320/312 321/321/313 319/319/311
f 321/321/313 320/320/312 322/322/314
f 322/322/314 323/323/315 321/321/313
f 323/323/315 322/322/314 324/324/316
f 324/324/316 325/325/317 323/323/315
f 325/325/317 324/324/316 326/326/318
f 326/326/318 327/327/319 325/325/317
f 328/328/320 312/312/304 315/315/307
f 315/315/307 329/329/321 328/328/320
f 330/330/322 316/316/308 319/319/311
f 319/319/311 331/331/323 330/330/322
f 331/331/323 319/319/311 321/321/313
f 321/321/313 332/332/324 331/331/323
f 332/332/324 321/321/313 323/323/315
f 323/323/315 333/333/325 332/332/324
f 333/333/325 323/323/315 325/325/317
f 325/325/317 334/334/326 333/333/325
f 334/334/326 325/325/317 327/327/319
f 327/327/319 335/335/327 334/334/326
f 336/336/328 328/328/320 329/329/321
f 329/329/321 337/337/329 336/336/328
f 338/338/330 330/330/322 331/331/323
f 331/331/323 339/339/331 338/338/330
f 339/339/331 331/331/323 332/332/324
f 332/332/324 340/340/332 339/339/331
f 340/340/332 332/332/324 333/333/325
f 333/333/325 341/341/333 340/340/332
f 341/341/333 333/333/325 334/334/326
f 334/334/326 342/342/334 341/341/333
f 342/342/334 334/334/326 335/335/327
f 335/335/327 343/343/335 342/342/334
f 344/344/336 336/336/328 337/337/329
f 337/337/329 345/345/337 344/344/336
f 346/346/338 338/338/330 339/339/331
f 339/339/331 347/347/339 346/346/338
f 347/347/339 339/339/331 340/340/332
f 340/340/332 348/348/340 347/347/339
f 348/348/340 340/340/332 341/341/333
f 341/341/333 349/349/341 348/348/340
f 349/349/341 341/341/333 342/342/334
f 342/342/334 350/350/342 349/349/341
f 350/350/342 342/342/334 343/343/335
f 343/343/335 351/351/343 350/350/342
f 352/352/344 344/344/336 345/345/337
f 345/345/337 353/353/345 352/352/344
f 354/354/346 346/346/338 347/347/339
f 347/347/339 355/355/347 354/354/346
f 355/355/347 347/347/339 348/348/340
f 348/348/340 356/356/348 355/355/347
f 356/356/348 348/348/340 349/349/341
f 349/349/341 357/357/349 356/356/348
f 357/357/349 349/349/341 350/350/342
f 350/350/342 358/358/350 357/357/349
f 358/358/350 350/350/342 351/351/343
f 351/351/343 359/359/351 358/358/350
f 360/360/352 352/352/344 353/353/345
f 353/353/345 361/361/353 360/360/352
f 362/362/354 354/354/346 355/355/347
f 355/355/347 363/363/355 362/362/354
f 363/363/355 355/355/347 356/356/348
f 356/356/348 364/364/356 363/363/355
f 364/364/356 356/356/348 357/357/349
f 357/357/349 365/365/357 364/364/356
f 365/365/357 357/357/349 358/358/350
f 358/358/350 366/366/358 365/365/357
f 366/366/358 358/358/350 359/359/351
f 359/359/351 367/367/359 366/366/358
f 368/368/360 305/305/297 303/303/295
f 303/303/295 313/313/305 368/368/360
f 313/313/305 303/303/295 304/304/296
f 304/304/296 314/314/306 313/313/305
f 317/317/309 302/302/294 301/301/293
f 301/301/293 318/318/310 317/317/309
f 318/318/310 301/301/293 300/300/292
f 300/300/292 320/320/312 318/318/310
f 320/320/312 300/300/292 299/299/291
f 299/299/291 322/322/314 320/320/312
f 322/322/314 299/299/291 298/298/290
f 298/298/290 324/324/316 322/322/314
f 324/324/316 298/298/290 296/296/288
f 296/296/288 326/326/318 324/324/316
f 326/326/318 296/296/288 297/297/289
f 297/297/289 369/369/361 326/326/318
f 327/327/319 326/326/318 369/369/361
f 369/369/361 370/370/362 327/327/319
f 335/335/327 327/327/319 370/370/362
f 370/370/362 371/371/363 335/335/327
f 343/343/335 335/335/327 371/371/363
f 371/371/363 372/372/364 343/343/335
f 351/351/343 343/343/335 372/372/364
f 372/372/364 373/373/365 351/351/343
f 359/359/351 351/351/343 373/373/365
f 373/373/365 374/374/366 359/359/351
f 367/367/359 359/359/351 374/374/366
f 374/374/366 375/375/367 367/367/359
f 376/376/368 367/367/359 375/375/367
f 375/375/367 377/377/369 376/376/368
f 378/378/370 366/366/358 367/367/359
f 367/367/359 376/376/368 378/378/370
f 379/379/371 365/365/357 366/366/358
f 366/366/358 378/378/370 379/379/371
f 380/380/372 364/364/356 365/365/357
f 365/365/357 379/379/371 380/380/372
f 381/381/373 363/363/355 364/364/356
f 364/364/356 380/380/372 381/381/373
f 382/382/374 362/362/354 363/363/355
f 363/363/355 381/381/373 382/382/374
f 383/383/375 360/360/352 361/361/353
f 361/361/353 384/384/376 383/383/375
f 385/385/377 386/386/378 360/360/352
f 360/360/352 383/383/375 385/385/377
f 386/386/378 387/387/379 352/352/344
f 352/352/344 360/360/352 386/386/378
f 387/387/379 388/388/380 344/344/336
f 344/344/336 352/352/344 387/387/379
f 388/388/380 389/389/381 336/336/328
f 336/336/328 344/344/336 388/388/380
f 389/389/381 390/390/382 328/328/320
f 328/328/320 336/336/328 389/389/381
f 390/390/382 391/391/383 312/312/304
f 312/312/304 328/328/320 390/390/382
f 391/391/383 368/368/360 313/313/305
f 313/313/305 312/312/304 391/391/383
f 392/392/384 393/393/385 394/394/386
f 394/394/386 395/395/387 392/392/384
f 396/396/388 397/397/389 398/398/390
f 398/398/390 399/399/391 396/396/388
f 399/399/391 398/398/390 400/400/392
f 400/400/392 401/401/393 399/399/391
f 401/401/393 400/400/392 402/402/394
f 402/402/394 403/403/395 401/401/393
f 403/403/395 402/402/394 404/404/396
f 404/404/396 405/405/397 403/403/395
f 405/405/397 404/404/396 406/406/398
f 406/406/398 407/407/399 405/405/397
f 408/408/400 392/392/384 395/395/387
f 395/395/387 409/409/401 408/408/400
f 410/410/402 396/396/388 399/399/391
f 399/399/391 411/411/403 410/410/402
f 411/411/403 399/399/391 401/401/393
f 401/401/393 412/412/404 411/411/403
f 412/412/404 401/401/393 403/403/395
f 403/403/395 413/413/405 412/412/404
f 413/413/405 403/403/395 405/405/397
f 405/405/397 414/414/406 413/413/405
f 414/414/406 405/405/397 407/407/399
f 407/407/399 415/415/407 414/414/406
f 416/416/408 408/408/400 409/409/401
f 409/409/401 417/417/409 416/416/408
f 418/418/410 410/410/402 411/411/403
f 411/411/403 419/419/411 418/418/410
f 419/419/411 411/411/403 412/412/404
f 412/412/404 420/420/412 419/419/411
f 420/420/412 412/412/404 413/413/405
f 413/413/405 421/421/413 420/420/412
f 421/421/413 413/413/405 414/414/406
f 414/414/406 422/422/414 421/421/413
f 422/422/414 414/414/406 415/415/407
f 415/415/407 423/423/415 422/422/414
f 424/424/416 416/416/408 417/417/409
f 417/417/409 425/425/417 424/424/416
f 426/426/418 418/418/410 419/419/411
f 419/419/411 427/427/419 426/426/418
f 427/427/419 419/419/411 420/420/412
f 420/420/412 428/428/420 427/427/419
f 428/428/420 420/420/412 421/421/413
f 421/421/413 429/429/421 428/428/420
f 429/429/421 421/421/413 422/422/414
f 422/422/414 430/430/422 429/429/421
f 430/430/422 422/422/414 423/423/415
f 423/423/415 431/431/423 430/430/422
f 432/432/424 424/424/416 425/425/417
f 425/425/417 433/433/425 432/432/424
f 434/434/426 426/426/418 427/427/419
f 427/427/419 435/435/427 434/434/426
f 435/435/427 427/427/419 428/428/420
f 428/428/420 436/436/428 435/435/427
f 436/436/428 428/428/420 429/429/421
f 429/429/421 437/437/429 436/436/428
f 437/437/429 429/429/421 430/430/422
f 430/430/422 438/438/430 437/437/429
f 438/438/430 430/430/422 431/431/423
f 431/431/423 439/439/431 438/438/430
f 440/440/432 432/432/424 433/433/425
f 433/433/425 441/441/433 440/440/432
f 442/442/434 434/434/426 435/435/427
f 435/435/427 443/443/435 442/442/434
f 443/443/435 435/435/427 436/436/428
f 436/436/428 444/444/436 443/443/435
f 444/444/436 436/436/428 437/437/429
f 437/437/429 445/445/437 444/444/436
f 445/445/437 437/437/429 438/438/430
f 438/438/430 446/446/438 445/445/437
f 446/446/438 438/438/430 439/439/431
f 439/439/431 447/447/439 446/446/438
f 448/448/440 385/385/377 383/383/375
f 383/383/375 393/393/385 448/448/440
f 393/393/385 383/383/375 384/384/376
f 384/384/376 394/394/386 393/393/385
f 397/397/389 382/382/374 381/381/373
f 381/381/373 398/398/390 397/397/389
f 398/398/390 381/381/373 380/380/372
f 380/380/372 400/400/392 398/398/390
f 400/400/392 380/380/372 379/379/371
f 379/379/371 402/402/394 400/400/392
f 402/402/394 379/379/371 378/378/370
f 378/378/370 404/404/396 402/402/394
f 404/404/396 378/378/370 376/376/368
f 376/376/368 406/406/398 404/404/396
f 406/406/398 376/376/368 377/377/369
f 377/377/369 449/449/441 406/406/398
f 407/407/399 406/406/398 449/449/441
f 449/449/441 450/450/442 407/407/399
f 415/415/407 407/407/399 450/450/442
f 450/450/442 451/451/443 415/415/407
f 423/423/415 415/415/407 451/451/443
f 451/451/443 452/452/444 423/423/415
f 431/431/423 423/423/415 452/452/444
f 452/452/444 453/453/445 431/431/423
f 439/439/431 431/431/423 453/453/445
f 453/453/445 454/454/446 439/439/431
f 447/447/439 439/439/431 454/454/446
f 454/454/446 455/455/447 447/447/439
f 456/456/448 447/447/439 455/455/447
f 455/455/447 457/457/449 456/456/448
f 458/458/450 446/446/438 447/447/439
f 447/447/439 456/456/448 458/458/450
f 459/459/451 445/445/437 446/446/438
f 446/446/438 458/458/450 459/459/451
f 460/460/452 444/444/436 445/445/437
f 445/445/437 459/459/451 460/460/452
f 461/461/453 443/443/435 444/444/436
f 444/444/436 460/460/452 461/461/453
f 462/462/454 442/442/434 443/443/435
f 443/443/435 461/461/453 462/462/454
f 463/463/455 440/440/432 441/441/433
f 441/441/433 464/464/456 463/463/455
f 465/465/457 466/466/458 440/440/432
f 440/440/432 463/463/455 465/465/457
f 466/466/458 467/467/459 432/432/424
f 432/432/424 440/440/432 466/466/458
f 467/467/459 468/468/460 424/424/416
f 424/424/416 432/432/424 467/467/459
f 468/468/460 469/469/461 416/416/408
f 416/416/408 424/424/416 468/468/460
f 469/469/461 470/470/462 408/408/400
f 408/408/400 416/416/408 469/469/461
f 470/470/462 471/471/463 392/392/384
f 392/392/384 408/408/400 470/470/462
f 471/471/463 448/448/440 393/393/385
f 393/393/385 392/392/384 471/471/463
f 472/472/464 473/473/465 474/474/466
f 474/474/466 475/475/467 472/472/464
f 476/476/468 477/477/469 478/478/470
f 478/478/470 479/479/471 476/476/468
f 479/479/471 478/478/470 480/480/472
f 480/480/472 481/481/473 479/479/471
f 481/481/473 480/480/472 482/482/474
f 482/482/474 483/483/475 481/481/473
f 483/483/475 482/482/474 484/484/476
f 484/484/476 485/485/477 483/483/475
f 485/485/477 484/484/476 486/486/478
f 486/486/478 487/487/479 485/485/477
f 488/488/480 472/472/464 475/475/467
f 475/475/467 489/489/481 488/488/480
f 490/490/482 476/476/468 479/479/471
f 479/479/471 491/491/483 490/490/482
f 491/491/483 479/479/471 481/481/473
f 481/481/473 492/492/484 491/491/483
f 492/492/484 481/481/473 483/483/475
f 483/483/475 493/493/485 492/492/484
f 493/493/485 483/483/475 485/485/477
f 485/485/477 494/494/486 493/493/485
f 494/494/486 485/485/477 487/487/479
f 487/487/479 495/495/487 494/494/486
f 496/496/488 488/488/480 489/489/481
f 489/489/481 497/497/489 496/496/488
f 498/498/490 490/490/482 491/491/483
f 491/491/483 499/499/491 498/498/490
f 499/499/491 491/491/483 492/492/484
f 492/492/484 500/500/492 499/499/491
f 500/500/492 492/492/484 493/493/485
f 493/493/485 501/501/493 500/500/492
f 501/501/493 493/493/485 494/494/486
f 494/494/486 502/502/494 501/501/493
f 502/502/494 494/494/486 495/495/487
f 495/495/487 503/503/495 502/502/494
f 504/504/496 496/496/488 497/497/489
f 497/497/489 505/505/497 504/504/496
f 506/506/498 498/498/490 499/499/491
f 499/499/491 507/507/499 506/506/498
f 507/507/499 499/499/491 500/500/492
f 500/500/492 508/508/500 507/507/499
f 508/508/500 500/500/492 501/501/493
f 501/501/493 509/509/501 508/508/500
f 509/509/501 501/501/493 502/502/494
f 502/502/494 510/510/502 509/509/501
f 510/510/502 502/502/494 503/503/495
f 503/503/495 511/511/503 510/510/502
f 512/512/504 504/504/496 505/505/497
f 505/505/497 513/513/505 512/512/504
f 514/514/506 506/506/498 507/507/499
f 507/507/499 515/515/507 514/514/506
f 515/515/507 507/507/499 508/508/500
f 508/508/500 516/516/508 515/515/507
f 516/516/508 508/508/500 509/509/501
f 509/509/501 517/517/509 516/516/508
f 517/517/509 509/509/501 510/510/502
f 510/510/502 518/518/510 517/517/509
f 518/518/510 510/510/502 511/511/503
f 511/511/503 519/519/511 518/518/510
f 520/520/512 512/512/504 513/513/505
f 513/513/505 521/521/513 520/520/512
f 522/522/514 514/514/506 515/515/507
f 515/515/507 523/523/515 522/522/514
f 523/523/515 515/515/507 516/516/508
f 516/516/508 524/524/516 523/523/515
f 524/524/516 516/516/508 517/517/509
f 517/517/509 525/525/517 524/524/516
f 525/525/517 517/517/509 518/518/510
f 518/518/510 526/526/518 525/525/517
f 526/526/518 518/518/510 519/519/511
f 519/519/511 527/527/519 526/526/518
f 528/528/520 465/465/457 463/463/455
f 463/463/455 473/473/465 528/528/520
f 473/473/465 463/463/455 464/464/456
f 464/464/456 474/474/466 473/473/465
f 477/477/469 462/462/454 461/461/453
f 461/461/453 478/478/470 477/477/469
f 478/478/470 461/461/453 460/460/452
f 460/460/452 480/480/472 478/478/470
f 480/480/472 460/460/452 459/459/451
f 459/459/451 482/482/474 480/480/472
f 482/482/474 459/459/451 458/458/450
f 458/458/450 484/484/476 482/482/474
f 484/484/476 458/458/450 456/456/448
f 456/456/448 486/486/478 484/484/476
f 486/486/478 456/456/448 457/457/449
f 457/457/449 529/529/521 486/486/478
f 487/487/479 486/486/478 529/529/521
f 529/529/521 530/530/522 487/487/479
f 495/495/487 487/487/479 530/530/522
f 530/530/522 531/531/523 495/495/487
f 503/503/495 495/495/487 531/531/523
f 531/531/523 532/532/524 503/503/495
f 511/511/503 503/503/495 532/532/524
f 532/532/524 533/533/525 511/511/503
f 519/519/511 511/511/503 533/533/525
f 533/533/525 534/534/526 519/519/511
f 527/527/519 519/519/511 534/534/526
f 534/534/526 535/535/527 527/527/519
f 287/287/279 527/527/519 535/535/527
f 535/535/527 288/288/280 287/287/279
f 286/286/278 526/526/518 527/527/519
f 527/527/519 287/287/279 286/286/278
f 285/285/277 525/525/517 526/526/518
f 526/526/518 286/286/278 285/285/277
f 284/284/276 524/524/516 525/525/517
f 525/525/517 285/285/277 284/284/276
f 283/283/275 523/523/515 524/524/516
f 524/524/516 284/284/276 283/283/275
f 282/282/274 522/522/514 523/523/515
f 523/523/515 283/283/275 282/282/274
f 280/280/272 520/520/512 521/521/513
f 521/521/513 281/281/273 280/280/272
f 279/279/271 536/536/528 520/520/512
f 520/520/512 280/280/272 279/279/271
f 536/536/528 537/537/529 512/512/504
f 512/512/504 520/520/512 536/536/528
f 537/537/529 538/538/530 504/504/496
f 504/504/496 512/512/504 537/537/529
f 538/538/530 539/539/531 496/496/488
f 496/496/488 504/504/496 538/538/530
f 539/539/531 540/540/532 488/488/480
f 488/488/480 496/496/488 539/539/531
f 540/540/532 541/541/533 472/472/464
f 472/472/464 488/488/480 540/540/532
f 541/541/533 528/528/520 473/473/465
f 473/473/465 472/472/464 541/541/533
f 542/542/534 543/543/535 544/544/536
f 544/544/536 545/545/537 542/542/534
f 545/545/537 544/544/536 546/546/538
f 546/546/538 547/547/539 545/545/537
f 547/547/539 546/546/538 548/548/540
f 548/548/540 549/549/541 547/547/539
f 549/549/541 548/548/540 550/550/542
f 550/550/542 551/551/543 549/549/541
f 551/551/543 550/550/542 552/552/544
f 552/552/544 553/553/545 551/551/543
f 553/553/545 552/552/544 554/554/546
f 554/554/546 555/555/547 553/553/545
f 556/556/548 542/542/534 545/545/537
f 545/545/537 557/557/549 556/556/548
f 557/557/549 545/545/537 547/547/539
f 547/547/539 558/558/550 557/557/549
f 558/558/550 547/547/539 549/549/541
f 549/549/541 559/559/551 558/558/550
f 559/559/551 549/549/541 551/551/543
f 551/551/543 560/560/552 559/559/551
f 560/560/552 551/551/543 553/553/545
f 553/553/545 561/561/553 560/560/552
f 561/561/553 553/553/545 555/555/547
f 555/555/547 562/562/554 561/561/553
f 563/563/555 556/556/548 557/557/549
f 557/557/549 564/564/556 563/563/555
f 564/564/556 557/557/549 558/558/550
f 558/558/550 565/565/557 564/564/556
f 565/565/557 558/558/550 559/559/551
f 559/559/551 566/566/558 565/565/557
f 566/566/558 559/559/551 560/560/552
f 560/560/552 567/567/559 566/566/558
f 567/567/559 560/560/552 561/561/553
f 561/561/553 568/568/560 567/567/559
f 568/568/560 561/561/553 562/562/554
f 562/562/554 569/569/561 568/568/560
f 570/570/562 563/563/555 564/564/556
f 564/564/556 571/571/563 570/570/562
f 571/571/563 564/564/556 565/565/557
f 565/565/557 572/572/564 571/571/563
f 572/572/564 565/565/557 566/566/558
f 566/566/558 573/573/565 572/572/564
f 573/573/565 566/566/558 567/567/559
f 567/567/559 574/574/566 573/573/565
f 574/574/566 567/567/559 568/568/560
f 568/568/560 575/575/567 574/574/566
f 575/575/567 568/568/560 569/569/561
f 569/569/561 576/576/568 575/575/567
f 577/577/569 570/570/562 571/571/563
f 571/571/563 578/578/570 577/577/569
f 578/578/570 571/571/563 572/572/564
f 572/572/564 579/579/571 578/578/570
f 579/579/571 572/572/564 573/573/565
f 573/573/565 580/580/572 579/579/571
f 580/580/572 573/573/565 574/574/566
f 574/574/566 581/581/573 580/580/572
f 581/581/573 574/574/566 575/575/567
f 575/575/567 582/582/574 581/581/573
f 582/582/574 575/575/567 576/576/568
f 576/576/568 583/583/575 582/582/574
f 584/584/576 577/577/569 578/578/570
f 578/578/570 585/585/577 584/584/576
f 585/585/577 578/578/570 579/579/571
f 579/579/571 586/586/578 585/585/577
f 586/586/578 579/579/571 580/580/572
f 580/580/572 587/587/579 586/586/578
f 587/587/579 580/580/572 581/581/573
f 581/581/573 588/588/580 587/587/579
f 588/588/580 581/581/573 582/582/574
f 582/582/574 589/589/581 588/588/580
f 589/589/581 582/582/574 583/583/575
f 583/583/575 590/590/582 589/589/581
f 306/306/298 305/305/297 368/368/360
f 368/368/360 543/543/535 306/306/298
f 543/543/535 368/368/360 391/391/383
f 391/391/383 544/544/536 543/543/535
f 544/544/536 391/391/383 390/390/382
f 390/390/382 546/546/538 544/544/536
f 546/546/538 390/390/382 389/389/381
f 389/389/381 548/548/540 546/546/538
f 548/548/540 389/389/381 388/388/380
f 388/388/380 550/550/542 548/548/540
f 550/550/542 388/388/380 387/387/379
f 387/387/379 552/552/544 550/550/542
f 552/552/544 387/387/379 386/386/378
f 386/386/378 554/554/546 552/552/544
f 554/554/546 386/386/378 385/385/377
f 385/385/377 448/448/440 554/554/546
f 555/555/547 554/554/546 448/448/440
f 448/448/440 471/471/463 555/555/547
f 562/562/554 555/555/547 471/471/463
f 471/471/463 470/470/462 562/562/554
f 569/569/561 562/562/554 470/470/462
f 470/470/462 469/469/461 569/569/561
f 576/576/568 569/569/561 469/469/461
f 469/469/461 468/468/460 576/576/568
f 583/583/575 576/576/568 468/468/460
f 468/468/460 467/467/459 583/583/575
f 590/590/582 583/583/575 467/467/459
f 467/467/459 466/466/458 590/590/582
f 528/528/520 590/590/582 466/466/458
f 466/466/458 465/465/457 528/528/520
f 541/541/533 589/589/581 590/590/582
f 590/590/582 528/528/520 541/541/533
f 540/540/532 588/588/580 589/589/581
f 589/589/581 541/541/533 540/540/532
f 539/539/531 587/587/579 588/588/580
f 588/588/580 540/540/532 539/539/531
f 538/538/530 586/586/578 587/587/579
f 587/587/579 539/539/531 538/538/530
f 537/537/529 585/585/577 586/586/578
f 586/586/578 538/538/530 537/537/529
f 536/536/528 584/584/576 585/585/577
f 585/585/577 537/537/529 536/536/528
f 279/279/271 278/278/270 584/584/576
f 584/584/576 536/536/528 279/279/271
f 278/278/270 311/311/303 577/577/569
f 577/577/569 584/584/576 278/278/270
f 311/311/303 310/310/302 570/570/562
f 570/570/562 577/577/569 311/311/303
f 310/310/302 309/309/301 563/563/555
f 563/563/555 570/570/562 310/310/302
f 309/309/301 308/308/300 556/556/548
f 556/556/548 563/563/555 309/309/301
f 308/308/300 307/307/299 542/542/534
f 542/542/534 556/556/548 308/308/300
f 307/307/299 306/306/298 543/543/535
f 543/543/535 542/542/534 307/307/299
f 591/591/583 592/592/584 593/593/585
f 593/593/585 594/594/586 591/591/583
f 594/594/586 593/593/585 595/595/587
f 595/595/587 596/596/588 594/594/586
f 596/596/588 595/595/587 597/597/589
f 597/597/589 598/598/590 596/596/588
f 598/598/590 597/597/589 599/599/591
f 599/599/591 600/600/592 598/598/590
f 600/600/592 599/599/591 601/601/593
f 601/601/593 602/602/594 600/600/592
f 602/602/594 601/601/593 603/603/595
f 603/603/595 604/604/596 602/602/594
f 605/605/597 591/591/583 594/594/586
f 594/594/586 606/606/598 605/605/597
f 606/606/598 594/594/586 596/596/588
f 596/596/588 607/607/599 606/606/598
f 607/607/599 596/596/588 598/598/590
f 598/598/590 608/608/600 607/607/599
f 608/608/600 598/598/590 600/600/592
f 600/600/592 609/609/601 608/608/600
f 609/609/601 600/600/592 602/602/594
f 602/602/594 610/610/602 609/609/601
f 610/610/602 602/602/594 604/604/596
f 604/604/596 611/611/603 610/610/602
f 612/612/604 605/605/597 606/606/598
f 606/606/598 613/613/605 612/612/604
f 613/613/605 606/606/598 607/607/599
f 607/607/599 614/614/606 613/613/605
f 614/614/606 607/607/599 608/608/600
f 608/608/600 615/615/607 614/614/606
f 615/615/607 608/608/600 609/609/601
f 609/609/601 616/616/608 615/615/607
f 616/616/608 609/609/601 610/610/602
f 610/610/602 617/617/609 616/616/608
f 617/617/609 610/610/602 611/611/603
f 611/611/603 618/618/610 617/617/609
f 619/619/611 612/612/604 613/613/605
f 613/613/605 620/620/612 619/619/611
f 620/620/612 613/613/605 614/614/606
f 614/614/606 621/621/613 620/620/612
f 621/621/613 614/614/606 615/615/607
f 615/615/607 622/622/614 621/621/613
f 622/622/614 615/615/607 616/616/608
f 616/616/608 623/623/615 622/622/614
f 623/623/615 616/616/608 617/617/609
f 617/617/609 624/624/616 623/623/615
f 624/624/616 617/617/609 618/618/610
f 618/618/610 625/625/617 624/624/616
f 626/626/618 619/619/611 620/620/612
f 620/620/612 627/627/619 626/626/618
f 627/627/619 620/620/612 621/621/613
f 621/621/613 628/628/620 627/627/619
f 628/628/620 621/621/613 622/622/614
f 622/622/614 629/629/621 628/628/620
f 629/629/621 622/622/614 623/623/615
f 623/623/615 630/630/622 629/629/621
f 630/630/622 623/623/615 624/624/616
f 624/624/616 631/631/623 630/630/622
f 631/631/623 624/624/616 625/625/617
f 625/625/617 632/632/624 631/631/623
f 633/633/625 626/626/618 627/627/619
f 627/627/619 634/634/626 633/633/625
f 634/634/626 627/627/619 628/628/620
f 628/628/620 635/635/627 634/634/626
f 635/635/627 628/628/620 629/629/621
f 629/629/621 636/636/628 635/635/627
f 636/636/628 629/629/621 630/630/622
f 630/630/622 637/637/629 636/636/628
f 637/637/629 630/630/622 631/631/623
f 631/631/623 638/638/630 637/637/629
f 638/638/630 631/631/623 632/632/624
f 632/632/624 639/639/631 638/638/630
f 449/449/441 377/377/369 375/375/367
f 375/375/367 592/592/584 449/449/441
f 592/592/584 375/375/367 374/374/366
f 374/374/366 593/593/585 592/592/584
f 593/593/585 374/374/366 373/373/365
f 373/373/365 595/595/587 593/593/585
f 595/595/587 373/373/365 372/372/364
f 372/372/364 597/597/589 595/595/587
f 597/597/589 372/372/364 371/371/363
f 371/371/363 599/599/591 597/597/589
f 599/599/591 371/371/363 370/370/362
f 370/370/362 601/601/593 599/599/591
f 601/601/593 370/370/362 369/369/361
f 369/369/361 603/603/595 601/601/593
f 603/603/595 369/369/361 297/297/289
f 297/297/289 295/295/287 603/603/595
f 604/604/596 603/603/595 295/295/287
f 295/295/287 294/294/286 604/604/596
f 611/611/603 604/604/596 294/294/286
f 294/294/286 293/293/285 611/611/603
f 618/618/610 611/611/603 293/293/285
f 293/293/285 292/292/284 618/618/610
f 625/625/617 618/618/610 292/292/284
f 292/292/284 291/291/283 625/625/617
f 632/632/624 625/625/617 291/291/283
f 291/291/283 290/290/282 632/632/624
f 639/639/631 632/632/624 290/290/282
f 290/290/282 289/289/281 639/639/631
f 535/535/527 639/639/631 289/289/281
f 289/289/281 288/288/280 535/535/527
f 534/534/526 638/638/630 639/639/631
f 639/639/631 535/535/527 534/534/526
f 533/533/525 637/637/629 638/638/630
f 638/638/630 534/534/526 533/533/525
f 532/532/524 636/636/628 637/637/629
f 637/637/629 533/533/525 532/532/524
f 531/531/523 635/635/627 636/636/628
f 636/636/628 532/532/524 531/531/523
f 530/530/522 634/634/626 635/635/627
f 635/635/627 531/531/523 530/530/522
f 529/529/521 633/633/625 634/634/626
f 634/634/626 530/530/522 529/529/521
f 457/457/449 455/455/447 633/633/625
f 633/633/625 529/529/521 457/457/449
f 455/455/447 454/454/446 626/626/618
f 626/626/618 633/633/625 455/455/447
f 454/454/446 453/453/445 619/619/611
f 619/619/611 626/626/618 454/454/446
f 453/453/445 452/452/444 612/612/604
f 612/612/604 619/619/611 453/453/445
f 452/452/444 451/451/443 605/605/597
f 605/605/597 612/612/604 452/452/444
f 451/451/443 450/450/442 591/591/583
f 591/591/583 605/605/597 451/451/443
f 450/450/442 449/449/441 592/592/584
f 592/592/584 591/591/583 450/450/442
