# Blender v3.6.19 OBJ File: 'mushroom2.blend'
# www.blender.org
mtllib mushroom2.mtl
o defaultMaterial.003_defaultMaterial.015
v -0.006662 0.027957 0.051778
v -0.012287 0.027377 0.051559
v -0.012551 0.029026 0.051273
v -0.006656 0.030224 0.051007
v -0.006656 0.030224 0.051007
v -0.012551 0.029026 0.051273
v -0.013830 0.032366 0.053474
v -0.007246 0.033974 0.053076
v -0.013874 0.032773 0.058164
v -0.007172 0.034378 0.057913
v -0.011700 0.028449 0.064473
v -0.005790 0.029559 0.064612
v -0.008766 0.022195 0.070791
v -0.004052 0.022754 0.071314
v -0.007035 0.017861 0.076456
v -0.003187 0.018243 0.077527
v -0.000718 0.027674 0.051994
v -0.000467 0.030378 0.050754
v -0.000467 0.030378 0.050754
v -0.000331 0.034344 0.052669
v -0.000173 0.034682 0.057672
v 0.000235 0.029430 0.064846
v 0.000677 0.022382 0.071892
v 0.000831 0.018015 0.078559
v 0.005273 0.026741 0.052098
v 0.005790 0.029594 0.050623
v 0.005790 0.029594 0.050623
v 0.006641 0.033533 0.052445
v 0.006887 0.033849 0.057506
v 0.006128 0.028353 0.065038
v 0.005216 0.021361 0.072268
v 0.004791 0.017231 0.079112
v 0.011158 0.025228 0.052013
v 0.011872 0.027902 0.050643
v 0.011872 0.027902 0.050643
v 0.013397 0.031594 0.052455
v 0.013728 0.031878 0.057465
v 0.011855 0.026625 0.064987
v 0.009530 0.019891 0.072247
v 0.008519 0.015948 0.078945
v 0.016724 0.023127 0.052007
v 0.017540 0.025322 0.051013
v 0.017540 0.025322 0.051013
v 0.019662 0.028567 0.052813
v 0.020065 0.028793 0.057687
v 0.017323 0.024171 0.064946
v 0.013653 0.018016 0.071985
v 0.011901 0.014271 0.078141
v 0.021648 0.020434 0.051584
v 0.022515 0.021917 0.051090
v 0.022515 0.021917 0.051090
v 0.025126 0.024520 0.052871
v 0.025588 0.024668 0.057587
v 0.022153 0.020802 0.064631
v 0.017477 0.015636 0.071383
v 0.014893 0.012342 0.077021
v -0.011514 0.022937 0.054260
v -0.015657 0.023395 0.052937
v -0.017185 0.025566 0.051517
v -0.017901 0.026606 0.051479
v -0.017901 0.026606 0.051479
v -0.019791 0.029399 0.053729
v -0.019961 0.029748 0.058350
v -0.017095 0.025897 0.064519
v -0.013058 0.020336 0.070661
v -0.010389 0.016553 0.075977
v -0.009091 0.014692 0.080131
v -0.006560 0.014891 0.082076
v -0.003058 0.014862 0.084196
v 0.000706 0.014468 0.085671
v 0.004433 0.013693 0.086232
v 0.007932 0.012549 0.085751
v 0.011103 0.011208 0.084340
v 0.013854 0.009835 0.082275
v 0.017250 0.009970 0.076278
v 0.015797 0.008762 0.080331
v 0.020498 0.012444 0.070909
v 0.025996 0.016486 0.064231
v 0.029999 0.019555 0.057265
v 0.029478 0.019494 0.052606
v 0.026512 0.017639 0.050857
v 0.025446 0.016918 0.051125
v 0.026512 0.017639 0.050857
v 0.023254 0.015348 0.053099
v 0.019356 0.016355 0.054903
v 0.014374 0.017564 0.056758
v 0.009269 0.018780 0.057703
v 0.004243 0.020043 0.057882
v -0.000900 0.021194 0.057234
v -0.006225 0.022177 0.055906
v 0.027913 0.006458 0.052143
v 0.027275 0.012053 0.051422
v 0.028957 0.012323 0.050812
v 0.030208 0.006454 0.050899
v 0.030208 0.006454 0.050899
v 0.028957 0.012323 0.050812
v 0.032477 0.013572 0.052362
v 0.034131 0.007018 0.052205
v 0.033058 0.013543 0.057034
v 0.034768 0.006895 0.056959
v 0.028538 0.011286 0.064204
v 0.029821 0.005541 0.064458
v 0.022318 0.008420 0.071071
v 0.023075 0.003943 0.071616
v 0.018575 0.006841 0.076757
v 0.019157 0.003179 0.077774
v 0.027738 0.000525 0.052722
v 0.030415 0.000282 0.050947
v 0.030415 0.000282 0.050947
v 0.034520 0.000135 0.052063
v 0.035190 -0.000085 0.056906
v 0.030007 -0.000423 0.064695
v 0.023061 -0.000680 0.072079
v 0.019194 -0.000764 0.078618
v 0.026879 -0.005448 0.052696
v 0.029642 -0.005931 0.050755
v 0.029642 -0.005931 0.050755
v 0.033714 -0.006789 0.051825
v 0.034385 -0.007105 0.056731
v 0.029249 -0.006366 0.064663
v 0.022426 -0.005273 0.072171
v 0.018678 -0.004768 0.078866
v 0.025360 -0.011264 0.051994
v 0.027950 -0.011949 0.050260
v 0.027950 -0.011949 0.050260
v 0.031780 -0.013479 0.051413
v 0.032415 -0.013881 0.056292
v 0.027652 -0.012125 0.064177
v 0.021237 -0.009734 0.071706
v 0.017625 -0.008639 0.078343
v 0.023235 -0.016736 0.050708
v 0.025372 -0.017531 0.049508
v 0.025372 -0.017531 0.049508
v 0.028758 -0.019661 0.050834
v 0.029327 -0.020134 0.055639
v 0.025177 -0.017513 0.063341
v 0.019466 -0.013950 0.070807
v 0.016097 -0.012205 0.077208
v 0.020492 -0.021576 0.049399
v 0.021950 -0.022432 0.048803
v 0.021950 -0.022432 0.048803
v 0.024696 -0.025054 0.050339
v 0.025179 -0.025587 0.055065
v 0.021776 -0.022276 0.062525
v 0.017043 -0.017728 0.069842
v 0.014159 -0.015281 0.075883
v 0.022790 0.011235 0.054958
v 0.016121 0.006376 0.082140
v 0.016300 0.003030 0.084061
v 0.016157 -0.000651 0.085347
v 0.015624 -0.004408 0.085710
v 0.014682 -0.008048 0.085094
v 0.013429 -0.011415 0.083586
v 0.012012 -0.014310 0.081441
v 0.011728 -0.017612 0.075165
v 0.010818 -0.016263 0.079450
v 0.013813 -0.020710 0.069367
v 0.017424 -0.026076 0.062142
v 0.020032 -0.029950 0.054827
v 0.019640 -0.029359 0.050120
v 0.017641 -0.026379 0.048425
v 0.016931 -0.025322 0.048721
v 0.017641 -0.026379 0.048425
v 0.015486 -0.023173 0.050788
v 0.016622 -0.019347 0.052997
v 0.017972 -0.014466 0.055847
v 0.019258 -0.009449 0.058030
v 0.020401 -0.004379 0.058984
v 0.021317 0.000779 0.058721
v 0.022104 0.006031 0.057213
v 0.006488 -0.027749 0.049653
v 0.012067 -0.027129 0.049080
v 0.012303 -0.028794 0.048516
v 0.006408 -0.030014 0.048531
v 0.006408 -0.030014 0.048531
v 0.012303 -0.028794 0.048516
v 0.013685 -0.032326 0.050176
v 0.007091 -0.033948 0.050134
v 0.013989 -0.032979 0.054929
v 0.007308 -0.034660 0.055036
v 0.012211 -0.028596 0.062363
v 0.006459 -0.029861 0.062747
v 0.009794 -0.022518 0.069714
v 0.005348 -0.023281 0.070401
v 0.008627 -0.018947 0.075809
v 0.005104 -0.019657 0.076944
v 0.000552 -0.027550 0.049945
v 0.000198 -0.030187 0.048361
v 0.000198 -0.030187 0.048361
v 0.000155 -0.034301 0.049895
v 0.000282 -0.035049 0.054927
v 0.000476 -0.030020 0.062949
v 0.000826 -0.023442 0.070777
v 0.001321 -0.019943 0.077772
v -0.005466 -0.026670 0.049837
v -0.006070 -0.029389 0.048117
v -0.006070 -0.029389 0.048117
v -0.006829 -0.033471 0.049660
v -0.006795 -0.034219 0.054757
v -0.005475 -0.029395 0.062832
v -0.003717 -0.023123 0.070701
v -0.002624 -0.019724 0.077950
v -0.011358 -0.025202 0.049516
v -0.012153 -0.027697 0.048053
v -0.012153 -0.027697 0.048053
v -0.013583 -0.031535 0.049709
v -0.013637 -0.032265 0.054755
v -0.011325 -0.028092 0.062473
v -0.008288 -0.022273 0.070217
v -0.006591 -0.018898 0.077400
v -0.016951 -0.023149 0.049245
v -0.017809 -0.025182 0.048312
v -0.017809 -0.025182 0.048312
v -0.019828 -0.028553 0.050165
v -0.019982 -0.029300 0.055037
v -0.016931 -0.025871 0.062211
v -0.012781 -0.020750 0.069591
v -0.010378 -0.017464 0.076338
v -0.021912 -0.020434 0.049225
v -0.022787 -0.021829 0.048832
v -0.022787 -0.021829 0.048832
v -0.025285 -0.024567 0.050863
v -0.025547 -0.025260 0.055581
v -0.021955 -0.022567 0.062259
v -0.016908 -0.018389 0.069148
v -0.013752 -0.015516 0.075266
v 0.011480 -0.022731 0.052686
v 0.008574 -0.016635 0.081363
v 0.005461 -0.016963 0.083354
v 0.001991 -0.017070 0.084730
v -0.001688 -0.016807 0.085223
v -0.005432 -0.016070 0.084737
v -0.009052 -0.014881 0.083291
v -0.012270 -0.013391 0.081171
v -0.016326 -0.012972 0.074893
v -0.014490 -0.012074 0.079216
v -0.020155 -0.015027 0.069250
v -0.025948 -0.018151 0.062677
v -0.029994 -0.020151 0.056238
v -0.029638 -0.019565 0.051600
v -0.026786 -0.017562 0.049467
v -0.025726 -0.016883 0.049551
v -0.026786 -0.017562 0.049467
v -0.023501 -0.015577 0.051082
v -0.019522 -0.016842 0.052290
v -0.014370 -0.018296 0.053929
v -0.009091 -0.019543 0.055420
v -0.003908 -0.020520 0.056297
v 0.001218 -0.021292 0.056229
v 0.006399 -0.022066 0.054866
v -0.028142 -0.006481 0.050976
v -0.027544 -0.012046 0.050233
v -0.029223 -0.012245 0.049944
v -0.030448 -0.006360 0.050151
v -0.030448 -0.006360 0.050151
v -0.029223 -0.012245 0.049944
v -0.032628 -0.013632 0.052040
v -0.034265 -0.007054 0.052110
v -0.033050 -0.014086 0.056727
v -0.034707 -0.007371 0.056941
v -0.028531 -0.012769 0.063297
v -0.029743 -0.006825 0.063852
v -0.022036 -0.010743 0.069981
v -0.022731 -0.006008 0.070869
v -0.017688 -0.009660 0.075849
v -0.018251 -0.005851 0.077305
v -0.027922 -0.000566 0.051525
v -0.030635 -0.000183 0.050257
v -0.030635 -0.000183 0.050257
v -0.034650 -0.000161 0.052116
v -0.035087 -0.000364 0.057093
v -0.029850 -0.000721 0.064328
v -0.022647 -0.001171 0.071612
v -0.018277 -0.001728 0.078582
v -0.027048 0.005417 0.051828
v -0.029859 0.006034 0.050402
v -0.029859 0.006034 0.050402
v -0.033848 0.006767 0.052244
v -0.034272 0.006666 0.057289
v -0.029054 0.005346 0.064642
v -0.021953 0.003647 0.072015
v -0.017722 0.002532 0.079176
v -0.025543 0.011279 0.051969
v -0.028175 0.012063 0.050710
v -0.028175 0.012063 0.050710
v -0.031914 0.013459 0.052619
v -0.032310 0.013461 0.057604
v -0.027444 0.011256 0.064771
v -0.020729 0.008376 0.071965
v -0.016583 0.006708 0.078894
v -0.023453 0.016839 0.051950
v -0.025617 0.017678 0.051112
v -0.025617 0.017678 0.051112
v -0.028900 0.019651 0.053118
v -0.029254 0.019771 0.057953
v -0.024984 0.016863 0.064743
v -0.018930 0.012909 0.071583
v -0.014950 0.010580 0.077914
v -0.020741 0.021775 0.051715
v -0.022211 0.022628 0.051433
v -0.022211 0.022628 0.051433
v -0.024849 0.025070 0.053615
v -0.025130 0.025320 0.058302
v -0.021563 0.021899 0.064687
v -0.016452 0.017061 0.071069
v -0.012937 0.013967 0.076735
v -0.022999 -0.011663 0.052940
v -0.014738 -0.009711 0.081458
v -0.014852 -0.006329 0.083970
v -0.014652 -0.002498 0.085792
v -0.014060 0.001524 0.086541
v -0.013044 0.005506 0.086088
v -0.011724 0.009237 0.084544
v -0.010273 0.012473 0.082260
v -0.016731 0.019473 0.054379
v -0.017999 0.014351 0.056185
v -0.019226 0.009089 0.057343
v -0.020366 0.003863 0.057549
v -0.021331 -0.001367 0.056906
v -0.022215 -0.006596 0.055276
v 0.011249 0.010516 0.062575
v 0.016279 0.010369 0.059130
v 0.014665 0.005398 0.062837
v 0.009104 0.005102 0.067568
v 0.013746 0.001029 0.065014
v 0.008620 0.001359 0.070480
v 0.013013 -0.003137 0.065538
v 0.008024 -0.002350 0.071356
v 0.012094 -0.007213 0.064553
v 0.007163 -0.005935 0.070202
v 0.011274 -0.011419 0.061828
v 0.006204 -0.009359 0.066957
v 0.010890 -0.016339 0.057536
v 0.006164 -0.014814 0.061442
v 0.007082 0.011275 0.064449
v 0.005765 0.005920 0.070386
v 0.005029 0.001938 0.073962
v 0.004381 -0.001749 0.074888
v 0.003574 -0.005331 0.073717
v 0.002771 -0.009036 0.069959
v 0.002005 -0.014055 0.063670
v 0.003094 0.012306 0.064828
v 0.002264 0.006807 0.071196
v 0.001574 0.002730 0.075054
v 0.000849 -0.001092 0.076313
v 0.000062 -0.004801 0.074795
v -0.000816 -0.008562 0.070822
v -0.002081 -0.013490 0.064044
v -0.001073 0.013237 0.063888
v -0.001444 0.007546 0.070043
v -0.002087 0.003473 0.073903
v -0.002885 -0.000292 0.074939
v -0.003590 -0.003995 0.073681
v -0.004514 -0.007732 0.069661
v -0.006282 -0.012671 0.062980
v -0.005545 0.014393 0.061532
v -0.005252 0.008271 0.066907
v -0.006088 0.004480 0.070177
v -0.006941 0.000664 0.071134
v -0.007612 -0.003109 0.069925
v -0.008262 -0.006694 0.066448
v -0.010810 -0.011813 0.060445
v -0.010678 0.016276 0.057976
v -0.010840 0.010883 0.061736
v -0.011542 0.006304 0.064087
v -0.012464 0.002013 0.064662
v -0.013260 -0.002249 0.063749
v -0.014343 -0.006562 0.061038
v -0.016226 -0.011310 0.056708
v 0.006170 -0.013884 0.088589
v 0.009293 -0.013968 0.085684
v 0.010330 -0.010879 0.088708
v 0.007092 -0.010597 0.092504
v 0.011389 -0.007517 0.090640
v 0.008076 -0.007125 0.095043
v 0.012276 -0.003945 0.091392
v 0.008954 -0.003450 0.096054
v 0.012840 -0.000264 0.090889
v 0.009572 0.000340 0.095302
v 0.013171 0.003369 0.089174
v 0.010028 0.004088 0.092986
v 0.013424 0.006806 0.086337
v 0.010487 0.007730 0.089288
v 0.002785 -0.013765 0.090438
v 0.003672 -0.010355 0.095053
v 0.004627 -0.006776 0.098470
v 0.005505 -0.002896 0.099811
v 0.006208 0.001106 0.098748
v 0.006750 0.005004 0.095573
v 0.007310 0.008802 0.091216
v -0.000796 -0.013417 0.091185
v 0.000032 -0.009912 0.096125
v 0.000873 -0.006225 0.100002
v 0.001717 -0.002201 0.101598
v 0.002512 0.001938 0.100285
v 0.003214 0.005928 0.096701
v 0.003871 0.009821 0.092032
v -0.004466 -0.012685 0.090701
v -0.003705 -0.009142 0.095475
v -0.003022 -0.005399 0.099064
v -0.002254 -0.001363 0.100499
v -0.001385 0.002747 0.099350
v -0.000521 0.006698 0.095993
v 0.000210 0.010578 0.091476
v -0.008095 -0.011660 0.088907
v -0.007423 -0.008136 0.093073
v -0.006856 -0.004394 0.095915
v -0.006169 -0.000450 0.097058
v -0.005265 0.003525 0.096206
v -0.004300 0.007380 0.093603
v -0.003497 0.011154 0.089642
v -0.011547 -0.010530 0.085826
v -0.011143 -0.007133 0.089245
v -0.010719 -0.003406 0.091525
v -0.010083 0.000509 0.092411
v -0.009148 0.004418 0.091814
v -0.008064 0.008166 0.089789
v -0.007072 0.011677 0.086588
v 0.017039 -0.008556 0.003086
v 0.019434 -0.001544 0.002998
v 0.018488 -0.001463 0.010049
v 0.016477 -0.008184 0.010281
v 0.015102 -0.001045 0.015947
v 0.013298 -0.006419 0.016039
v 0.012811 -0.014414 0.003375
v 0.012201 -0.013526 0.010370
v 0.009773 -0.010651 0.015998
v 0.020294 -0.001608 -0.002626
v 0.020782 0.006055 -0.002066
v 0.019573 0.005730 0.003328
v 0.018066 0.005345 0.009989
v 0.014894 0.004495 0.015924
v 0.012393 0.003847 0.021406
v 0.012421 -0.000670 0.021431
v 0.010704 -0.004954 0.021457
v 0.007683 -0.008131 0.021355
v 0.005195 -0.012807 0.015814
v 0.003957 -0.009702 0.021256
v 0.006595 -0.016526 0.010339
v 0.007196 -0.018081 0.003791
v 0.007566 -0.018828 -0.001795
v 0.013245 -0.014864 -0.002349
v 0.017625 -0.008854 -0.002630
v -0.006406 -0.016580 0.004730
v 0.000562 -0.019202 0.004566
v 0.000388 -0.017202 0.010683
v -0.005994 -0.015118 0.010936
v 0.000223 -0.013325 0.015988
v -0.004753 -0.011942 0.016241
v -0.012300 -0.011712 0.004754
v -0.011444 -0.010804 0.011002
v -0.009205 -0.008616 0.016341
v 0.000721 -0.020243 -0.000776
v -0.000023 -0.010258 0.021273
v -0.003991 -0.009461 0.021432
v -0.007693 -0.007095 0.021541
v -0.012330 -0.004249 0.016452
v -0.010284 -0.003607 0.021669
v -0.015401 -0.005217 0.011134
v -0.016411 -0.005486 0.004841
v -0.017271 -0.005686 -0.000347
v -0.013110 -0.012529 -0.000287
v -0.006743 -0.017702 -0.000397
v -0.015520 0.009027 0.004123
v -0.017236 0.001809 0.004489
v -0.015953 0.001481 0.010753
v -0.014285 0.008097 0.010430
v -0.012854 0.001040 0.016204
v -0.011482 0.006385 0.015975
v -0.011384 0.015071 0.003708
v -0.010431 0.013614 0.010081
v -0.008338 0.010899 0.015727
v -0.018229 0.002090 -0.000701
v -0.010800 0.000777 0.021479
v -0.009655 0.005292 0.021329
v -0.006978 0.009123 0.021179
v -0.003905 0.013806 0.015570
v -0.003261 0.011695 0.021143
v -0.004863 0.016887 0.009728
v -0.005250 0.018511 0.003208
v -0.005484 0.019696 -0.002149
v -0.011860 0.015947 -0.001711
v -0.016265 0.009678 -0.001199
v 0.009537 0.016976 0.003253
v 0.002028 0.019221 0.003175
v 0.001816 0.017565 0.009722
v 0.008755 0.015647 0.009872
v 0.001575 0.014454 0.015583
v 0.007303 0.012961 0.015742
v 0.015949 0.012314 0.003401
v 0.014683 0.011392 0.010028
v 0.012173 0.009469 0.015878
v 0.002195 0.020283 -0.002287
v 0.001387 0.012240 0.021172
v 0.006200 0.010965 0.021296
v 0.010300 0.008054 0.021419
v 0.012173 0.009469 0.015878
v 0.010300 0.008054 0.021419
v 0.014683 0.011392 0.010028
v 0.015949 0.012314 0.003401
v 0.016760 0.012888 -0.002135
v 0.016760 0.012888 -0.002135
v 0.010051 0.017798 -0.002279
v 0.006095 -0.006173 0.031612
v 0.006413 -0.006557 0.026508
v 0.008967 -0.004001 0.026623
v 0.008471 -0.003569 0.031536
v 0.010330 -0.000287 0.026615
v 0.009765 -0.000152 0.031447
v 0.006343 -0.006200 0.036683
v 0.009024 -0.003674 0.036592
v 0.010351 -0.000051 0.036482
v 0.003181 -0.007735 0.026413
v 0.010621 0.003532 0.026549
v 0.010038 0.003451 0.031394
v 0.010567 0.003727 0.036391
v 0.011522 0.000044 0.041579
v 0.011515 0.004107 0.041412
v 0.010110 -0.003969 0.041727
v 0.007277 -0.007005 0.041861
v 0.003485 -0.008540 0.041986
v 0.003033 -0.007494 0.036716
v 0.002971 -0.007373 0.031624
v 0.011141 0.009142 0.052214
v 0.010121 0.008383 0.046579
v 0.005689 0.010951 0.046493
v 0.006014 0.011707 0.052142
v 0.000502 0.012061 0.046445
v 0.000112 0.013094 0.052010
v 0.011885 0.009548 0.058283
v 0.006550 0.013006 0.057856
v -0.000331 0.014372 0.057729
v 0.012940 0.004646 0.046693
v 0.009208 0.007603 0.041293
v 0.010121 0.008383 0.046579
v 0.009208 0.007603 0.041293
v 0.005345 0.010058 0.041207
v 0.000804 0.011178 0.041156
v -0.003677 0.010669 0.041152
v -0.004498 0.011244 0.046496
v -0.005576 0.011898 0.052122
v -0.006745 0.012699 0.057990
v -0.000799 0.015794 0.063521
v -0.007849 0.013447 0.063591
v 0.007240 0.014685 0.063571
v 0.012835 0.010268 0.063796
v 0.014592 0.005034 0.064336
v 0.014089 0.004922 0.058954
v 0.011885 0.009548 0.058283
v 0.012835 0.010268 0.063796
v 0.014095 0.005063 0.052458
v 0.011141 0.009142 0.052214
v 0.008520 0.006896 0.031425
v 0.009078 0.007199 0.026544
v 0.005500 0.009760 0.026441
v 0.005196 0.009369 0.031373
v 0.001251 0.010875 0.026333
v 0.001150 0.010487 0.031303
v 0.008676 0.007092 0.036303
v 0.005158 0.009488 0.036217
v 0.001006 0.010620 0.036165
v 0.009078 0.007199 0.026544
v -0.002839 0.010296 0.026263
v -0.002773 0.009925 0.031241
v -0.003114 0.010189 0.036160
v 0.008676 0.007092 0.036303
v 0.008520 0.006896 0.031425
v -0.006744 -0.005951 0.031515
v -0.006704 -0.005954 0.026431
v -0.003569 -0.007788 0.026403
v -0.003604 -0.007890 0.031657
v -0.000224 -0.008285 0.026402
v -0.000344 -0.008249 0.031705
v -0.007547 -0.006535 0.036615
v -0.004011 -0.008373 0.036665
v -0.000411 -0.008486 0.036716
v -0.009005 -0.003026 0.026547
v -0.000466 -0.009364 0.041909
v -0.004592 -0.009320 0.041725
v -0.008178 -0.006853 0.041711
v -0.010154 -0.003263 0.041727
v -0.009772 -0.003250 0.036522
v -0.008839 -0.002992 0.031508
v -0.005999 0.007712 0.031249
v -0.006177 0.008052 0.026297
v -0.008643 0.004665 0.026443
v -0.008311 0.004435 0.031345
v -0.009675 0.000689 0.026564
v -0.009334 0.000661 0.031448
v -0.006594 0.008053 0.036208
v -0.009054 0.004679 0.036292
v -0.010207 0.000708 0.036401
v -0.010999 0.000693 0.041492
v -0.010074 0.004852 0.041290
v -0.007432 0.008398 0.041201
v -0.010888 -0.008355 0.052690
v -0.009281 -0.007415 0.047088
v -0.005384 -0.010421 0.047041
v -0.006398 -0.011618 0.052622
v -0.000452 -0.011373 0.047151
v -0.000658 -0.012911 0.052722
v -0.012811 -0.009462 0.058458
v -0.007224 -0.012536 0.058613
v -0.000792 -0.013229 0.058971
v -0.011281 -0.003538 0.047198
v 0.004261 -0.010291 0.047296
v 0.004937 -0.011914 0.052818
v 0.005181 -0.012444 0.058982
v -0.000925 -0.013551 0.064320
v 0.005360 -0.012851 0.064287
v -0.008172 -0.013652 0.064243
v -0.015091 -0.010876 0.064179
v -0.017964 -0.005417 0.064494
v -0.015355 -0.004659 0.058750
v -0.013115 -0.004041 0.052911
v -0.010026 0.009013 0.052300
v -0.008464 0.008572 0.046642
v -0.011342 0.004910 0.046729
v -0.012759 0.004919 0.052614
v -0.012024 0.000546 0.047027
v -0.013651 0.000374 0.052871
v -0.010945 0.008822 0.058544
v -0.013833 0.004635 0.058854
v -0.015095 0.000112 0.059041
v -0.017177 -0.000186 0.064422
v -0.015071 0.004516 0.064089
v -0.012163 0.009037 0.063729
v 0.010005 -0.009336 0.052629
v 0.008621 -0.008189 0.047144
v 0.011827 -0.004441 0.046989
v 0.013519 -0.004835 0.052534
v 0.013404 0.000128 0.046845
v 0.015110 0.000310 0.052452
v 0.010789 -0.009849 0.058642
v 0.014083 -0.004736 0.058739
v 0.014822 0.000450 0.059028
v 0.015210 0.000539 0.064465
v 0.014917 -0.004801 0.064440
v 0.011678 -0.010464 0.064305
vt 0.796555 0.293554
vt 0.770044 0.287319
vt 0.767695 0.295182
vt 0.795054 0.305027
vt 0.504751 0.215582
vt 0.464981 0.233298
vt 0.477991 0.258081
vt 0.512602 0.242432
vt 0.489779 0.280063
vt 0.519862 0.266822
vt 0.508696 0.310490
vt 0.533244 0.302342
vt 0.528414 0.343404
vt 0.546618 0.339621
vt 0.541154 0.367214
vt 0.554643 0.366234
vt 0.824898 0.295598
vt 0.824462 0.309924
vt 0.547054 0.206434
vt 0.549840 0.233982
vt 0.552632 0.259626
vt 0.558902 0.299756
vt 0.564925 0.339707
vt 0.568047 0.367535
vt 0.853562 0.294389
vt 0.854658 0.309924
vt 0.589575 0.206391
vt 0.587875 0.232844
vt 0.586552 0.259283
vt 0.584339 0.301623
vt 0.582362 0.342175
vt 0.580636 0.369812
vt 0.881921 0.290309
vt 0.884456 0.304886
vt 0.632032 0.212720
vt 0.625489 0.239680
vt 0.619932 0.265345
vt 0.609273 0.306394
vt 0.599000 0.345911
vt 0.592621 0.372277
vt 0.909060 0.282422
vt 0.912476 0.294214
vt 0.672944 0.229298
vt 0.661248 0.254578
vt 0.651056 0.278359
vt 0.633063 0.315207
vt 0.615226 0.351240
vt 0.604547 0.375016
vt 0.933982 0.271956
vt 0.937687 0.279748
vt 0.709669 0.253023
vt 0.693682 0.275176
vt 0.679147 0.295824
vt 0.655098 0.327140
vt 0.631126 0.358263
vt 0.616233 0.378659
vt 0.777990 0.263602
vt 0.757417 0.264599
vt 0.747751 0.275411
vt 0.743696 0.279962
vt 0.428596 0.258736
vt 0.447282 0.280383
vt 0.463786 0.299138
vt 0.487142 0.324657
vt 0.512510 0.352690
vt 0.529641 0.372406
vt 0.539586 0.384267
vt 0.548847 0.385645
vt 0.559736 0.387788
vt 0.569758 0.389925
vt 0.578875 0.391690
vt 0.587676 0.393044
vt 0.596918 0.393678
vt 0.606742 0.394018
vt 0.625989 0.384974
vt 0.615168 0.394314
vt 0.644555 0.368914
vt 0.674037 0.343409
vt 0.703117 0.317847
vt 0.721525 0.300993
vt 0.742325 0.282561
vt 0.954141 0.257144
vt 0.958970 0.261202
vt 0.942124 0.246747
vt 0.921770 0.247841
vt 0.897180 0.248749
vt 0.873723 0.250640
vt 0.851421 0.253706
vt 0.828389 0.257279
vt 0.803618 0.260915
vt 0.969745 0.207732
vt 0.964990 0.234579
vt 0.973343 0.236923
vt 0.982147 0.209234
vt 0.784833 0.359915
vt 0.767436 0.319068
vt 0.743505 0.332106
vt 0.758300 0.367907
vt 0.721584 0.344795
vt 0.733681 0.375943
vt 0.687178 0.364755
vt 0.694532 0.389062
vt 0.652841 0.383960
vt 0.656446 0.401166
vt 0.630634 0.395693
vt 0.631770 0.408311
vt 0.970724 0.179309
vt 0.986085 0.179599
vt 0.793645 0.404333
vt 0.765627 0.406935
vt 0.739227 0.409683
vt 0.697064 0.414457
vt 0.657138 0.418703
vt 0.631276 0.421087
vt 0.969588 0.150794
vt 0.985720 0.149335
vt 0.793290 0.450139
vt 0.765303 0.447222
vt 0.738276 0.444193
vt 0.695867 0.439786
vt 0.656093 0.435933
vt 0.630197 0.433513
vt 0.966351 0.122342
vt 0.981261 0.119387
vt 0.783488 0.494329
vt 0.757230 0.486328
vt 0.732377 0.477925
vt 0.692365 0.464793
vt 0.653999 0.453039
vt 0.628987 0.445897
vt 0.961000 0.094169
vt 0.972816 0.090635
vt 0.766032 0.533994
vt 0.743340 0.522205
vt 0.721192 0.509478
vt 0.685602 0.489203
vt 0.650350 0.470173
vt 0.627229 0.458514
vt 0.951957 0.068234
vt 0.959730 0.064571
vt 0.744130 0.569859
vt 0.723398 0.553659
vt 0.704515 0.537493
vt 0.674455 0.511758
vt 0.643967 0.486494
vt 0.624001 0.470736
vt 0.939501 0.225850
vt 0.614022 0.402879
vt 0.612429 0.413041
vt 0.610969 0.422646
vt 0.609929 0.431700
vt 0.609343 0.440777
vt 0.609045 0.450419
vt 0.608831 0.460632
vt 0.617652 0.480455
vt 0.608507 0.469231
vt 0.633318 0.499808
vt 0.658047 0.530377
vt 0.682370 0.560757
vt 0.697550 0.579856
vt 0.714945 0.601196
vt 0.937437 0.047838
vt 0.941469 0.043019
vt 0.927495 0.060056
vt 0.928500 0.081264
vt 0.928284 0.107504
vt 0.928036 0.132049
vt 0.929003 0.154548
vt 0.931258 0.176768
vt 0.935139 0.200509
vt 0.888312 0.031555
vt 0.914923 0.036947
vt 0.917134 0.028667
vt 0.889577 0.019396
vt 0.638422 0.641477
vt 0.678551 0.624766
vt 0.666350 0.600342
vt 0.630973 0.614499
vt 0.654928 0.577292
vt 0.624478 0.589160
vt 0.636612 0.542789
vt 0.612736 0.550110
vt 0.618279 0.507731
vt 0.601351 0.511323
vt 0.606989 0.484849
vt 0.594857 0.486121
vt 0.859998 0.029301
vt 0.860035 0.014402
vt 0.595306 0.650558
vt 0.593071 0.622502
vt 0.591713 0.595926
vt 0.587867 0.553502
vt 0.584544 0.513239
vt 0.582741 0.486464
vt 0.831190 0.029592
vt 0.829683 0.013951
vt 0.551421 0.650805
vt 0.554377 0.623295
vt 0.557843 0.596913
vt 0.562831 0.554519
vt 0.567721 0.514248
vt 0.570702 0.486923
vt 0.802509 0.032555
vt 0.799713 0.018404
vt 0.509999 0.641985
vt 0.517118 0.616660
vt 0.524546 0.591677
vt 0.537605 0.552729
vt 0.550277 0.514037
vt 0.558066 0.487030
vt 0.774767 0.038963
vt 0.771408 0.027877
vt 0.470917 0.627061
vt 0.482639 0.602396
vt 0.493708 0.579532
vt 0.512838 0.546359
vt 0.532313 0.511365
vt 0.544721 0.486234
vt 0.749735 0.049609
vt 0.746093 0.042251
vt 0.435297 0.603710
vt 0.451735 0.581521
vt 0.466588 0.561630
vt 0.490149 0.534417
vt 0.515079 0.504821
vt 0.531613 0.483232
vt 0.907025 0.062770
vt 0.600201 0.468040
vt 0.590555 0.466740
vt 0.581404 0.465813
vt 0.572568 0.465414
vt 0.563425 0.465528
vt 0.553303 0.465964
vt 0.542268 0.466345
vt 0.521140 0.476357
vt 0.532898 0.466274
vt 0.501041 0.493142
vt 0.471493 0.516906
vt 0.444324 0.538678
vt 0.425809 0.554655
vt 0.404189 0.573126
vt 0.729898 0.065284
vt 0.725107 0.061511
vt 0.741158 0.074386
vt 0.761520 0.071900
vt 0.787320 0.070453
vt 0.812591 0.070428
vt 0.836046 0.070747
vt 0.858495 0.070308
vt 0.882164 0.066974
vt 0.713240 0.115128
vt 0.718870 0.088184
vt 0.710813 0.086205
vt 0.701444 0.113981
vt 0.362242 0.496617
vt 0.379914 0.536695
vt 0.404531 0.523542
vt 0.389123 0.488630
vt 0.427006 0.511743
vt 0.413752 0.481735
vt 0.458399 0.494732
vt 0.450168 0.470041
vt 0.492469 0.476722
vt 0.488373 0.458365
vt 0.516276 0.464567
vt 0.515006 0.450948
vt 0.711081 0.143819
vt 0.696554 0.143669
vt 0.353075 0.453884
vt 0.380642 0.451234
vt 0.406500 0.448997
vt 0.446504 0.444222
vt 0.487154 0.439799
vt 0.515448 0.437185
vt 0.711785 0.172856
vt 0.696459 0.174103
vt 0.353075 0.411206
vt 0.379515 0.413187
vt 0.405450 0.415129
vt 0.446798 0.418275
vt 0.487865 0.421486
vt 0.516457 0.423779
vt 0.715779 0.201604
vt 0.701473 0.204106
vt 0.359436 0.369027
vt 0.386295 0.375730
vt 0.411553 0.381763
vt 0.450473 0.392557
vt 0.490048 0.403270
vt 0.517629 0.410369
vt 0.722780 0.229429
vt 0.711281 0.232525
vt 0.375010 0.328236
vt 0.400300 0.340027
vt 0.423613 0.350333
vt 0.458111 0.367523
vt 0.494227 0.385087
vt 0.519425 0.396669
vt 0.732922 0.254900
vt 0.725304 0.258231
vt 0.398675 0.291392
vt 0.421169 0.308025
vt 0.441467 0.322497
vt 0.470350 0.344403
vt 0.501297 0.367580
vt 0.522926 0.383380
vt 0.743220 0.095013
vt 0.534221 0.456898
vt 0.536089 0.445793
vt 0.537755 0.435383
vt 0.538884 0.425626
vt 0.539387 0.415807
vt 0.539465 0.405231
vt 0.539437 0.393896
vt 0.755933 0.244190
vt 0.755379 0.218290
vt 0.754595 0.193254
vt 0.752851 0.169548
vt 0.750625 0.145852
vt 0.747183 0.120926
vt 0.882528 0.210832
vt 0.906795 0.216116
vt 0.897402 0.191798
vt 0.872027 0.185048
vt 0.892295 0.173547
vt 0.867891 0.170923
vt 0.890313 0.158053
vt 0.866103 0.160185
vt 0.889900 0.142341
vt 0.866072 0.149313
vt 0.892161 0.123119
vt 0.867888 0.134647
vt 0.897560 0.097074
vt 0.874022 0.107336
vt 0.864709 0.209490
vt 0.858416 0.183173
vt 0.855075 0.169654
vt 0.853848 0.161214
vt 0.853640 0.152708
vt 0.854632 0.139101
vt 0.856459 0.112486
vt 0.849354 0.211185
vt 0.847852 0.183632
vt 0.846902 0.169858
vt 0.846266 0.161848
vt 0.845554 0.153854
vt 0.844246 0.140521
vt 0.841167 0.113408
vt 0.833160 0.214452
vt 0.836750 0.186074
vt 0.838424 0.171386
vt 0.838338 0.162523
vt 0.836977 0.153810
vt 0.833030 0.139946
vt 0.824690 0.112565
vt 0.813601 0.220511
vt 0.821784 0.191111
vt 0.824530 0.175282
vt 0.824673 0.163693
vt 0.822649 0.152330
vt 0.817451 0.137362
vt 0.804280 0.109480
vt 0.787985 0.230284
vt 0.794368 0.203278
vt 0.797257 0.182857
vt 0.796739 0.166008
vt 0.794462 0.149312
vt 0.788276 0.129629
vt 0.777226 0.103661
vt 0.588177 0.452845
vt 0.597183 0.455412
vt 0.596051 0.445688
vt 0.586896 0.442963
vt 0.595725 0.437632
vt 0.586336 0.435654
vt 0.596030 0.430492
vt 0.586438 0.429671
vt 0.596975 0.423395
vt 0.587367 0.423750
vt 0.598733 0.415472
vt 0.589206 0.416604
vt 0.601608 0.405989
vt 0.592206 0.407003
vt 0.580586 0.451441
vt 0.580023 0.441341
vt 0.579617 0.434240
vt 0.579654 0.429093
vt 0.580496 0.424010
vt 0.582124 0.417044
vt 0.584414 0.407138
vt 0.573641 0.450801
vt 0.574277 0.440571
vt 0.574720 0.433446
vt 0.575067 0.428703
vt 0.575531 0.423959
vt 0.576303 0.416857
vt 0.577415 0.406634
vt 0.566509 0.450803
vt 0.568439 0.440601
vt 0.569811 0.433463
vt 0.570600 0.428319
vt 0.570692 0.423110
vt 0.570534 0.415783
vt 0.570353 0.405326
vt 0.558199 0.451551
vt 0.561050 0.441423
vt 0.562853 0.433885
vt 0.563801 0.427736
vt 0.563911 0.421511
vt 0.563379 0.413729
vt 0.562231 0.403138
vt 0.547800 0.453250
vt 0.550825 0.442960
vt 0.552745 0.434430
vt 0.553762 0.426879
vt 0.554032 0.419258
vt 0.553548 0.410488
vt 0.552244 0.399744
vt 0.933657 0.331349
vt 0.928590 0.319008
vt 0.917193 0.324557
vt 0.921677 0.336052
vt 0.905698 0.329961
vt 0.909769 0.340470
vt 0.937615 0.343671
vt 0.925636 0.347344
vt 0.913133 0.351069
vt 0.937897 0.314562
vt 0.930853 0.302386
vt 0.922177 0.307513
vt 0.911709 0.313763
vt 0.900948 0.320300
vt 0.890479 0.326079
vt 0.894040 0.334871
vt 0.897102 0.344696
vt 0.899538 0.354620
vt 0.915590 0.361210
vt 0.901289 0.364168
vt 0.928462 0.358265
vt 0.940225 0.355389
vt 0.950100 0.352848
vt 0.947500 0.340447
vt 0.943349 0.327538
vt 0.941701 0.380702
vt 0.941148 0.367371
vt 0.929690 0.369469
vt 0.929889 0.381823
vt 0.916751 0.371705
vt 0.916996 0.382898
vt 0.941879 0.394637
vt 0.929845 0.394909
vt 0.917091 0.395209
vt 0.950808 0.365623
vt 0.902583 0.374005
vt 0.903109 0.384219
vt 0.903416 0.395511
vt 0.916958 0.407253
vt 0.903179 0.406729
vt 0.929804 0.407799
vt 0.941671 0.408276
vt 0.951182 0.408703
vt 0.951282 0.394465
vt 0.951229 0.379806
vt 0.941255 0.435468
vt 0.941670 0.421790
vt 0.929712 0.420518
vt 0.929253 0.433550
vt 0.916619 0.419239
vt 0.916077 0.431539
vt 0.940287 0.448873
vt 0.928351 0.446225
vt 0.915216 0.443541
vt 0.951282 0.422768
vt 0.903011 0.418115
vt 0.902577 0.429881
vt 0.901901 0.441306
vt 0.913554 0.454681
vt 0.900627 0.451871
vt 0.926514 0.458131
vt 0.938406 0.461605
vt 0.948076 0.464476
vt 0.950141 0.451051
vt 0.951056 0.437032
vt 0.928758 0.487322
vt 0.934393 0.474288
vt 0.922782 0.469919
vt 0.917543 0.481908
vt 0.910583 0.465652
vt 0.906350 0.476509
vt 0.922023 0.500134
vt 0.911219 0.493717
vt 0.901078 0.486624
vt 0.943921 0.477949
vt 0.898326 0.461969
vt 0.895285 0.471899
vt 0.891518 0.480867
vt 0.895024 0.311606
vt 0.886094 0.318183
vt 0.904352 0.303749
vt 0.914367 0.296288
vt 0.922789 0.290328
vt 0.931005 0.505255
vt 0.938035 0.491780
vt 0.872140 0.358916
vt 0.885696 0.357325
vt 0.884078 0.348035
vt 0.871436 0.349748
vt 0.881949 0.338672
vt 0.870582 0.340709
vt 0.858935 0.359403
vt 0.858709 0.350268
vt 0.858703 0.341170
vt 0.886938 0.366458
vt 0.879873 0.330292
vt 0.869573 0.332581
vt 0.858718 0.332882
vt 0.847121 0.340255
vt 0.848096 0.331806
vt 0.846388 0.349575
vt 0.845952 0.359022
vt 0.845895 0.368545
vt 0.859297 0.368456
vt 0.872755 0.367829
vt 0.837380 0.482295
vt 0.846978 0.478737
vt 0.844956 0.469590
vt 0.834573 0.472291
vt 0.842985 0.459546
vt 0.831939 0.461185
vt 0.827377 0.486483
vt 0.824193 0.475501
vt 0.820976 0.463120
vt 0.837392 0.329838
vt 0.849650 0.323756
vt 0.839716 0.321390
vt 0.856293 0.476150
vt 0.855079 0.467712
vt 0.853927 0.458413
vt 0.852726 0.448880
vt 0.841076 0.449428
vt 0.829388 0.450188
vt 0.817792 0.451251
vt 0.810352 0.465147
vt 0.807373 0.452463
vt 0.813992 0.478856
vt 0.818295 0.490673
vt 0.804820 0.323766
vt 0.814809 0.325610
vt 0.817987 0.316433
vt 0.807746 0.313806
vt 0.826684 0.327671
vt 0.829265 0.318749
vt 0.873949 0.474887
vt 0.882560 0.476943
vt 0.884823 0.468744
vt 0.874726 0.467162
vt 0.886690 0.459419
vt 0.875436 0.458100
vt 0.865227 0.474847
vt 0.864951 0.466827
vt 0.864646 0.457870
vt 0.877337 0.322738
vt 0.888029 0.449793
vt 0.875871 0.448789
vt 0.864127 0.448602
vt 0.859163 0.325014
vt 0.868464 0.324950
vt 0.874387 0.396722
vt 0.889155 0.395969
vt 0.888696 0.385501
vt 0.873546 0.386274
vt 0.887914 0.375921
vt 0.873045 0.377165
vt 0.860090 0.397696
vt 0.859673 0.387226
vt 0.859418 0.377731
vt 0.889312 0.406766
vt 0.846030 0.378171
vt 0.846366 0.388215
vt 0.846958 0.398953
vt 0.847684 0.409061
vt 0.860827 0.407969
vt 0.874926 0.407093
vt 0.875988 0.439012
vt 0.888796 0.439739
vt 0.889022 0.428734
vt 0.875744 0.428383
vt 0.889078 0.417481
vt 0.875334 0.417567
vt 0.863437 0.438972
vt 0.862633 0.428683
vt 0.861739 0.418192
vt 0.848865 0.418897
vt 0.850170 0.429019
vt 0.851490 0.439172
vt 0.820745 0.401634
vt 0.833769 0.400420
vt 0.833439 0.389298
vt 0.821004 0.390139
vt 0.833159 0.378341
vt 0.821300 0.378450
vt 0.808141 0.402690
vt 0.808788 0.390321
vt 0.809209 0.378034
vt 0.834381 0.410405
vt 0.833214 0.368080
vt 0.821506 0.367479
vt 0.809725 0.366769
vt 0.799317 0.377512
vt 0.799977 0.366196
vt 0.797909 0.390335
vt 0.796208 0.403537
vt 0.796370 0.414748
vt 0.808382 0.413392
vt 0.821137 0.411893
vt 0.827022 0.439990
vt 0.839199 0.439494
vt 0.837423 0.429509
vt 0.824633 0.430393
vt 0.835670 0.419774
vt 0.822546 0.421105
vt 0.814771 0.440868
vt 0.812150 0.431502
vt 0.809851 0.422675
vt 0.799056 0.423977
vt 0.802226 0.432663
vt 0.805025 0.441821
vt 0.822338 0.356668
vt 0.833716 0.358019
vt 0.834634 0.348003
vt 0.823542 0.346028
vt 0.835790 0.338479
vt 0.824947 0.336288
vt 0.810901 0.355260
vt 0.812090 0.343848
vt 0.813170 0.333994
vt 0.803094 0.332088
vt 0.801467 0.341942
vt 0.800263 0.353949
vn 0.0510 -0.4442 -0.8945
vn 0.0958 -0.3366 -0.9367
vn -0.1015 0.1782 -0.9788
vn -0.0549 0.1021 -0.9933
vn -0.0546 0.1014 -0.9933
vn -0.1008 0.1770 -0.9790
vn -0.3119 0.8023 -0.5089
vn -0.1446 0.8353 -0.5305
vn -0.3216 0.9064 0.2740
vn -0.1267 0.9545 0.2700
vn -0.2362 0.7054 0.6683
vn -0.0865 0.7489 0.6570
vn -0.2408 0.6840 0.6887
vn -0.1041 0.7416 0.6628
vn -0.2903 0.7800 0.5544
vn -0.1391 0.8399 0.5245
vn -0.0233 -0.5140 -0.8575
vn -0.0288 0.0400 -0.9988
vn -0.0287 0.0398 -0.9988
vn 0.0085 0.8352 -0.5499
vn 0.0438 0.9619 0.2700
vn 0.0477 0.7599 0.6483
vn 0.0385 0.7719 0.6345
vn 0.0290 0.8659 0.4993
vn -0.1070 -0.5338 -0.8388
vn -0.0077 0.0084 -0.9999
vn 0.1555 0.8132 -0.5609
vn 0.1973 0.9423 0.2704
vn 0.1693 0.7444 0.6460
vn 0.1848 0.7664 0.6152
vn 0.2124 0.8492 0.4834
vn -0.1712 -0.5108 -0.8425
vn 0.0289 -0.0016 -0.9996
vn 0.0288 -0.0015 -0.9996
vn 0.3064 0.7654 -0.5660
vn 0.3442 0.9000 0.2674
vn 0.2758 0.7102 0.6477
vn 0.3128 0.7223 0.6168
vn 0.3839 0.7894 0.4790
vn -0.2435 -0.4391 -0.8648
vn 0.0502 0.0214 -0.9985
vn 0.0501 0.0209 -0.9985
vn 0.4423 0.7064 -0.5526
vn 0.4989 0.8225 0.2733
vn 0.3958 0.6450 0.6537
vn 0.4295 0.6412 0.6360
vn 0.5200 0.7005 0.4888
vn -0.3143 -0.3193 -0.8940
vn 0.0542 0.0824 -0.9951
vn 0.0535 0.0815 -0.9952
vn 0.5597 0.6224 -0.5471
vn 0.6636 0.6992 0.2660
vn 0.5339 0.5365 0.6535
vn 0.5434 0.5228 0.6568
vn 0.6272 0.5903 0.5081
vn 0.2147 -0.4857 -0.8473
vn 0.2649 -0.4261 -0.8650
vn 0.1452 -0.2438 -0.9589
vn -0.1546 0.2113 -0.9651
vn -0.1533 0.2100 -0.9656
vn -0.4846 0.7209 -0.4954
vn -0.5273 0.8018 0.2811
vn -0.3965 0.6207 0.6764
vn -0.3784 0.6049 0.7007
vn -0.4340 0.6948 0.5734
vn -0.4675 0.7476 0.4717
vn -0.3491 0.8032 0.4826
vn -0.1919 0.8473 0.4953
vn -0.0023 0.8626 0.5058
vn 0.2174 0.8341 0.5070
vn 0.4239 0.7600 0.4927
vn 0.5777 0.6676 0.4696
vn 0.6865 0.5740 0.4464
vn 0.7203 0.4578 0.5212
vn 0.7633 0.4874 0.4242
vn 0.6365 0.3973 0.6611
vn 0.6473 0.4046 0.6459
vn 0.8094 0.5310 0.2509
vn 0.6769 0.4778 -0.5599
vn 0.0793 0.0881 -0.9929
vn -0.3604 -0.2215 -0.9061
vn 0.0811 0.0889 -0.9927
vn -0.5000 -0.3284 -0.8013
vn -0.4405 -0.3991 -0.8041
vn -0.3651 -0.4971 -0.7871
vn -0.2484 -0.5938 -0.7653
vn -0.1160 -0.6383 -0.7610
vn 0.0332 -0.6271 -0.7782
vn 0.1571 -0.5635 -0.8111
vn -0.5546 -0.1181 -0.8237
vn -0.4547 -0.1845 -0.8713
vn 0.0314 0.0157 -0.9994
vn -0.0614 -0.0143 -0.9980
vn -0.0658 -0.0148 -0.9977
vn 0.0282 0.0148 -0.9995
vn 0.7548 0.2921 -0.5874
vn 0.7753 0.1245 -0.6191
vn 0.9105 0.3385 0.2377
vn 0.9623 0.1494 0.2275
vn 0.7230 0.2663 0.6375
vn 0.7677 0.1246 0.6286
vn 0.7097 0.2768 0.6479
vn 0.7671 0.1427 0.6254
vn 0.8034 0.3214 0.5013
vn 0.8609 0.1723 0.4787
vn -0.6096 0.0129 -0.7926
vn -0.1235 0.0182 -0.9922
vn -0.1284 0.0184 -0.9915
vn 0.7679 -0.0090 -0.6406
vn 0.9752 -0.0294 0.2196
vn 0.7841 -0.0248 0.6202
vn 0.7969 -0.0123 0.6039
vn 0.8868 -0.0006 0.4622
vn -0.6026 0.1694 -0.7798
vn -0.1297 0.0803 -0.9883
vn -0.1346 0.0812 -0.9876
vn 0.7529 -0.1192 -0.6473
vn 0.9557 -0.2016 0.2146
vn 0.7689 -0.1812 0.6132
vn 0.7866 -0.1821 0.5900
vn 0.8716 -0.1906 0.4517
vn -0.5368 0.3144 -0.7829
vn -0.0796 0.1321 -0.9880
vn -0.0842 0.1339 -0.9874
vn 0.7337 -0.2277 -0.6402
vn 0.9056 -0.3692 0.2088
vn 0.7199 -0.3363 0.6072
vn 0.7311 -0.3475 0.5871
vn 0.8140 -0.3730 0.4453
vn -0.4271 0.4081 -0.8069
vn 0.0025 0.1294 -0.9916
vn -0.0014 0.1318 -0.9913
vn 0.6927 -0.3570 -0.6267
vn 0.8234 -0.5305 0.2016
vn 0.6438 -0.4719 0.6023
vn 0.6422 -0.4858 0.5930
vn 0.7245 -0.5269 0.4443
vn -0.3098 0.4158 -0.8551
vn 0.0728 0.0456 -0.9963
vn 0.0703 0.0478 -0.9964
vn 0.6053 -0.5138 -0.6080
vn 0.7034 -0.6830 0.1967
vn 0.5501 -0.5814 0.5994
vn 0.5385 -0.5884 0.6032
vn 0.6147 -0.6473 0.4507
vn -0.5423 -0.2824 -0.7913
vn 0.8185 0.3693 0.4402
vn 0.8648 0.2126 0.4549
vn 0.8848 0.0246 0.4653
vn 0.8652 -0.1887 0.4645
vn 0.8026 -0.3910 0.4505
vn 0.7142 -0.5552 0.4263
vn 0.6106 -0.6853 0.3968
vn 0.4858 -0.7434 0.4596
vn 0.5128 -0.7762 0.3668
vn 0.4308 -0.6670 0.6079
vn 0.4351 -0.6726 0.5985
vn 0.5389 -0.8192 0.1963
vn 0.4511 -0.6659 -0.5942
vn 0.0654 -0.0623 -0.9959
vn -0.2285 0.3937 -0.8904
vn 0.0669 -0.0637 -0.9957
vn -0.3281 0.5513 -0.7671
vn -0.3759 0.5402 -0.7529
vn -0.4524 0.5079 -0.7330
vn -0.5681 0.3741 -0.7330
vn -0.6461 0.1769 -0.7424
vn -0.6543 -0.0350 -0.7554
vn -0.6023 -0.2093 -0.7703
vn -0.0900 0.5548 -0.8271
vn -0.1817 0.4608 -0.8687
vn 0.0104 -0.0540 -0.9985
vn 0.0096 0.0164 -0.9998
vn 0.0095 0.0171 -0.9998
vn 0.0098 -0.0527 -0.9986
vn 0.2730 -0.7590 -0.5911
vn 0.1235 -0.7888 -0.6021
vn 0.3442 -0.9169 0.2018
vn 0.1480 -0.9676 0.2047
vn 0.2930 -0.7455 0.5986
vn 0.1319 -0.7928 0.5950
vn 0.3080 -0.7406 0.5972
vn 0.1633 -0.8033 0.5728
vn 0.3515 -0.8254 0.4417
vn 0.2123 -0.8810 0.4228
vn 0.0367 0.6025 -0.7973
vn 0.0339 0.0581 -0.9977
vn 0.0339 0.0583 -0.9977
vn -0.0087 -0.7897 -0.6134
vn -0.0318 -0.9789 0.2018
vn -0.0225 -0.8085 0.5881
vn 0.0097 -0.8342 0.5513
vn 0.0501 -0.9094 0.4128
vn 0.1470 0.5950 -0.7901
vn 0.0354 0.0617 -0.9975
vn 0.0354 0.0616 -0.9975
vn -0.1460 -0.7735 -0.6167
vn -0.1909 -0.9615 0.1977
vn -0.1555 -0.7976 0.5828
vn -0.1427 -0.8254 0.5463
vn -0.1342 -0.9002 0.4143
vn 0.2145 0.5442 -0.8111
vn -0.0040 0.0378 -0.9993
vn -0.0039 0.0377 -0.9993
vn -0.2948 -0.7377 -0.6074
vn -0.3391 -0.9203 0.1952
vn -0.2726 -0.7650 0.5835
vn -0.2837 -0.7761 0.5632
vn -0.3166 -0.8472 0.4267
vn 0.2365 0.4583 -0.8568
vn -0.0759 -0.0045 -0.9971
vn -0.0756 -0.0042 -0.9971
vn -0.4487 -0.6758 -0.5848
vn -0.4900 -0.8491 0.1974
vn -0.3841 -0.7070 0.5938
vn -0.4019 -0.6962 0.5948
vn -0.4689 -0.7588 0.4520
vn 0.2165 0.3535 -0.9101
vn -0.1684 -0.0466 -0.9846
vn -0.1676 -0.0459 -0.9848
vn -0.5993 -0.5761 -0.5558
vn -0.6485 -0.7319 0.2092
vn -0.4980 -0.6150 0.6113
vn -0.5007 -0.5943 0.6294
vn -0.5857 -0.6470 0.4883
vn -0.2715 0.5934 -0.7577
vn 0.4046 -0.8271 0.3900
vn 0.2667 -0.8713 0.4119
vn 0.0930 -0.8959 0.4343
vn -0.1199 -0.8853 0.4494
vn -0.3362 -0.8273 0.4501
vn -0.5166 -0.7347 0.4396
vn -0.6488 -0.6292 0.4280
vn -0.6832 -0.5126 0.5200
vn -0.7353 -0.5323 0.4196
vn -0.5941 -0.4692 0.6534
vn -0.6116 -0.4774 0.6309
vn -0.7975 -0.5580 0.2297
vn -0.7284 -0.4316 -0.5321
vn -0.2339 -0.0479 -0.9711
vn 0.2193 0.2585 -0.9408
vn -0.2353 -0.0486 -0.9707
vn 0.4081 0.3754 -0.8322
vn 0.3936 0.4454 -0.8042
vn 0.3856 0.5281 -0.7566
vn 0.3080 0.6258 -0.7166
vn 0.1708 0.6932 -0.7002
vn -0.0102 0.7058 -0.7083
vn -0.1838 0.6567 -0.7314
vn 0.4521 0.1237 -0.8834
vn 0.3281 0.2006 -0.9231
vn -0.1823 -0.0062 -0.9832
vn -0.0895 0.0140 -0.9959
vn -0.0850 0.0145 -0.9963
vn -0.1794 -0.0052 -0.9838
vn -0.8038 -0.2667 -0.5318
vn -0.8280 -0.1119 -0.5494
vn -0.9038 -0.3492 0.2473
vn -0.9549 -0.1516 0.2552
vn -0.7015 -0.3054 0.6439
vn -0.7497 -0.1421 0.6464
vn -0.6827 -0.3217 0.6560
vn -0.7482 -0.1715 0.6410
vn -0.7756 -0.3665 0.5139
vn -0.8403 -0.2140 0.4981
vn 0.5208 0.0197 -0.8534
vn -0.0301 0.0221 -0.9993
vn -0.0249 0.0218 -0.9995
vn -0.8270 0.0355 -0.5611
vn -0.9650 0.0215 0.2615
vn -0.7633 -0.0022 0.6461
vn -0.7804 -0.0219 0.6248
vn -0.8708 -0.0400 0.4900
vn 0.5300 -0.0743 -0.8448
vn -0.0084 0.0387 -0.9992
vn -0.0031 0.0377 -0.9993
vn -0.8060 0.1827 -0.5630
vn -0.9469 0.1803 0.2663
vn -0.7509 0.1267 0.6482
vn -0.7724 0.1322 0.6212
vn -0.8563 0.1537 0.4931
vn 0.4900 -0.1519 -0.8584
vn -0.0171 0.0659 -0.9977
vn -0.0122 0.0641 -0.9979
vn -0.7670 0.3275 -0.5518
vn -0.9025 0.3335 0.2724
vn -0.7128 0.2500 0.6553
vn -0.7206 0.2762 0.6359
vn -0.7949 0.3376 0.5042
vn 0.3958 -0.2130 -0.8933
vn -0.0580 0.1009 -0.9932
vn -0.0540 0.0986 -0.9937
vn -0.7063 0.4658 -0.5331
vn -0.8275 0.4884 0.2770
vn -0.6488 0.3695 0.6652
vn -0.6345 0.3973 0.6629
vn -0.6992 0.4852 0.5250
vn 0.2620 -0.2312 -0.9370
vn -0.1258 0.1557 -0.9798
vn -0.1235 0.1536 -0.9804
vn -0.6202 0.5996 -0.5058
vn -0.7053 0.6497 0.2835
vn -0.5443 0.4975 0.6754
vn -0.5172 0.5061 0.6902
vn -0.5780 0.5998 0.5533
vn 0.4767 0.3226 -0.8177
vn -0.7907 -0.4201 0.4454
vn -0.8375 -0.2717 0.4741
vn -0.8606 -0.0793 0.5031
vn -0.8404 0.1496 0.5210
vn -0.7700 0.3699 0.5199
vn -0.6717 0.5420 0.5049
vn -0.5649 0.6667 0.4862
vn 0.3430 -0.4027 -0.8487
vn 0.4498 -0.3673 -0.8141
vn 0.5696 -0.2498 -0.7830
vn 0.6347 -0.0968 -0.7667
vn 0.6332 0.0729 -0.7705
vn 0.5665 0.2384 -0.7888
vn -0.4751 -0.4681 -0.7451
vn -0.5014 -0.3675 -0.7833
vn -0.5869 -0.3121 -0.7471
vn -0.6030 -0.4181 -0.6794
vn -0.6740 -0.1205 -0.7288
vn -0.7041 -0.2026 -0.6806
vn -0.6801 0.1751 -0.7119
vn -0.6964 0.1674 -0.6979
vn -0.5632 0.4464 -0.6954
vn -0.5683 0.5090 -0.6465
vn -0.4207 0.5840 -0.6942
vn -0.4086 0.6664 -0.6236
vn -0.3343 0.5975 -0.7289
vn -0.2905 0.6691 -0.6840
vn -0.3546 -0.5988 -0.7181
vn -0.4656 -0.5671 -0.6795
vn -0.5294 -0.3263 -0.7831
vn -0.4974 0.1295 -0.8578
vn -0.3584 0.5527 -0.7524
vn -0.2182 0.7449 -0.6305
vn -0.1104 0.7432 -0.6599
vn -0.1221 -0.6907 -0.7128
vn -0.1322 -0.6942 -0.7075
vn -0.0985 -0.4667 -0.8789
vn -0.0056 0.0346 -0.9994
vn 0.0969 0.5198 -0.8488
vn 0.1526 0.7336 -0.6623
vn 0.1723 0.7382 -0.6522
vn 0.1255 -0.6763 -0.7259
vn 0.2097 -0.7029 -0.6797
vn 0.3444 -0.5102 -0.7881
vn 0.4865 -0.0697 -0.8709
vn 0.5257 0.3807 -0.7607
vn 0.4817 0.6067 -0.6323
vn 0.4043 0.6295 -0.6635
vn 0.2722 -0.5935 -0.7574
vn 0.3912 -0.6155 -0.6842
vn 0.5571 -0.4636 -0.6890
vn 0.6939 -0.1157 -0.7107
vn 0.7066 0.2511 -0.6616
vn 0.6181 0.4602 -0.6373
vn 0.5033 0.5058 -0.7006
vn 0.3073 -0.4958 -0.8123
vn 0.4196 -0.4957 -0.7604
vn 0.5749 -0.3648 -0.7324
vn 0.6896 -0.1110 -0.7156
vn 0.6846 0.1657 -0.7098
vn 0.5938 0.3570 -0.7211
vn 0.4883 0.4165 -0.7669
vn 0.3548 -0.7922 0.4966
vn 0.5034 -0.7353 0.4539
vn 0.6199 -0.6020 0.5033
vn 0.4811 -0.6742 0.5604
vn 0.7316 -0.4210 0.5363
vn 0.6298 -0.4774 0.6127
vn 0.8115 -0.1814 0.5554
vn 0.7431 -0.1715 0.6468
vn 0.8299 0.0737 0.5530
vn 0.7568 0.1581 0.6342
vn 0.7960 0.2878 0.5325
vn 0.6969 0.4000 0.5953
vn 0.7414 0.4520 0.4960
vn 0.6286 0.5568 0.5430
vn 0.1531 -0.8341 0.5300
vn 0.2538 -0.7461 0.6155
vn 0.4046 -0.5428 0.7360
vn 0.5438 -0.1381 0.8278
vn 0.5731 0.2940 0.7650
vn 0.5171 0.5458 0.6593
vn 0.4601 0.6705 0.5820
vn -0.1029 -0.8263 0.5538
vn -0.0832 -0.7477 0.6587
vn -0.0294 -0.5257 0.8501
vn 0.0715 -0.0494 0.9962
vn 0.1635 0.4377 0.8841
vn 0.2008 0.6750 0.7099
vn 0.2121 0.7643 0.6090
vn -0.3638 -0.7478 0.5553
vn -0.4201 -0.6340 0.6493
vn -0.4737 -0.3900 0.7897
vn -0.4364 0.0559 0.8980
vn -0.2971 0.4887 0.8203
vn -0.1545 0.7028 0.6944
vn -0.0610 0.7936 0.6053
vn -0.5663 -0.6288 0.5329
vn -0.6343 -0.4811 0.6052
vn -0.6975 -0.2410 0.6749
vn -0.6825 0.1109 0.7224
vn -0.5573 0.4468 0.6998
vn -0.4030 0.6500 0.6442
vn -0.2811 0.7656 0.5787
vn -0.7016 -0.5144 0.4932
vn -0.7542 -0.3597 0.5494
vn -0.7902 -0.1446 0.5955
vn -0.7715 0.1320 0.6224
vn -0.6803 0.3977 0.6157
vn -0.5593 0.5883 0.5841
vn -0.4448 0.7172 0.5365
vn 0.8808 -0.4584 0.1183
vn 0.9737 -0.1700 0.1518
vn 0.9382 -0.1261 0.3222
vn 0.8387 -0.4370 0.3249
vn 0.8704 -0.1195 0.4777
vn 0.7517 -0.4194 0.5090
vn 0.6781 -0.7215 0.1396
vn 0.6075 -0.7074 0.3613
vn 0.5093 -0.6705 0.5395
vn 0.9680 -0.1952 0.1579
vn 0.9550 0.2208 0.1980
vn 0.9500 0.2380 0.2020
vn 0.9051 0.2496 0.3441
vn 0.8566 0.2365 0.4585
vn 0.9001 0.2104 0.3814
vn 0.8987 -0.1611 0.4078
vn 0.7681 -0.4759 0.4284
vn 0.5047 -0.7389 0.4464
vn 0.2339 -0.8019 0.5498
vn 0.2314 -0.8649 0.4455
vn 0.2969 -0.8641 0.4063
vn 0.3644 -0.9110 0.1931
vn 0.4051 -0.9022 0.1483
vn 0.6997 -0.7043 0.1196
vn 0.8804 -0.4584 0.1212
vn -0.4738 -0.8517 0.2240
vn -0.0719 -0.9697 0.2336
vn -0.0703 -0.9019 0.4262
vn -0.4299 -0.8142 0.3903
vn -0.0470 -0.8410 0.5389
vn -0.3657 -0.7875 0.4960
vn -0.7268 -0.6577 0.1980
vn -0.6794 -0.6442 0.3513
vn -0.6270 -0.6323 0.4550
vn -0.0388 -0.9815 0.1876
vn -0.0252 -0.9028 0.4292
vn -0.3455 -0.8548 0.3872
vn -0.6374 -0.6884 0.3463
vn -0.8365 -0.3095 0.4522
vn -0.8763 -0.3546 0.3262
vn -0.8825 -0.3167 0.3478
vn -0.9264 -0.3289 0.1836
vn -0.9296 -0.3188 0.1852
vn -0.7315 -0.6508 0.2036
vn -0.4703 -0.8577 0.2077
vn -0.8877 0.4122 0.2053
vn -0.9791 0.0742 0.1895
vn -0.9333 0.0856 0.3489
vn -0.8401 0.3986 0.3678
vn -0.8940 0.0875 0.4394
vn -0.8078 0.3895 0.4425
vn -0.6508 0.7268 0.2195
vn -0.6181 0.6894 0.3776
vn -0.6091 0.6561 0.4456
vn -0.9803 0.0818 0.1797
vn -0.9505 0.0696 0.3028
vn -0.8615 0.4083 0.3019
vn -0.6599 0.6824 0.3143
vn -0.2942 0.8497 0.4376
vn -0.3313 0.8864 0.3233
vn -0.2834 0.8862 0.3666
vn -0.2873 0.9306 0.2267
vn -0.2779 0.9387 0.2039
vn -0.6445 0.7408 0.1891
vn -0.8862 0.4275 0.1784
vn 0.4313 0.8791 0.2031
vn 0.0956 0.9714 0.2173
vn 0.0754 0.9325 0.3531
vn 0.4007 0.8486 0.3455
vn 0.0614 0.9038 0.4236
vn 0.3773 0.8239 0.4230
vn 0.7298 0.6514 0.2078
vn 0.6987 0.6240 0.3499
vn 0.6702 0.5982 0.4394
vn 0.1069 0.9751 0.1945
vn 0.0589 0.9460 0.3189
vn 0.3944 0.8607 0.3220
vn 0.7114 0.6111 0.3471
vn 0.6696 0.5989 0.4392
vn 0.7109 0.6117 0.3470
vn 0.6980 0.6246 0.3502
vn 0.7292 0.6520 0.2078
vn 0.7313 0.6557 0.1878
vn 0.7319 0.6551 0.1876
vn 0.4396 0.8807 0.1766
vn 0.5461 -0.8372 0.0282
vn 0.5301 -0.8128 0.2414
vn 0.8157 -0.5224 0.2483
vn 0.8441 -0.5360 0.0170
vn 0.9489 -0.1985 0.2453
vn 0.9767 -0.2144 0.0071
vn 0.5414 -0.8303 -0.1319
vn 0.8314 -0.5344 -0.1525
vn 0.9668 -0.2001 -0.1591
vn 0.2598 -0.9399 0.2216
vn 0.9557 0.1789 0.2337
vn 0.9839 0.1781 0.0135
vn 0.9635 0.2232 -0.1481
vn 0.9503 -0.1656 -0.2636
vn 0.9289 0.2808 -0.2413
vn 0.8180 -0.5094 -0.2674
vn 0.5436 -0.7955 -0.2677
vn 0.2965 -0.9171 -0.2667
vn 0.3066 -0.9450 -0.1140
vn 0.2961 -0.9550 0.0178
vn 0.6751 0.7199 -0.1614
vn 0.6553 0.7257 -0.2097
vn 0.3588 0.9175 -0.1718
vn 0.3523 0.9180 -0.1821
vn 0.0315 0.9864 -0.1612
vn 0.0038 0.9816 -0.1907
vn 0.7454 0.6457 -0.1660
vn 0.3674 0.9010 -0.2308
vn -0.0374 0.9724 -0.2305
vn 0.9033 0.3421 -0.2590
vn 0.6885 0.7001 -0.1893
vn 0.6544 0.7265 -0.2097
vn 0.6893 0.6993 -0.1893
vn 0.3874 0.9095 -0.1506
vn 0.0587 0.9891 -0.1353
vn -0.3303 0.9332 -0.1418
vn -0.3576 0.9179 -0.1719
vn -0.4032 0.8957 -0.1873
vn -0.4679 0.8613 -0.1979
vn -0.0715 0.9672 -0.2438
vn -0.5161 0.8279 -0.2197
vn 0.3801 0.8871 -0.2618
vn 0.7873 0.5808 -0.2066
vn 0.9620 0.2468 -0.1164
vn 0.9522 0.2973 -0.0706
vn 0.7448 0.6463 -0.1660
vn 0.7872 0.5809 -0.2069
vn 0.9235 0.3625 -0.1254
vn 0.6739 0.7210 -0.1613
vn 0.7697 0.6378 0.0295
vn 0.7576 0.6187 0.2079
vn 0.4171 0.8904 0.1826
vn 0.4291 0.9025 0.0361
vn 0.0589 0.9828 0.1748
vn 0.0670 0.9975 0.0244
vn 0.7361 0.6683 -0.1075
vn 0.4167 0.9060 -0.0741
vn 0.0735 0.9946 -0.0730
vn 0.7572 0.6193 0.2077
vn -0.3533 0.9191 0.1747
vn -0.3494 0.9370 0.0005
vn -0.3286 0.9388 -0.1034
vn 0.7354 0.6690 -0.1075
vn 0.7693 0.6383 0.0294
vn -0.6671 -0.7400 -0.0857
vn -0.6600 -0.7354 0.1535
vn -0.3363 -0.9274 0.1640
vn -0.3028 -0.9510 -0.0631
vn 0.0147 -0.9810 0.1934
vn 0.0707 -0.9973 -0.0192
vn -0.6804 -0.7165 -0.1542
vn -0.2757 -0.9499 -0.1470
vn 0.1067 -0.9870 -0.1199
vn -0.9109 -0.3833 0.1527
vn 0.0847 -0.9638 -0.2527
vn -0.3089 -0.9246 -0.2231
vn -0.7191 -0.6708 -0.1816
vn -0.9269 -0.3399 -0.1590
vn -0.9249 -0.3508 -0.1469
vn -0.9239 -0.3741 -0.0800
vn -0.6933 0.7202 -0.0241
vn -0.6876 0.7071 0.1652
vn -0.8933 0.4224 0.1536
vn -0.9024 0.4290 -0.0404
vn -0.9873 0.0548 0.1489
vn -0.9964 0.0621 -0.0573
vn -0.6753 0.7233 -0.1441
vn -0.8904 0.4231 -0.1679
vn -0.9854 0.0550 -0.1611
vn -0.9846 0.0119 -0.1742
vn -0.8934 0.4084 -0.1869
vn -0.6675 0.7262 -0.1647
vn -0.7130 -0.6276 -0.3128
vn -0.7348 -0.6242 -0.2653
vn -0.3708 -0.8890 -0.2688
vn -0.3693 -0.9003 -0.2305
vn 0.0305 -0.9553 -0.2942
vn -0.0010 -0.9838 -0.1791
vn -0.6659 -0.6564 -0.3545
vn -0.2816 -0.9368 -0.2077
vn 0.0203 -0.9952 -0.0962
vn -0.9148 -0.3105 -0.2583
vn 0.3021 -0.9021 -0.3081
vn 0.3030 -0.9344 -0.1875
vn 0.2726 -0.9575 -0.0941
vn 0.0393 -0.9940 -0.1017
vn 0.2534 -0.9625 -0.0965
vn -0.2376 -0.9434 -0.2313
vn -0.6570 -0.6456 -0.3893
vn -0.8955 -0.1603 -0.4151
vn -0.9068 -0.1870 -0.3777
vn -0.9116 -0.2561 -0.3215
vn -0.7078 0.6841 -0.1760
vn -0.6740 0.7128 -0.1941
vn -0.8984 0.3807 -0.2191
vn -0.9045 0.3798 -0.1938
vn -0.9714 -0.0070 -0.2374
vn -0.9653 0.0527 -0.2557
vn -0.7489 0.6411 -0.1680
vn -0.8919 0.4080 -0.1952
vn -0.9444 0.1601 -0.2870
vn -0.9214 0.1989 -0.3339
vn -0.8776 0.4140 -0.2416
vn -0.7673 0.6076 -0.2051
vn 0.6186 -0.7583 -0.2059
vn 0.5712 -0.7611 -0.3073
vn 0.8251 -0.4764 -0.3037
vn 0.8819 -0.4366 -0.1777
vn 0.9496 -0.1110 -0.2933
vn 0.9899 -0.0462 -0.1340
vn 0.6419 -0.7555 -0.1311
vn 0.9283 -0.3581 -0.1001
vn 0.9988 0.0069 -0.0484
vn 0.9950 0.0269 -0.0967
vn 0.9431 -0.3033 -0.1361
vn 0.6537 -0.7420 -0.1485
usemtl Hat_1001.002
s 1
f 1/1/1 2/2/2 3/3/3
f 3/3/3 4/4/4 1/1/1
f 5/5/5 6/6/6 7/7/7
f 7/7/7 8/8/8 5/5/5
f 8/8/8 7/7/7 9/9/9
f 9/9/9 10/10/10 8/8/8
f 10/10/10 9/9/9 11/11/11
f 11/11/11 12/12/12 10/10/10
f 12/12/12 11/11/11 13/13/13
f 13/13/13 14/14/14 12/12/12
f 14/14/14 13/13/13 15/15/15
f 15/15/15 16/16/16 14/14/14
f 17/17/17 1/1/1 4/4/4
f 4/4/4 18/18/18 17/17/17
f 19/19/19 5/5/5 8/8/8
f 8/8/8 20/20/20 19/19/19
f 20/20/20 8/8/8 10/10/10
f 10/10/10 21/21/21 20/20/20
f 21/21/21 10/10/10 12/12/12
f 12/12/12 22/22/22 21/21/21
f 22/22/22 12/12/12 14/14/14
f 14/14/14 23/23/23 22/22/22
f 23/23/23 14/14/14 16/16/16
f 16/16/16 24/24/24 23/23/23
f 25/25/25 17/17/17 18/18/18
f 18/18/18 26/26/26 25/25/25
f 27/27/26 19/19/19 20/20/20
f 20/20/20 28/28/27 27/27/26
f 28/28/27 20/20/20 21/21/21
f 21/21/21 29/29/28 28/28/27
f 29/29/28 21/21/21 22/22/22
f 22/22/22 30/30/29 29/29/28
f 30/30/29 22/22/22 23/23/23
f 23/23/23 31/31/30 30/30/29
f 31/31/30 23/23/23 24/24/24
f 24/24/24 32/32/31 31/31/30
f 33/33/32 25/25/25 26/26/26
f 26/26/26 34/34/33 33/33/32
f 35/35/34 27/27/26 28/28/27
f 28/28/27 36/36/35 35/35/34
f 36/36/35 28/28/27 29/29/28
f 29/29/28 37/37/36 36/36/35
f 37/37/36 29/29/28 30/30/29
f 30/30/29 38/38/37 37/37/36
f 38/38/37 30/30/29 31/31/30
f 31/31/30 39/39/38 38/38/37
f 39/39/38 31/31/30 32/32/31
f 32/32/31 40/40/39 39/39/38
f 41/41/40 33/33/32 34/34/33
f 34/34/33 42/42/41 41/41/40
f 43/43/42 35/35/34 36/36/35
f 36/36/35 44/44/43 43/43/42
f 44/44/43 36/36/35 37/37/36
f 37/37/36 45/45/44 44/44/43
f 45/45/44 37/37/36 38/38/37
f 38/38/37 46/46/45 45/45/44
f 46/46/45 38/38/37 39/39/38
f 39/39/38 47/47/46 46/46/45
f 47/47/46 39/39/38 40/40/39
f 40/40/39 48/48/47 47/47/46
f 49/49/48 41/41/40 42/42/41
f 42/42/41 50/50/49 49/49/48
f 51/51/50 43/43/42 44/44/43
f 44/44/43 52/52/51 51/51/50
f 52/52/51 44/44/43 45/45/44
f 45/45/44 53/53/52 52/52/51
f 53/53/52 45/45/44 46/46/45
f 46/46/45 54/54/53 53/53/52
f 54/54/53 46/46/45 47/47/46
f 47/47/46 55/55/54 54/54/53
f 55/55/54 47/47/46 48/48/47
f 48/48/47 56/56/55 55/55/54
f 57/57/56 58/58/57 59/59/58
f 59/59/58 2/2/2 57/57/56
f 2/2/2 59/59/58 60/60/59
f 60/60/59 3/3/3 2/2/2
f 6/6/6 61/61/60 62/62/61
f 62/62/61 7/7/7 6/6/6
f 7/7/7 62/62/61 63/63/62
f 63/63/62 9/9/9 7/7/7
f 9/9/9 63/63/62 64/64/63
f 64/64/63 11/11/11 9/9/9
f 11/11/11 64/64/63 65/65/64
f 65/65/64 13/13/13 11/11/11
f 13/13/13 65/65/64 66/66/65
f 66/66/65 15/15/15 13/13/13
f 15/15/15 66/66/65 67/67/66
f 67/67/66 68/68/67 15/15/15
f 16/16/16 15/15/15 68/68/67
f 68/68/67 69/69/68 16/16/16
f 24/24/24 16/16/16 69/69/68
f 69/69/68 70/70/69 24/24/24
f 32/32/31 24/24/24 70/70/69
f 70/70/69 71/71/70 32/32/31
f 40/40/39 32/32/31 71/71/70
f 71/71/70 72/72/71 40/40/39
f 48/48/47 40/40/39 72/72/71
f 72/72/71 73/73/72 48/48/47
f 56/56/55 48/48/47 73/73/72
f 73/73/72 74/74/73 56/56/55
f 75/75/74 56/56/55 74/74/73
f 74/74/73 76/76/75 75/75/74
f 77/77/76 55/55/54 56/56/55
f 56/56/55 75/75/74 77/77/76
f 78/78/77 54/54/53 55/55/54
f 55/55/54 77/77/76 78/78/77
f 79/79/78 53/53/52 54/54/53
f 54/54/53 78/78/77 79/79/78
f 80/80/79 52/52/51 53/53/52
f 53/53/52 79/79/78 80/80/79
f 81/81/80 51/51/50 52/52/51
f 52/52/51 80/80/79 81/81/80
f 82/82/81 49/49/48 50/50/49
f 50/50/49 83/83/82 82/82/81
f 84/84/83 85/85/84 49/49/48
f 49/49/48 82/82/81 84/84/83
f 85/85/84 86/86/85 41/41/40
f 41/41/40 49/49/48 85/85/84
f 86/86/85 87/87/86 33/33/32
f 33/33/32 41/41/40 86/86/85
f 87/87/86 88/88/87 25/25/25
f 25/25/25 33/33/32 87/87/86
f 88/88/87 89/89/88 17/17/17
f 17/17/17 25/25/25 88/88/87
f 89/89/88 90/90/89 1/1/1
f 1/1/1 17/17/17 89/89/88
f 90/90/89 57/57/56 2/2/2
f 2/2/2 1/1/1 90/90/89
f 91/91/90 92/92/91 93/93/92
f 93/93/92 94/94/93 91/91/90
f 95/95/94 96/96/95 97/97/96
f 97/97/96 98/98/97 95/95/94
f 98/98/97 97/97/96 99/99/98
f 99/99/98 100/100/99 98/98/97
f 100/100/99 99/99/98 101/101/100
f 101/101/100 102/102/101 100/100/99
f 102/102/101 101/101/100 103/103/102
f 103/103/102 104/104/103 102/102/101
f 104/104/103 103/103/102 105/105/104
f 105/105/104 106/106/105 104/104/103
f 107/107/106 91/91/90 94/94/93
f 94/94/93 108/108/107 107/107/106
f 109/109/108 95/95/94 98/98/97
f 98/98/97 110/110/109 109/109/108
f 110/110/109 98/98/97 100/100/99
f 100/100/99 111/111/110 110/110/109
f 111/111/110 100/100/99 102/102/101
f 102/102/101 112/112/111 111/111/110
f 112/112/111 102/102/101 104/104/103
f 104/104/103 113/113/112 112/112/111
f 113/113/112 104/104/103 106/106/105
f 106/106/105 114/114/113 113/113/112
f 115/115/114 107/107/106 108/108/107
f 108/108/107 116/116/115 115/115/114
f 117/117/116 109/109/108 110/110/109
f 110/110/109 118/118/117 117/117/116
f 118/118/117 110/110/109 111/111/110
f 111/111/110 119/119/118 118/118/117
f 119/119/118 111/111/110 112/112/111
f 112/112/111 120/120/119 119/119/118
f 120/120/119 112/112/111 113/113/112
f 113/113/112 121/121/120 120/120/119
f 121/121/120 113/113/112 114/114/113
f 114/114/113 122/122/121 121/121/120
f 123/123/122 115/115/114 116/116/115
f 116/116/115 124/124/123 123/123/122
f 125/125/124 117/117/116 118/118/117
f 118/118/117 126/126/125 125/125/124
f 126/126/125 118/118/117 119/119/118
f 119/119/118 127/127/126 126/126/125
f 127/127/126 119/119/118 120/120/119
f 120/120/119 128/128/127 127/127/126
f 128/128/127 120/120/119 121/121/120
f 121/121/120 129/129/128 128/128/127
f 129/129/128 121/121/120 122/122/121
f 122/122/121 130/130/129 129/129/128
f 131/131/130 123/123/122 124/124/123
f 124/124/123 132/132/131 131/131/130
f 133/133/132 125/125/124 126/126/125
f 126/126/125 134/134/133 133/133/132
f 134/134/133 126/126/125 127/127/126
f 127/127/126 135/135/134 134/134/133
f 135/135/134 127/127/126 128/128/127
f 128/128/127 136/136/135 135/135/134
f 136/136/135 128/128/127 129/129/128
f 129/129/128 137/137/136 136/136/135
f 137/137/136 129/129/128 130/130/129
f 130/130/129 138/138/137 137/137/136
f 139/139/138 131/131/130 132/132/131
f 132/132/131 140/140/139 139/139/138
f 141/141/140 133/133/132 134/134/133
f 134/134/133 142/142/141 141/141/140
f 142/142/141 134/134/133 135/135/134
f 135/135/134 143/143/142 142/142/141
f 143/143/142 135/135/134 136/136/135
f 136/136/135 144/144/143 143/143/142
f 144/144/143 136/136/135 137/137/136
f 137/137/136 145/145/144 144/144/143
f 145/145/144 137/137/136 138/138/137
f 138/138/137 146/146/145 145/145/144
f 147/147/146 84/84/83 82/82/81
f 82/82/81 92/92/91 147/147/146
f 92/92/91 82/82/81 83/83/82
f 83/83/82 93/93/92 92/92/91
f 96/96/95 81/81/80 80/80/79
f 80/80/79 97/97/96 96/96/95
f 97/97/96 80/80/79 79/79/78
f 79/79/78 99/99/98 97/97/96
f 99/99/98 79/79/78 78/78/77
f 78/78/77 101/101/100 99/99/98
f 101/101/100 78/78/77 77/77/76
f 77/77/76 103/103/102 101/101/100
f 103/103/102 77/77/76 75/75/74
f 75/75/74 105/105/104 103/103/102
f 105/105/104 75/75/74 76/76/75
f 76/76/75 148/148/147 105/105/104
f 106/106/105 105/105/104 148/148/147
f 148/148/147 149/149/148 106/106/105
f 114/114/113 106/106/105 149/149/148
f 149/149/148 150/150/149 114/114/113
f 122/122/121 114/114/113 150/150/149
f 150/150/149 151/151/150 122/122/121
f 130/130/129 122/122/121 151/151/150
f 151/151/150 152/152/151 130/130/129
f 138/138/137 130/130/129 152/152/151
f 152/152/151 153/153/152 138/138/137
f 146/146/145 138/138/137 153/153/152
f 153/153/152 154/154/153 146/146/145
f 155/155/154 146/146/145 154/154/153
f 154/154/153 156/156/155 155/155/154
f 157/157/156 145/145/144 146/146/145
f 146/146/145 155/155/154 157/157/156
f 158/158/157 144/144/143 145/145/144
f 145/145/144 157/157/156 158/158/157
f 159/159/158 143/143/142 144/144/143
f 144/144/143 158/158/157 159/159/158
f 160/160/159 142/142/141 143/143/142
f 143/143/142 159/159/158 160/160/159
f 161/161/160 141/141/140 142/142/141
f 142/142/141 160/160/159 161/161/160
f 162/162/161 139/139/138 140/140/139
f 140/140/139 163/163/162 162/162/161
f 164/164/163 165/165/164 139/139/138
f 139/139/138 162/162/161 164/164/163
f 165/165/164 166/166/165 131/131/130
f 131/131/130 139/139/138 165/165/164
f 166/166/165 167/167/166 123/123/122
f 123/123/122 131/131/130 166/166/165
f 167/167/166 168/168/167 115/115/114
f 115/115/114 123/123/122 167/167/166
f 168/168/167 169/169/168 107/107/106
f 107/107/106 115/115/114 168/168/167
f 169/169/168 170/170/169 91/91/90
f 91/91/90 107/107/106 169/169/168
f 170/170/169 147/147/146 92/92/91
f 92/92/91 91/91/90 170/170/169
f 171/171/170 172/172/171 173/173/172
f 173/173/172 174/174/173 171/171/170
f 175/175/174 176/176/175 177/177/176
f 177/177/176 178/178/177 175/175/174
f 178/178/177 177/177/176 179/179/178
f 179/179/178 180/180/179 178/178/177
f 180/180/179 179/179/178 181/181/180
f 181/181/180 182/182/181 180/180/179
f 182/182/181 181/181/180 183/183/182
f 183/183/182 184/184/183 182/182/181
f 184/184/183 183/183/182 185/185/184
f 185/185/184 186/186/185 184/184/183
f 187/187/186 171/171/170 174/174/173
f 174/174/173 188/188/187 187/187/186
f 189/189/188 175/175/174 178/178/177
f 178/178/177 190/190/189 189/189/188
f 190/190/189 178/178/177 180/180/179
f 180/180/179 191/191/190 190/190/189
f 191/191/190 180/180/179 182/182/181
f 182/182/181 192/192/191 191/191/190
f 192/192/191 182/182/181 184/184/183
f 184/184/183 193/193/192 192/192/191
f 193/193/192 184/184/183 186/186/185
f 186/186/185 194/194/193 193/193/192
f 195/195/194 187/187/186 188/188/187
f 188/188/187 196/196/195 195/195/194
f 197/197/196 189/189/188 190/190/189
f 190/190/189 198/198/197 197/197/196
f 198/198/197 190/190/189 191/191/190
f 191/191/190 199/199/198 198/198/197
f 199/199/198 191/191/190 192/192/191
f 192/192/191 200/200/199 199/199/198
f 200/200/199 192/192/191 193/193/192
f 193/193/192 201/201/200 200/200/199
f 201/201/200 193/193/192 194/194/193
f 194/194/193 202/202/201 201/201/200
f 203/203/202 195/195/194 196/196/195
f 196/196/195 204/204/203 203/203/202
f 205/205/204 197/197/196 198/198/197
f 198/198/197 206/206/205 205/205/204
f 206/206/205 198/198/197 199/199/198
f 199/199/198 207/207/206 206/206/205
f 207/207/206 199/199/198 200/200/199
f 200/200/199 208/208/207 207/207/206
f 208/208/207 200/200/199 201/201/200
f 201/201/200 209/209/208 208/208/207
f 209/209/208 201/201/200 202/202/201
f 202/202/201 210/210/209 209/209/208
f 211/211/210 203/203/202 204/204/203
f 204/204/203 212/212/211 211/211/210
f 213/213/212 205/205/204 206/206/205
f 206/206/205 214/214/213 213/213/212
f 214/214/213 206/206/205 207/207/206
f 207/207/206 215/215/214 214/214/213
f 215/215/214 207/207/206 208/208/207
f 208/208/207 216/216/215 215/215/214
f 216/216/215 208/208/207 209/209/208
f 209/209/208 217/217/216 216/216/215
f 217/217/216 209/209/208 210/210/209
f 210/210/209 218/218/217 217/217/216
f 219/219/218 211/211/210 212/212/211
f 212/212/211 220/220/219 219/219/218
f 221/221/220 213/213/212 214/214/213
f 214/214/213 222/222/221 221/221/220
f 222/222/221 214/214/213 215/215/214
f 215/215/214 223/223/222 222/222/221
f 223/223/222 215/215/214 216/216/215
f 216/216/215 224/224/223 223/223/222
f 224/224/223 216/216/215 217/217/216
f 217/217/216 225/225/224 224/224/223
f 225/225/224 217/217/216 218/218/217
f 218/218/217 226/226/225 225/225/224
f 227/227/226 164/164/163 162/162/161
f 162/162/161 172/172/171 227/227/226
f 172/172/171 162/162/161 163/163/162
f 163/163/162 173/173/172 172/172/171
f 176/176/175 161/161/160 160/160/159
f 160/160/159 177/177/176 176/176/175
f 177/177/176 160/160/159 159/159/158
f 159/159/158 179/179/178 177/177/176
f 179/179/178 159/159/158 158/158/157
f 158/158/157 181/181/180 179/179/178
f 181/181/180 158/158/157 157/157/156
f 157/157/156 183/183/182 181/181/180
f 183/183/182 157/157/156 155/155/154
f 155/155/154 185/185/184 183/183/182
f 185/185/184 155/155/154 156/156/155
f 156/156/155 228/228/227 185/185/184
f 186/186/185 185/185/184 228/228/227
f 228/228/227 229/229/228 186/186/185
f 194/194/193 186/186/185 229/229/228
f 229/229/228 230/230/229 194/194/193
f 202/202/201 194/194/193 230/230/229
f 230/230/229 231/231/230 202/202/201
f 210/210/209 202/202/201 231/231/230
f 231/231/230 232/232/231 210/210/209
f 218/218/217 210/210/209 232/232/231
f 232/232/231 233/233/232 218/218/217
f 226/226/225 218/218/217 233/233/232
f 233/233/232 234/234/233 226/226/225
f 235/235/234 226/226/225 234/234/233
f 234/234/233 236/236/235 235/235/234
f 237/237/236 225/225/224 226/226/225
f 226/226/225 235/235/234 237/237/236
f 238/238/237 224/224/223 225/225/224
f 225/225/224 237/237/236 238/238/237
f 239/239/238 223/223/222 224/224/223
f 224/224/223 238/238/237 239/239/238
f 240/240/239 222/222/221 223/223/222
f 223/223/222 239/239/238 240/240/239
f 241/241/240 221/221/220 222/222/221
f 222/222/221 240/240/239 241/241/240
f 242/242/241 219/219/218 220/220/219
f 220/220/219 243/243/242 242/242/241
f 244/244/243 245/245/244 219/219/218
f 219/219/218 242/242/241 244/244/243
f 245/245/244 246/246/245 211/211/210
f 211/211/210 219/219/218 245/245/244
f 246/246/245 247/247/246 203/203/202
f 203/203/202 211/211/210 246/246/245
f 247/247/246 248/248/247 195/195/194
f 195/195/194 203/203/202 247/247/246
f 248/248/247 249/249/248 187/187/186
f 187/187/186 195/195/194 248/248/247
f 249/249/248 250/250/249 171/171/170
f 171/171/170 187/187/186 249/249/248
f 250/250/249 227/227/226 172/172/171
f 172/172/171 171/171/170 250/250/249
f 251/251/250 252/252/251 253/253/252
f 253/253/252 254/254/253 251/251/250
f 255/255/254 256/256/255 257/257/256
f 257/257/256 258/258/257 255/255/254
f 258/258/257 257/257/256 259/259/258
f 259/259/258 260/260/259 258/258/257
f 260/260/259 259/259/258 261/261/260
f 261/261/260 262/262/261 260/260/259
f 262/262/261 261/261/260 263/263/262
f 263/263/262 264/264/263 262/262/261
f 264/264/263 263/263/262 265/265/264
f 265/265/264 266/266/265 264/264/263
f 267/267/266 251/251/250 254/254/253
f 254/254/253 268/268/267 267/267/266
f 269/269/268 255/255/254 258/258/257
f 258/258/257 270/270/269 269/269/268
f 270/270/269 258/258/257 260/260/259
f 260/260/259 271/271/270 270/270/269
f 271/271/270 260/260/259 262/262/261
f 262/262/261 272/272/271 271/271/270
f 272/272/271 262/262/261 264/264/263
f 264/264/263 273/273/272 272/272/271
f 273/273/272 264/264/263 266/266/265
f 266/266/265 274/274/273 273/273/272
f 275/275/274 267/267/266 268/268/267
f 268/268/267 276/276/275 275/275/274
f 277/277/276 269/269/268 270/270/269
f 270/270/269 278/278/277 277/277/276
f 278/278/277 270/270/269 271/271/270
f 271/271/270 279/279/278 278/278/277
f 279/279/278 271/271/270 272/272/271
f 272/272/271 280/280/279 279/279/278
f 280/280/279 272/272/271 273/273/272
f 273/273/272 281/281/280 280/280/279
f 281/281/280 273/273/272 274/274/273
f 274/274/273 282/282/281 281/281/280
f 283/283/282 275/275/274 276/276/275
f 276/276/275 284/284/283 283/283/282
f 285/285/284 277/277/276 278/278/277
f 278/278/277 286/286/285 285/285/284
f 286/286/285 278/278/277 279/279/278
f 279/279/278 287/287/286 286/286/285
f 287/287/286 279/279/278 280/280/279
f 280/280/279 288/288/287 287/287/286
f 288/288/287 280/280/279 281/281/280
f 281/281/280 289/289/288 288/288/287
f 289/289/288 281/281/280 282/282/281
f 282/282/281 290/290/289 289/289/288
f 291/291/290 283/283/282 284/284/283
f 284/284/283 292/292/291 291/291/290
f 293/293/292 285/285/284 286/286/285
f 286/286/285 294/294/293 293/293/292
f 294/294/293 286/286/285 287/287/286
f 287/287/286 295/295/294 294/294/293
f 295/295/294 287/287/286 288/288/287
f 288/288/287 296/296/295 295/295/294
f 296/296/295 288/288/287 289/289/288
f 289/289/288 297/297/296 296/296/295
f 297/297/296 289/289/288 290/290/289
f 290/290/289 298/298/297 297/297/296
f 299/299/298 291/291/290 292/292/291
f 292/292/291 300/300/299 299/299/298
f 301/301/300 293/293/292 294/294/293
f 294/294/293 302/302/301 301/301/300
f 302/302/301 294/294/293 295/295/294
f 295/295/294 303/303/302 302/302/301
f 303/303/302 295/295/294 296/296/295
f 296/296/295 304/304/303 303/303/302
f 304/304/303 296/296/295 297/297/296
f 297/297/296 305/305/304 304/304/303
f 305/305/304 297/297/296 298/298/297
f 298/298/297 306/306/305 305/305/304
f 307/307/306 244/244/243 242/242/241
f 242/242/241 252/252/251 307/307/306
f 252/252/251 242/242/241 243/243/242
f 243/243/242 253/253/252 252/252/251
f 256/256/255 241/241/240 240/240/239
f 240/240/239 257/257/256 256/256/255
f 257/257/256 240/240/239 239/239/238
f 239/239/238 259/259/258 257/257/256
f 259/259/258 239/239/238 238/238/237
f 238/238/237 261/261/260 259/259/258
f 261/261/260 238/238/237 237/237/236
f 237/237/236 263/263/262 261/261/260
f 263/263/262 237/237/236 235/235/234
f 235/235/234 265/265/264 263/263/262
f 265/265/264 235/235/234 236/236/235
f 236/236/235 308/308/307 265/265/264
f 266/266/265 265/265/264 308/308/307
f 308/308/307 309/309/308 266/266/265
f 274/274/273 266/266/265 309/309/308
f 309/309/308 310/310/309 274/274/273
f 282/282/281 274/274/273 310/310/309
f 310/310/309 311/311/310 282/282/281
f 290/290/289 282/282/281 311/311/310
f 311/311/310 312/312/311 290/290/289
f 298/298/297 290/290/289 312/312/311
f 312/312/311 313/313/312 298/298/297
f 306/306/305 298/298/297 313/313/312
f 313/313/312 314/314/313 306/306/305
f 66/66/65 306/306/305 314/314/313
f 314/314/313 67/67/66 66/66/65
f 65/65/64 305/305/304 306/306/305
f 306/306/305 66/66/65 65/65/64
f 64/64/63 304/304/303 305/305/304
f 305/305/304 65/65/64 64/64/63
f 63/63/62 303/303/302 304/304/303
f 304/304/303 64/64/63 63/63/62
f 62/62/61 302/302/301 303/303/302
f 303/303/302 63/63/62 62/62/61
f 61/61/60 301/301/300 302/302/301
f 302/302/301 62/62/61 61/61/60
f 59/59/58 299/299/298 300/300/299
f 300/300/299 60/60/59 59/59/58
f 58/58/57 315/315/314 299/299/298
f 299/299/298 59/59/58 58/58/57
f 315/315/314 316/316/315 291/291/290
f 291/291/290 299/299/298 315/315/314
f 316/316/315 317/317/316 283/283/282
f 283/283/282 291/291/290 316/316/315
f 317/317/316 318/318/317 275/275/274
f 275/275/274 283/283/282 317/317/316
f 318/318/317 319/319/318 267/267/266
f 267/267/266 275/275/274 318/318/317
f 319/319/318 320/320/319 251/251/250
f 251/251/250 267/267/266 319/319/318
f 320/320/319 307/307/306 252/252/251
f 252/252/251 251/251/250 320/320/319
f 321/321/320 322/322/321 323/323/322
f 323/323/322 324/324/323 321/321/320
f 324/324/323 323/323/322 325/325/324
f 325/325/324 326/326/325 324/324/323
f 326/326/325 325/325/324 327/327/326
f 327/327/326 328/328/327 326/326/325
f 328/328/327 327/327/326 329/329/328
f 329/329/328 330/330/329 328/328/327
f 330/330/329 329/329/328 331/331/330
f 331/331/330 332/332/331 330/330/329
f 332/332/331 331/331/330 333/333/332
f 333/333/332 334/334/333 332/332/331
f 335/335/334 321/321/320 324/324/323
f 324/324/323 336/336/335 335/335/334
f 336/336/335 324/324/323 326/326/325
f 326/326/325 337/337/336 336/336/335
f 337/337/336 326/326/325 328/328/327
f 328/328/327 338/338/337 337/337/336
f 338/338/337 328/328/327 330/330/329
f 330/330/329 339/339/338 338/338/337
f 339/339/338 330/330/329 332/332/331
f 332/332/331 340/340/339 339/339/338
f 340/340/339 332/332/331 334/334/333
f 334/334/333 341/341/340 340/340/339
f 342/342/341 335/335/334 336/336/335
f 336/336/335 343/343/342 342/342/341
f 343/343/342 336/336/335 337/337/336
f 337/337/336 344/344/343 343/343/342
f 344/344/343 337/337/336 338/338/337
f 338/338/337 345/345/344 344/344/343
f 345/345/344 338/338/337 339/339/338
f 339/339/338 346/346/345 345/345/344
f 346/346/345 339/339/338 340/340/339
f 340/340/339 347/347/346 346/346/345
f 347/347/346 340/340/339 341/341/340
f 341/341/340 348/348/347 347/347/346
f 349/349/348 342/342/341 343/343/342
f 343/343/342 350/350/349 349/349/348
f 350/350/349 343/343/342 344/344/343
f 344/344/343 351/351/350 350/350/349
f 351/351/350 344/344/343 345/345/344
f 345/345/344 352/352/351 351/351/350
f 352/352/351 345/345/344 346/346/345
f 346/346/345 353/353/352 352/352/351
f 353/353/352 346/346/345 347/347/346
f 347/347/346 354/354/353 353/353/352
f 354/354/353 347/347/346 348/348/347
f 348/348/347 355/355/354 354/354/353
f 356/356/355 349/349/348 350/350/349
f 350/350/349 357/357/356 356/356/355
f 357/357/356 350/350/349 351/351/350
f 351/351/350 358/358/357 357/357/356
f 358/358/357 351/351/350 352/352/351
f 352/352/351 359/359/358 358/358/357
f 359/359/358 352/352/351 353/353/352
f 353/353/352 360/360/359 359/359/358
f 360/360/359 353/353/352 354/354/353
f 354/354/353 361/361/360 360/360/359
f 361/361/360 354/354/353 355/355/354
f 355/355/354 362/362/361 361/361/360
f 363/363/362 356/356/355 357/357/356
f 357/357/356 364/364/363 363/363/362
f 364/364/363 357/357/356 358/358/357
f 358/358/357 365/365/364 364/364/363
f 365/365/364 358/358/357 359/359/358
f 359/359/358 366/366/365 365/365/364
f 366/366/365 359/359/358 360/360/359
f 360/360/359 367/367/366 366/366/365
f 367/367/366 360/360/359 361/361/360
f 361/361/360 368/368/367 367/367/366
f 368/368/367 361/361/360 362/362/361
f 362/362/361 369/369/368 368/368/367
f 85/85/84 84/84/83 147/147/146
f 147/147/146 322/322/321 85/85/84
f 322/322/321 147/147/146 170/170/169
f 170/170/169 323/323/322 322/322/321
f 323/323/322 170/170/169 169/169/168
f 169/169/168 325/325/324 323/323/322
f 325/325/324 169/169/168 168/168/167
f 168/168/167 327/327/326 325/325/324
f 327/327/326 168/168/167 167/167/166
f 167/167/166 329/329/328 327/327/326
f 329/329/328 167/167/166 166/166/165
f 166/166/165 331/331/330 329/329/328
f 331/331/330 166/166/165 165/165/164
f 165/165/164 333/333/332 331/331/330
f 333/333/332 165/165/164 164/164/163
f 164/164/163 227/227/226 333/333/332
f 334/334/333 333/333/332 227/227/226
f 227/227/226 250/250/249 334/334/333
f 341/341/340 334/334/333 250/250/249
f 250/250/249 249/249/248 341/341/340
f 348/348/347 341/341/340 249/249/248
f 249/249/248 248/248/247 348/348/347
f 355/355/354 348/348/347 248/248/247
f 248/248/247 247/247/246 355/355/354
f 362/362/361 355/355/354 247/247/246
f 247/247/246 246/246/245 362/362/361
f 369/369/368 362/362/361 246/246/245
f 246/246/245 245/245/244 369/369/368
f 307/307/306 369/369/368 245/245/244
f 245/245/244 244/244/243 307/307/306
f 320/320/319 368/368/367 369/369/368
f 369/369/368 307/307/306 320/320/319
f 319/319/318 367/367/366 368/368/367
f 368/368/367 320/320/319 319/319/318
f 318/318/317 366/366/365 367/367/366
f 367/367/366 319/319/318 318/318/317
f 317/317/316 365/365/364 366/366/365
f 366/366/365 318/318/317 317/317/316
f 316/316/315 364/364/363 365/365/364
f 365/365/364 317/317/316 316/316/315
f 315/315/314 363/363/362 364/364/363
f 364/364/363 316/316/315 315/315/314
f 58/58/57 57/57/56 363/363/362
f 363/363/362 315/315/314 58/58/57
f 57/57/56 90/90/89 356/356/355
f 356/356/355 363/363/362 57/57/56
f 90/90/89 89/89/88 349/349/348
f 349/349/348 356/356/355 90/90/89
f 89/89/88 88/88/87 342/342/341
f 342/342/341 349/349/348 89/89/88
f 88/88/87 87/87/86 335/335/334
f 335/335/334 342/342/341 88/88/87
f 87/87/86 86/86/85 321/321/320
f 321/321/320 335/335/334 87/87/86
f 86/86/85 85/85/84 322/322/321
f 322/322/321 321/321/320 86/86/85
f 370/370/369 371/371/370 372/372/371
f 372/372/371 373/373/372 370/370/369
f 373/373/372 372/372/371 374/374/373
f 374/374/373 375/375/374 373/373/372
f 375/375/374 374/374/373 376/376/375
f 376/376/375 377/377/376 375/375/374
f 377/377/376 376/376/375 378/378/377
f 378/378/377 379/379/378 377/377/376
f 379/379/378 378/378/377 380/380/379
f 380/380/379 381/381/380 379/379/378
f 381/381/380 380/380/379 382/382/381
f 382/382/381 383/383/382 381/381/380
f 384/384/383 370/370/369 373/373/372
f 373/373/372 385/385/384 384/384/383
f 385/385/384 373/373/372 375/375/374
f 375/375/374 386/386/385 385/385/384
f 386/386/385 375/375/374 377/377/376
f 377/377/376 387/387/386 386/386/385
f 387/387/386 377/377/376 379/379/378
f 379/379/378 388/388/387 387/387/386
f 388/388/387 379/379/378 381/381/380
f 381/381/380 389/389/388 388/388/387
f 389/389/388 381/381/380 383/383/382
f 383/383/382 390/390/389 389/389/388
f 391/391/390 384/384/383 385/385/384
f 385/385/384 392/392/391 391/391/390
f 392/392/391 385/385/384 386/386/385
f 386/386/385 393/393/392 392/392/391
f 393/393/392 386/386/385 387/387/386
f 387/387/386 394/394/393 393/393/392
f 394/394/393 387/387/386 388/388/387
f 388/388/387 395/395/394 394/394/393
f 395/395/394 388/388/387 389/389/388
f 389/389/388 396/396/395 395/395/394
f 396/396/395 389/389/388 390/390/389
f 390/390/389 397/397/396 396/396/395
f 398/398/397 391/391/390 392/392/391
f 392/392/391 399/399/398 398/398/397
f 399/399/398 392/392/391 393/393/392
f 393/393/392 400/400/399 399/399/398
f 400/400/399 393/393/392 394/394/393
f 394/394/393 401/401/400 400/400/399
f 401/401/400 394/394/393 395/395/394
f 395/395/394 402/402/401 401/401/400
f 402/402/401 395/395/394 396/396/395
f 396/396/395 403/403/402 402/402/401
f 403/403/402 396/396/395 397/397/396
f 397/397/396 404/404/403 403/403/402
f 405/405/404 398/398/397 399/399/398
f 399/399/398 406/406/405 405/405/404
f 406/406/405 399/399/398 400/400/399
f 400/400/399 407/407/406 406/406/405
f 407/407/406 400/400/399 401/401/400
f 401/401/400 408/408/407 407/407/406
f 408/408/407 401/401/400 402/402/401
f 402/402/401 409/409/408 408/408/407
f 409/409/408 402/402/401 403/403/402
f 403/403/402 410/410/409 409/409/408
f 410/410/409 403/403/402 404/404/403
f 404/404/403 411/411/410 410/410/409
f 412/412/411 405/405/404 406/406/405
f 406/406/405 413/413/412 412/412/411
f 413/413/412 406/406/405 407/407/406
f 407/407/406 414/414/413 413/413/412
f 414/414/413 407/407/406 408/408/407
f 408/408/407 415/415/414 414/414/413
f 415/415/414 408/408/407 409/409/408
f 409/409/408 416/416/415 415/415/414
f 416/416/415 409/409/408 410/410/409
f 410/410/409 417/417/416 416/416/415
f 417/417/416 410/410/409 411/411/410
f 411/411/410 418/418/417 417/417/416
f 228/228/227 156/156/155 154/154/153
f 154/154/153 371/371/370 228/228/227
f 371/371/370 154/154/153 153/153/152
f 153/153/152 372/372/371 371/371/370
f 372/372/371 153/153/152 152/152/151
f 152/152/151 374/374/373 372/372/371
f 374/374/373 152/152/151 151/151/150
f 151/151/150 376/376/375 374/374/373
f 376/376/375 151/151/150 150/150/149
f 150/150/149 378/378/377 376/376/375
f 378/378/377 150/150/149 149/149/148
f 149/149/148 380/380/379 378/378/377
f 380/380/379 149/149/148 148/148/147
f 148/148/147 382/382/381 380/380/379
f 382/382/381 148/148/147 76/76/75
f 76/76/75 74/74/73 382/382/381
f 383/383/382 382/382/381 74/74/73
f 74/74/73 73/73/72 383/383/382
f 390/390/389 383/383/382 73/73/72
f 73/73/72 72/72/71 390/390/389
f 397/397/396 390/390/389 72/72/71
f 72/72/71 71/71/70 397/397/396
f 404/404/403 397/397/396 71/71/70
f 71/71/70 70/70/69 404/404/403
f 411/411/410 404/404/403 70/70/69
f 70/70/69 69/69/68 411/411/410
f 418/418/417 411/411/410 69/69/68
f 69/69/68 68/68/67 418/418/417
f 314/314/313 418/418/417 68/68/67
f 68/68/67 67/67/66 314/314/313
f 313/313/312 417/417/416 418/418/417
f 418/418/417 314/314/313 313/313/312
f 312/312/311 416/416/415 417/417/416
f 417/417/416 313/313/312 312/312/311
f 311/311/310 415/415/414 416/416/415
f 416/416/415 312/312/311 311/311/310
f 310/310/309 414/414/413 415/415/414
f 415/415/414 311/311/310 310/310/309
f 309/309/308 413/413/412 414/414/413
f 414/414/413 310/310/309 309/309/308
f 308/308/307 412/412/411 413/413/412
f 413/413/412 309/309/308 308/308/307
f 236/236/235 234/234/233 412/412/411
f 412/412/411 308/308/307 236/236/235
f 234/234/233 233/233/232 405/405/404
f 405/405/404 412/412/411 234/234/233
f 233/233/232 232/232/231 398/398/397
f 398/398/397 405/405/404 233/233/232
f 232/232/231 231/231/230 391/391/390
f 391/391/390 398/398/397 232/232/231
f 231/231/230 230/230/229 384/384/383
f 384/384/383 391/391/390 231/231/230
f 230/230/229 229/229/228 370/370/369
f 370/370/369 384/384/383 230/230/229
f 229/229/228 228/228/227 371/371/370
f 371/371/370 370/370/369 229/229/228
usemtl Stems_1001.002
f 419/419/418 420/420/419 421/421/420
f 421/421/420 422/422/421 419/419/418
f 422/422/421 421/421/420 423/423/422
f 423/423/422 424/424/423 422/422/421
f 425/425/424 419/419/418 422/422/421
f 422/422/421 426/426/425 425/425/424
f 426/426/425 422/422/421 424/424/423
f 424/424/423 427/427/426 426/426/425
f 428/428/427 429/429/428 430/430/429
f 430/430/429 420/420/419 428/428/427
f 420/420/419 430/430/429 431/431/430
f 431/431/430 421/421/420 420/420/419
f 421/421/420 431/431/430 432/432/431
f 432/432/431 423/423/422 421/421/420
f 423/423/422 432/432/431 433/433/432
f 433/433/432 434/434/433 423/423/422
f 424/424/423 423/423/422 434/434/433
f 434/434/433 435/435/434 424/424/423
f 427/427/426 424/424/423 435/435/434
f 435/435/434 436/436/435 427/427/426
f 437/437/436 427/427/426 436/436/435
f 436/436/435 438/438/437 437/437/436
f 439/439/438 426/426/425 427/427/426
f 427/427/426 437/437/436 439/439/438
f 440/440/439 425/425/424 426/426/425
f 426/426/425 439/439/438 440/440/439
f 441/441/440 442/442/441 425/425/424
f 425/425/424 440/440/439 441/441/440
f 442/442/441 443/443/442 419/419/418
f 419/419/418 425/425/424 442/442/441
f 443/443/442 428/428/427 420/420/419
f 420/420/419 419/419/418 443/443/442
f 444/444/443 445/445/444 446/446/445
f 446/446/445 447/447/446 444/444/443
f 447/447/446 446/446/445 448/448/447
f 448/448/447 449/449/448 447/447/446
f 450/450/449 444/444/443 447/447/446
f 447/447/446 451/451/450 450/450/449
f 451/451/450 447/447/446 449/449/448
f 449/449/448 452/452/451 451/451/450
f 453/453/452 441/441/440 440/440/439
f 440/440/439 445/445/444 453/453/452
f 445/445/444 440/440/439 439/439/438
f 439/439/438 446/446/445 445/445/444
f 446/446/445 439/439/438 437/437/436
f 437/437/436 448/448/447 446/446/445
f 448/448/447 437/437/436 438/438/437
f 438/438/437 454/454/453 448/448/447
f 449/449/448 448/448/447 454/454/453
f 454/454/453 455/455/454 449/449/448
f 452/452/451 449/449/448 455/455/454
f 455/455/454 456/456/455 452/452/451
f 457/457/456 452/452/451 456/456/455
f 456/456/455 458/458/457 457/457/456
f 459/459/458 451/451/450 452/452/451
f 452/452/451 457/457/456 459/459/458
f 460/460/459 450/450/449 451/451/450
f 451/451/450 459/459/458 460/460/459
f 461/461/460 462/462/461 450/450/449
f 450/450/449 460/460/459 461/461/460
f 462/462/461 463/463/462 444/444/443
f 444/444/443 450/450/449 462/462/461
f 463/463/462 453/453/452 445/445/444
f 445/445/444 444/444/443 463/463/462
f 464/464/463 465/465/464 466/466/465
f 466/466/465 467/467/466 464/464/463
f 467/467/466 466/466/465 468/468/467
f 468/468/467 469/469/468 467/467/466
f 470/470/469 464/464/463 467/467/466
f 467/467/466 471/471/470 470/470/469
f 471/471/470 467/467/466 469/469/468
f 469/469/468 472/472/471 471/471/470
f 473/473/472 461/461/460 460/460/459
f 460/460/459 465/465/464 473/473/472
f 465/465/464 460/460/459 459/459/458
f 459/459/458 466/466/465 465/465/464
f 466/466/465 459/459/458 457/457/456
f 457/457/456 468/468/467 466/466/465
f 468/468/467 457/457/456 458/458/457
f 458/458/457 474/474/473 468/468/467
f 469/469/468 468/468/467 474/474/473
f 474/474/473 475/475/474 469/469/468
f 472/472/471 469/469/468 475/475/474
f 475/475/474 476/476/475 472/472/471
f 477/477/476 472/472/471 476/476/475
f 476/476/475 478/478/477 477/477/476
f 479/479/478 471/471/470 472/472/471
f 472/472/471 477/477/476 479/479/478
f 480/480/479 470/470/469 471/471/470
f 471/471/470 479/479/478 480/480/479
f 481/481/480 482/482/481 470/470/469
f 470/470/469 480/480/479 481/481/480
f 482/482/481 483/483/482 464/464/463
f 464/464/463 470/470/469 482/482/481
f 483/483/482 473/473/472 465/465/464
f 465/465/464 464/464/463 483/483/482
f 484/484/483 485/485/484 486/486/485
f 486/486/485 487/487/486 484/484/483
f 487/487/486 486/486/485 488/488/487
f 488/488/487 489/489/488 487/487/486
f 490/490/489 484/484/483 487/487/486
f 487/487/486 491/491/490 490/490/489
f 491/491/490 487/487/486 489/489/488
f 489/489/488 492/492/491 491/491/490
f 493/493/492 481/481/480 480/480/479
f 480/480/479 485/485/484 493/493/492
f 485/485/484 480/480/479 479/479/478
f 479/479/478 486/486/485 485/485/484
f 486/486/485 479/479/478 477/477/476
f 477/477/476 488/488/487 486/486/485
f 488/488/487 477/477/476 478/478/477
f 478/478/477 494/494/493 488/488/487
f 489/489/488 488/488/487 494/494/493
f 494/494/493 495/495/494 489/489/488
f 492/492/491 489/489/488 495/495/494
f 495/495/494 496/496/495 492/492/491
f 432/432/431 497/497/496 498/498/497
f 498/498/497 433/433/432 432/432/431
f 431/431/430 499/499/498 497/497/496
f 497/497/496 432/432/431 431/431/430
f 430/430/429 500/500/499 499/499/498
f 499/499/498 431/431/430 430/430/429
f 429/429/428 501/501/500 500/500/499
f 500/500/499 430/430/429 429/429/428
f 502/502/501 503/503/502 484/484/483
f 484/484/483 490/490/489 502/502/501
f 503/503/502 493/493/492 485/485/484
f 485/485/484 484/484/483 503/503/502
f 504/504/503 505/505/504 506/506/505
f 506/506/505 507/507/506 504/504/503
f 507/507/506 506/506/505 508/508/507
f 508/508/507 509/509/508 507/507/506
f 510/510/509 504/504/503 507/507/506
f 507/507/506 511/511/510 510/510/509
f 511/511/510 507/507/506 509/509/508
f 509/509/508 512/512/511 511/511/510
f 513/513/512 438/438/437 436/436/435
f 436/436/435 505/505/504 513/513/512
f 505/505/504 436/436/435 435/435/434
f 435/435/434 506/506/505 505/505/504
f 506/506/505 435/435/434 434/434/433
f 434/434/433 508/508/507 506/506/505
f 508/508/507 434/434/433 433/433/432
f 433/433/432 514/514/513 508/508/507
f 509/509/508 508/508/507 514/514/513
f 514/514/513 515/515/514 509/509/508
f 512/512/511 509/509/508 515/515/514
f 515/515/514 516/516/515 512/512/511
f 517/517/516 512/512/511 516/516/515
f 516/516/515 518/518/517 517/517/516
f 519/519/518 511/511/510 512/512/511
f 512/512/511 517/517/516 519/519/518
f 520/520/519 510/510/509 511/511/510
f 511/511/510 519/519/518 520/520/519
f 521/521/520 522/522/521 510/510/509
f 510/510/509 520/520/519 521/521/520
f 522/522/521 523/523/522 504/504/503
f 504/504/503 510/510/509 522/522/521
f 523/523/522 513/513/512 505/505/504
f 505/505/504 504/504/503 523/523/522
f 524/524/523 525/525/524 526/526/525
f 526/526/525 527/527/526 524/524/523
f 527/527/526 526/526/525 528/528/527
f 528/528/527 529/529/528 527/527/526
f 530/530/529 524/524/523 527/527/526
f 527/527/526 531/531/530 530/530/529
f 531/531/530 527/527/526 529/529/528
f 529/529/528 532/532/531 531/531/530
f 533/533/532 518/518/517 534/534/533
f 534/534/533 535/535/534 533/533/532
f 525/525/524 536/536/535 537/537/536
f 537/537/536 526/526/525 525/525/524
f 526/526/525 537/537/536 538/538/537
f 538/538/537 528/528/527 526/526/525
f 528/528/527 538/538/537 539/539/538
f 539/539/538 540/540/539 528/528/527
f 529/529/528 528/528/527 540/540/539
f 540/540/539 541/541/540 529/529/528
f 532/532/531 529/529/528 541/541/540
f 541/541/540 542/542/541 532/532/531
f 543/543/542 532/532/531 542/542/541
f 542/542/541 544/544/543 543/543/542
f 545/545/544 531/531/530 532/532/531
f 532/532/531 543/543/542 545/545/544
f 546/546/545 530/530/529 531/531/530
f 531/531/530 545/545/544 546/546/545
f 547/547/546 548/548/547 549/549/548
f 549/549/548 550/550/549 547/547/546
f 548/548/547 551/551/550 552/552/551
f 552/552/551 549/549/548 548/548/547
f 551/551/550 533/533/532 535/535/534
f 535/535/534 552/552/551 551/551/550
f 553/553/552 554/554/553 555/555/554
f 555/555/554 556/556/555 553/553/552
f 556/556/555 555/555/554 557/557/556
f 557/557/556 558/558/557 556/556/555
f 559/559/558 553/553/552 556/556/555
f 556/556/555 560/560/559 559/559/558
f 560/560/559 556/556/555 558/558/557
f 558/558/557 561/561/560 560/560/559
f 514/514/513 433/433/432 498/498/497
f 498/498/497 562/562/561 514/514/513
f 554/554/553 496/496/495 495/495/494
f 495/495/494 555/555/554 554/554/553
f 555/555/554 495/495/494 494/494/493
f 494/494/493 557/557/556 555/555/554
f 557/557/556 494/494/493 478/478/477
f 478/478/477 563/563/562 557/557/556
f 558/558/557 557/557/556 563/563/562
f 563/563/562 564/564/563 558/558/557
f 561/561/560 558/558/557 564/564/563
f 564/564/563 565/565/564 561/561/560
f 538/538/537 561/561/560 565/565/564
f 565/565/564 539/539/538 538/538/537
f 537/537/536 560/560/559 561/561/560
f 561/561/560 538/538/537 537/537/536
f 536/536/535 559/559/558 560/560/559
f 560/560/559 537/537/536 536/536/535
f 518/518/517 516/516/515 566/566/565
f 566/566/565 534/534/533 518/518/517
f 516/516/515 515/515/514 567/567/566
f 567/567/566 566/566/565 516/516/515
f 515/515/514 514/514/513 562/562/561
f 562/562/561 567/567/566 515/515/514
f 568/568/567 569/569/568 570/570/569
f 570/570/569 571/571/570 568/568/567
f 571/571/570 570/570/569 572/572/571
f 572/572/571 573/573/572 571/571/570
f 574/574/573 568/568/567 571/571/570
f 571/571/570 575/575/574 574/574/573
f 575/575/574 571/571/570 573/573/572
f 573/573/572 576/576/575 575/575/574
f 577/577/576 458/458/457 456/456/455
f 456/456/455 569/569/568 577/577/576
f 569/569/568 456/456/455 455/455/454
f 455/455/454 570/570/569 569/569/568
f 570/570/569 455/455/454 454/454/453
f 454/454/453 572/572/571 570/570/569
f 572/572/571 454/454/453 438/438/437
f 438/438/437 513/513/512 572/572/571
f 573/573/572 572/572/571 513/513/512
f 513/513/512 523/523/522 573/573/572
f 576/576/575 573/573/572 523/523/522
f 523/523/522 522/522/521 576/576/575
f 578/578/577 576/576/575 522/522/521
f 522/522/521 521/521/520 578/578/577
f 579/579/578 575/575/574 576/576/575
f 576/576/575 578/578/577 579/579/578
f 580/580/579 574/574/573 575/575/574
f 575/575/574 579/579/578 580/580/579
f 581/581/580 582/582/581 574/574/573
f 574/574/573 580/580/579 581/581/580
f 582/582/581 583/583/582 568/568/567
f 568/568/567 574/574/573 582/582/581
f 583/583/582 577/577/576 569/569/568
f 569/569/568 568/568/567 583/583/582
f 584/584/583 585/585/584 586/586/585
f 586/586/585 587/587/586 584/584/583
f 587/587/586 586/586/585 588/588/587
f 588/588/587 589/589/588 587/587/586
f 590/590/589 584/584/583 587/587/586
f 587/587/586 591/591/590 590/590/589
f 591/591/590 587/587/586 589/589/588
f 589/589/588 592/592/591 591/591/590
f 563/563/562 478/478/477 476/476/475
f 476/476/475 585/585/584 563/563/562
f 585/585/584 476/476/475 475/475/474
f 475/475/474 586/586/585 585/585/584
f 586/586/585 475/475/474 474/474/473
f 474/474/473 588/588/587 586/586/585
f 588/588/587 474/474/473 458/458/457
f 458/458/457 577/577/576 588/588/587
f 589/589/588 588/588/587 577/577/576
f 577/577/576 583/583/582 589/589/588
f 592/592/591 589/589/588 583/583/582
f 583/583/582 582/582/581 592/592/591
f 593/593/592 592/592/591 582/582/581
f 582/582/581 581/581/580 593/593/592
f 594/594/593 591/591/590 592/592/591
f 592/592/591 593/593/592 594/594/593
f 595/595/594 590/590/589 591/591/590
f 591/591/590 594/594/593 595/595/594
f 539/539/538 565/565/564 590/590/589
f 590/590/589 595/595/594 539/539/538
f 565/565/564 564/564/563 584/584/583
f 584/584/583 590/590/589 565/565/564
f 564/564/563 563/563/562 585/585/584
f 585/585/584 584/584/583 564/564/563
f 596/596/595 597/597/596 598/598/597
f 598/598/597 599/599/598 596/596/595
f 599/599/598 598/598/597 600/600/599
f 600/600/599 601/601/600 599/599/598
f 602/602/601 596/596/595 599/599/598
f 599/599/598 603/603/602 602/602/601
f 603/603/602 599/599/598 601/601/600
f 601/601/600 604/604/603 603/603/602
f 605/605/604 581/581/580 580/580/579
f 580/580/579 597/597/596 605/605/604
f 597/597/596 580/580/579 579/579/578
f 579/579/578 598/598/597 597/597/596
f 598/598/597 579/579/578 578/578/577
f 578/578/577 600/600/599 598/598/597
f 600/600/599 578/578/577 521/521/520
f 521/521/520 606/606/605 600/600/599
f 601/601/600 600/600/599 606/606/605
f 606/606/605 607/607/606 601/601/600
f 604/604/603 601/601/600 607/607/606
f 607/607/606 608/608/607 604/604/603
f 609/609/608 604/604/603 608/608/607
f 608/608/607 610/610/609 609/609/608
f 611/611/610 603/603/602 604/604/603
f 604/604/603 609/609/608 611/611/610
f 612/612/611 602/602/601 603/603/602
f 603/603/602 611/611/610 612/612/611
f 613/613/612 614/614/613 602/602/601
f 602/602/601 612/612/611 613/613/612
f 614/614/613 615/615/614 596/596/595
f 596/596/595 602/602/601 614/614/613
f 615/615/614 605/605/604 597/597/596
f 597/597/596 596/596/595 615/615/614
f 616/616/615 617/617/616 618/618/617
f 618/618/617 619/619/618 616/616/615
f 619/619/618 618/618/617 620/620/619
f 620/620/619 621/621/620 619/619/618
f 622/622/621 616/616/615 619/619/618
f 619/619/618 623/623/622 622/622/621
f 623/623/622 619/619/618 621/621/620
f 621/621/620 624/624/623 623/623/622
f 540/540/539 539/539/538 595/595/594
f 595/595/594 617/617/616 540/540/539
f 617/617/616 595/595/594 594/594/593
f 594/594/593 618/618/617 617/617/616
f 618/618/617 594/594/593 593/593/592
f 593/593/592 620/620/619 618/618/617
f 620/620/619 593/593/592 581/581/580
f 581/581/580 605/605/604 620/620/619
f 621/621/620 620/620/619 605/605/604
f 605/605/604 615/615/614 621/621/620
f 624/624/623 621/621/620 615/615/614
f 615/615/614 614/614/613 624/624/623
f 625/625/624 624/624/623 614/614/613
f 614/614/613 613/613/612 625/625/624
f 626/626/625 623/623/622 624/624/623
f 624/624/623 625/625/624 626/626/625
f 627/627/626 622/622/621 623/623/622
f 623/623/622 626/626/625 627/627/626
f 544/544/543 542/542/541 622/622/621
f 622/622/621 627/627/626 544/544/543
f 542/542/541 541/541/540 616/616/615
f 616/616/615 622/622/621 542/542/541
f 541/541/540 540/540/539 617/617/616
f 617/617/616 616/616/615 541/541/540
f 628/628/627 629/629/628 630/630/629
f 630/630/629 631/631/630 628/628/627
f 631/631/630 630/630/629 632/632/631
f 632/632/631 633/633/632 631/631/630
f 634/634/633 628/628/627 631/631/630
f 631/631/630 635/635/634 634/634/633
f 635/635/634 631/631/630 633/633/632
f 633/633/632 636/636/635 635/635/634
f 606/606/605 521/521/520 520/520/519
f 520/520/519 629/629/628 606/606/605
f 629/629/628 520/520/519 519/519/518
f 519/519/518 630/630/629 629/629/628
f 630/630/629 519/519/518 517/517/516
f 517/517/516 632/632/631 630/630/629
f 632/632/631 517/517/516 518/518/517
f 518/518/517 533/533/532 632/632/631
f 633/633/632 632/632/631 533/533/532
f 533/533/532 551/551/550 633/633/632
f 636/636/635 633/633/632 551/551/550
f 551/551/550 548/548/547 636/636/635
f 637/637/636 636/636/635 548/548/547
f 548/548/547 547/547/546 637/637/636
f 638/638/637 635/635/634 636/636/635
f 636/636/635 637/637/636 638/638/637
f 639/639/638 634/634/633 635/635/634
f 635/635/634 638/638/637 639/639/638
f 610/610/609 608/608/607 634/634/633
f 634/634/633 639/639/638 610/610/609
f 608/608/607 607/607/606 628/628/627
f 628/628/627 634/634/633 608/608/607
f 607/607/606 606/606/605 629/629/628
f 629/629/628 628/628/627 607/607/606
